<svg width="1867" height="1222" viewBox="0 0 1867 1222" fill="none" xmlns="http://www.w3.org/2000/svg">
<path d="M1.1643 580.893C1.16413 549.016 24.6221 521.999 56.1833 517.526L1902.66 255.824L1902.66 963.324L73.7565 1211.01C35.3478 1216.22 1.16754 1186.35 1.16734 1147.59L1.1643 580.893Z" fill="#363636"/>
<mask id="mask0_615_992" style="mask-type:alpha" maskUnits="userSpaceOnUse" x="0" y="254" width="1908" height="959">
<path opacity="0.88" d="M1907.66 254L55.6532 518.157C24.1061 522.656 0.675171 549.679 0.690308 581.546L0.957642 1148.53C0.975952 1187.3 35.1957 1217.15 73.6141 1211.91L1907.99 961.495L1907.66 254Z" fill="url(#paint0_radial_615_992)"/>
</mask>
<g mask="url(#mask0_615_992)">
<rect x="49" y="1016.75" width="32.1789" height="32.1789" rx="2" transform="rotate(-45 49 1016.75)" fill="url(#paint1_radial_615_992)" fill-opacity="0.3"/>
<rect x="108.93" y="1016.75" width="32.1789" height="32.1789" rx="2" transform="rotate(-45 108.93 1016.75)" fill="url(#paint2_radial_615_992)" fill-opacity="0.3"/>
<rect x="168.852" y="1016.75" width="32.1789" height="32.1789" rx="2" transform="rotate(-45 168.852 1016.75)" fill="url(#paint3_radial_615_992)" fill-opacity="0.3"/>
<rect x="228.781" y="1016.75" width="32.1789" height="32.1789" rx="2" transform="rotate(-45 228.781 1016.75)" fill="url(#paint4_radial_615_992)" fill-opacity="0.3"/>
<rect x="288.715" y="1016.75" width="32.1789" height="32.1789" rx="2" transform="rotate(-45 288.715 1016.75)" fill="url(#paint5_radial_615_992)" fill-opacity="0.3"/>
<rect x="348.637" y="1016.75" width="32.1789" height="32.1789" rx="2" transform="rotate(-45 348.637 1016.75)" fill="url(#paint6_radial_615_992)" fill-opacity="0.3"/>
<rect x="408.562" y="1016.75" width="32.1789" height="32.1789" rx="2" transform="rotate(-45 408.562 1016.75)" fill="url(#paint7_radial_615_992)" fill-opacity="0.3"/>
<rect x="468.492" y="1016.75" width="32.1789" height="32.1789" rx="2" transform="rotate(-45 468.492 1016.75)" fill="url(#paint8_radial_615_992)" fill-opacity="0.3"/>
<rect x="49" y="1139.31" width="32.1789" height="32.1789" rx="2" transform="rotate(-45 49 1139.31)" fill="url(#paint9_radial_615_992)" fill-opacity="0.3"/>
<rect x="108.93" y="1139.31" width="32.1789" height="32.1789" rx="2" transform="rotate(-45 108.93 1139.31)" fill="url(#paint10_radial_615_992)" fill-opacity="0.3"/>
<rect x="168.852" y="1139.31" width="32.1789" height="32.1789" rx="2" transform="rotate(-45 168.852 1139.31)" fill="url(#paint11_radial_615_992)" fill-opacity="0.3"/>
<rect x="228.781" y="1139.31" width="32.1789" height="32.1789" rx="2" transform="rotate(-45 228.781 1139.31)" fill="url(#paint12_radial_615_992)" fill-opacity="0.3"/>
<rect x="288.715" y="1139.31" width="32.1789" height="32.1789" rx="2" transform="rotate(-45 288.715 1139.31)" fill="url(#paint13_radial_615_992)" fill-opacity="0.3"/>
<rect x="348.637" y="1139.31" width="32.1789" height="32.1789" rx="2" transform="rotate(-45 348.637 1139.31)" fill="url(#paint14_radial_615_992)" fill-opacity="0.3"/>
<rect x="408.562" y="1139.31" width="32.1789" height="32.1789" rx="2" transform="rotate(-45 408.562 1139.31)" fill="url(#paint15_radial_615_992)" fill-opacity="0.3"/>
<rect x="468.492" y="1139.31" width="32.1789" height="32.1789" rx="2" transform="rotate(-45 468.492 1139.31)" fill="url(#paint16_radial_615_992)" fill-opacity="0.3"/>
<rect x="49" y="1078.03" width="32.1789" height="32.1789" rx="2" transform="rotate(-45 49 1078.03)" fill="url(#paint17_radial_615_992)" fill-opacity="0.3"/>
<rect x="108.93" y="1078.03" width="32.1789" height="32.1789" rx="2" transform="rotate(-45 108.93 1078.03)" fill="url(#paint18_radial_615_992)" fill-opacity="0.3"/>
<rect x="168.852" y="1078.03" width="32.1789" height="32.1789" rx="2" transform="rotate(-45 168.852 1078.03)" fill="url(#paint19_radial_615_992)" fill-opacity="0.3"/>
<rect x="228.781" y="1078.03" width="32.1789" height="32.1789" rx="2" transform="rotate(-45 228.781 1078.03)" fill="url(#paint20_radial_615_992)" fill-opacity="0.3"/>
<rect x="288.715" y="1078.03" width="32.1789" height="32.1789" rx="2" transform="rotate(-45 288.715 1078.03)" fill="url(#paint21_radial_615_992)" fill-opacity="0.3"/>
<rect x="348.637" y="1078.03" width="32.1789" height="32.1789" rx="2" transform="rotate(-45 348.637 1078.03)" fill="url(#paint22_radial_615_992)" fill-opacity="0.3"/>
<rect x="408.562" y="1078.03" width="32.1789" height="32.1789" rx="2" transform="rotate(-45 408.562 1078.03)" fill="url(#paint23_radial_615_992)" fill-opacity="0.3"/>
<rect x="468.492" y="1078.03" width="32.1789" height="32.1789" rx="2" transform="rotate(-45 468.492 1078.03)" fill="url(#paint24_radial_615_992)" fill-opacity="0.3"/>
<rect width="32.1789" height="32.1789" rx="2" transform="matrix(0.707105 -0.707108 0.707105 0.707108 49 1200.58)" fill="url(#paint25_radial_615_992)" fill-opacity="0.3"/>
<rect width="32.1789" height="32.1789" rx="2" transform="matrix(0.707105 -0.707108 0.707105 0.707108 108.93 1200.58)" fill="url(#paint26_radial_615_992)" fill-opacity="0.3"/>
<rect width="32.1789" height="32.1789" rx="2" transform="matrix(0.707105 -0.707108 0.707105 0.707108 168.852 1200.58)" fill="url(#paint27_radial_615_992)" fill-opacity="0.3"/>
<rect width="32.1789" height="32.1789" rx="2" transform="matrix(0.707105 -0.707108 0.707105 0.707108 228.781 1200.58)" fill="url(#paint28_radial_615_992)" fill-opacity="0.3"/>
<rect width="32.1789" height="32.1789" rx="2" transform="matrix(0.707105 -0.707108 0.707105 0.707108 288.715 1200.58)" fill="url(#paint29_radial_615_992)" fill-opacity="0.3"/>
<rect width="32.1789" height="32.1789" rx="2" transform="matrix(0.707105 -0.707108 0.707105 0.707108 348.637 1200.58)" fill="url(#paint30_radial_615_992)" fill-opacity="0.3"/>
<rect width="32.1789" height="32.1789" rx="2" transform="matrix(0.707105 -0.707108 0.707105 0.707108 408.562 1200.58)" fill="url(#paint31_radial_615_992)" fill-opacity="0.3"/>
<rect width="32.1789" height="32.1789" rx="2" transform="matrix(0.707105 -0.707108 0.707105 0.707108 468.492 1200.58)" fill="url(#paint32_radial_615_992)" fill-opacity="0.3"/>
<rect x="1085" y="1026.16" width="698.854" height="698.854" rx="57.0249" transform="rotate(-45 1085 1026.16)" fill="url(#paint33_radial_615_992)" fill-opacity="0.3"/>
<rect x="-329" y="584.035" width="639.273" height="639.273" rx="67.6132" transform="rotate(-45 -329 584.035)" fill="url(#paint34_radial_615_992)" fill-opacity="0.3"/>
<rect x="1175.66" y="536.059" width="20.13" height="20.13" rx="2" transform="rotate(-45 1175.66 536.059)" fill="url(#paint35_radial_615_992)" fill-opacity="0.3"/>
<rect x="1213.16" y="536.059" width="20.13" height="20.13" rx="2" transform="rotate(-45 1213.16 536.059)" fill="url(#paint36_radial_615_992)" fill-opacity="0.3"/>
<rect x="1250.64" y="536.059" width="20.13" height="20.13" rx="2" transform="rotate(-45 1250.64 536.059)" fill="url(#paint37_radial_615_992)" fill-opacity="0.3"/>
<rect x="1288.13" y="536.059" width="20.13" height="20.13" rx="2" transform="rotate(-45 1288.13 536.059)" fill="url(#paint38_radial_615_992)" fill-opacity="0.3"/>
<rect x="1325.62" y="536.059" width="20.13" height="20.13" rx="2" transform="rotate(-45 1325.62 536.059)" fill="url(#paint39_radial_615_992)" fill-opacity="0.3"/>
<rect x="1363.11" y="536.059" width="20.13" height="20.13" rx="2" transform="rotate(-45 1363.11 536.059)" fill="url(#paint40_radial_615_992)" fill-opacity="0.3"/>
<rect x="1400.6" y="536.059" width="20.13" height="20.13" rx="2" transform="rotate(-45 1400.6 536.059)" fill="url(#paint41_radial_615_992)" fill-opacity="0.3"/>
<rect x="1438.08" y="536.059" width="20.13" height="20.13" rx="2" transform="rotate(-45 1438.08 536.059)" fill="url(#paint42_radial_615_992)" fill-opacity="0.3"/>
<rect x="1175.66" y="612.722" width="20.13" height="20.13" rx="2" transform="rotate(-45 1175.66 612.722)" fill="url(#paint43_radial_615_992)" fill-opacity="0.3"/>
<rect x="1213.16" y="612.722" width="20.13" height="20.13" rx="2" transform="rotate(-45 1213.16 612.722)" fill="url(#paint44_radial_615_992)" fill-opacity="0.3"/>
<rect x="1250.64" y="612.722" width="20.13" height="20.13" rx="2" transform="rotate(-45 1250.64 612.722)" fill="url(#paint45_radial_615_992)" fill-opacity="0.3"/>
<rect x="1288.13" y="612.722" width="20.13" height="20.13" rx="2" transform="rotate(-45 1288.13 612.722)" fill="url(#paint46_radial_615_992)" fill-opacity="0.3"/>
<rect x="1325.62" y="612.722" width="20.13" height="20.13" rx="2" transform="rotate(-45 1325.62 612.722)" fill="url(#paint47_radial_615_992)" fill-opacity="0.3"/>
<rect x="1363.11" y="612.722" width="20.13" height="20.13" rx="2" transform="rotate(-45 1363.11 612.722)" fill="url(#paint48_radial_615_992)" fill-opacity="0.3"/>
<rect x="1400.6" y="612.722" width="20.13" height="20.13" rx="2" transform="rotate(-45 1400.6 612.722)" fill="url(#paint49_radial_615_992)" fill-opacity="0.3"/>
<rect x="1438.08" y="612.722" width="20.13" height="20.13" rx="2" transform="rotate(-45 1438.08 612.722)" fill="url(#paint50_radial_615_992)" fill-opacity="0.3"/>
<rect x="1175.66" y="689.386" width="20.13" height="20.13" rx="2" transform="rotate(-45 1175.66 689.386)" fill="url(#paint51_radial_615_992)" fill-opacity="0.3"/>
<rect x="1213.16" y="689.386" width="20.13" height="20.13" rx="2" transform="rotate(-45 1213.16 689.386)" fill="url(#paint52_radial_615_992)" fill-opacity="0.3"/>
<rect x="1250.64" y="689.386" width="20.13" height="20.13" rx="2" transform="rotate(-45 1250.64 689.386)" fill="url(#paint53_radial_615_992)" fill-opacity="0.3"/>
<rect x="1288.13" y="689.386" width="20.13" height="20.13" rx="2" transform="rotate(-45 1288.13 689.386)" fill="url(#paint54_radial_615_992)" fill-opacity="0.3"/>
<rect x="1325.62" y="689.386" width="20.13" height="20.13" rx="2" transform="rotate(-45 1325.62 689.386)" fill="url(#paint55_radial_615_992)" fill-opacity="0.3"/>
<rect x="1363.11" y="689.386" width="20.13" height="20.13" rx="2" transform="rotate(-45 1363.11 689.386)" fill="url(#paint56_radial_615_992)" fill-opacity="0.3"/>
<rect x="1400.6" y="689.386" width="20.13" height="20.13" rx="2" transform="rotate(-45 1400.6 689.386)" fill="url(#paint57_radial_615_992)" fill-opacity="0.3"/>
<rect x="1438.08" y="689.386" width="20.13" height="20.13" rx="2" transform="rotate(-45 1438.08 689.386)" fill="url(#paint58_radial_615_992)" fill-opacity="0.3"/>
<rect x="1175.66" y="574.39" width="20.13" height="20.13" rx="2" transform="rotate(-45 1175.66 574.39)" fill="url(#paint59_radial_615_992)" fill-opacity="0.3"/>
<rect x="1213.16" y="574.39" width="20.13" height="20.13" rx="2" transform="rotate(-45 1213.16 574.39)" fill="url(#paint60_radial_615_992)" fill-opacity="0.3"/>
<rect x="1250.64" y="574.39" width="20.13" height="20.13" rx="2" transform="rotate(-45 1250.64 574.39)" fill="url(#paint61_radial_615_992)" fill-opacity="0.3"/>
<rect x="1288.13" y="574.39" width="20.13" height="20.13" rx="2" transform="rotate(-45 1288.13 574.39)" fill="url(#paint62_radial_615_992)" fill-opacity="0.3"/>
<rect x="1325.62" y="574.39" width="20.13" height="20.13" rx="2" transform="rotate(-45 1325.62 574.39)" fill="url(#paint63_radial_615_992)" fill-opacity="0.3"/>
<rect x="1363.11" y="574.39" width="20.13" height="20.13" rx="2" transform="rotate(-45 1363.11 574.39)" fill="url(#paint64_radial_615_992)" fill-opacity="0.3"/>
<rect x="1400.6" y="574.39" width="20.13" height="20.13" rx="2" transform="rotate(-45 1400.6 574.39)" fill="url(#paint65_radial_615_992)" fill-opacity="0.3"/>
<rect x="1438.08" y="574.39" width="20.13" height="20.13" rx="2" transform="rotate(-45 1438.08 574.39)" fill="url(#paint66_radial_615_992)" fill-opacity="0.3"/>
<rect width="20.13" height="20.13" rx="2" transform="matrix(0.707105 -0.707108 0.707105 0.707108 1175.66 651.054)" fill="url(#paint67_radial_615_992)" fill-opacity="0.3"/>
<rect width="20.13" height="20.13" rx="2" transform="matrix(0.707105 -0.707108 0.707105 0.707108 1213.16 651.054)" fill="url(#paint68_radial_615_992)" fill-opacity="0.3"/>
<rect width="20.13" height="20.13" rx="2" transform="matrix(0.707105 -0.707108 0.707105 0.707108 1250.64 651.054)" fill="url(#paint69_radial_615_992)" fill-opacity="0.3"/>
<rect width="20.13" height="20.13" rx="2" transform="matrix(0.707105 -0.707108 0.707105 0.707108 1288.13 651.054)" fill="url(#paint70_radial_615_992)" fill-opacity="0.3"/>
<rect width="20.13" height="20.13" rx="2" transform="matrix(0.707105 -0.707108 0.707105 0.707108 1325.62 651.054)" fill="url(#paint71_radial_615_992)" fill-opacity="0.3"/>
<rect width="20.13" height="20.13" rx="2" transform="matrix(0.707105 -0.707108 0.707105 0.707108 1363.11 651.054)" fill="url(#paint72_radial_615_992)" fill-opacity="0.3"/>
<rect width="20.13" height="20.13" rx="2" transform="matrix(0.707105 -0.707108 0.707105 0.707108 1400.6 651.054)" fill="url(#paint73_radial_615_992)" fill-opacity="0.3"/>
<rect width="20.13" height="20.13" rx="2" transform="matrix(0.707105 -0.707108 0.707105 0.707108 1438.08 651.054)" fill="url(#paint74_radial_615_992)" fill-opacity="0.3"/>
<rect x="1175.66" y="727.718" width="20.13" height="20.13" rx="2" transform="rotate(-45 1175.66 727.718)" fill="url(#paint75_radial_615_992)" fill-opacity="0.3"/>
<rect x="1213.16" y="727.718" width="20.13" height="20.13" rx="2" transform="rotate(-45 1213.16 727.718)" fill="url(#paint76_radial_615_992)" fill-opacity="0.3"/>
<rect x="1250.64" y="727.718" width="20.13" height="20.13" rx="2" transform="rotate(-45 1250.64 727.718)" fill="url(#paint77_radial_615_992)" fill-opacity="0.3"/>
<rect x="1288.13" y="727.718" width="20.13" height="20.13" rx="2" transform="rotate(-45 1288.13 727.718)" fill="url(#paint78_radial_615_992)" fill-opacity="0.3"/>
<rect x="1325.62" y="727.718" width="20.13" height="20.13" rx="2" transform="rotate(-45 1325.62 727.718)" fill="url(#paint79_radial_615_992)" fill-opacity="0.3"/>
<rect x="1363.11" y="727.718" width="20.13" height="20.13" rx="2" transform="rotate(-45 1363.11 727.718)" fill="url(#paint80_radial_615_992)" fill-opacity="0.3"/>
<rect x="1400.6" y="727.718" width="20.13" height="20.13" rx="2" transform="rotate(-45 1400.6 727.718)" fill="url(#paint81_radial_615_992)" fill-opacity="0.3"/>
<rect x="1438.08" y="727.718" width="20.13" height="20.13" rx="2" transform="rotate(-45 1438.08 727.718)" fill="url(#paint82_radial_615_992)" fill-opacity="0.3"/>
</g>
<path d="M1434.42 311.155C1432.76 311.077 1431.48 309.672 1431.56 308.017C1431.64 306.362 1433.05 305.083 1434.7 305.161C1436.36 305.239 1437.63 306.644 1437.56 308.299C1437.48 309.954 1436.07 311.232 1434.42 311.155Z" fill="#3897FF"/>
<path d="M1519.78 291.215C1517.02 291.086 1514.89 288.745 1515.02 285.986C1515.15 283.228 1517.49 281.097 1520.25 281.226C1523.01 281.356 1525.14 283.697 1525.01 286.455C1524.88 289.214 1522.53 291.345 1519.78 291.215Z" fill="#8E4DD5"/>
<path d="M1600.16 286.188C1597.95 286.084 1596.25 284.211 1596.35 282.004C1596.46 279.798 1598.33 278.093 1600.54 278.197C1602.74 278.3 1604.45 280.173 1604.34 282.38C1604.24 284.586 1602.36 286.291 1600.16 286.188Z" fill="#00A98F"/>
<path d="M924.919 383.131C923.54 383.066 922.474 381.895 922.54 380.516C922.605 379.137 923.776 378.072 925.155 378.136C926.534 378.201 927.599 379.372 927.534 380.751C927.469 382.13 926.298 383.196 924.919 383.131Z" fill="#00A98F"/>
<path d="M1838.57 174.831C1837 174.291 1836.17 172.584 1836.72 171.019C1837.26 169.455 1838.97 168.624 1840.54 169.164C1842.11 169.704 1842.94 171.411 1842.39 172.976C1841.85 174.541 1840.14 175.371 1838.57 174.831Z" fill="#00A98F"/>
<path d="M1832.13 142.063C1831.34 141.793 1830.93 140.94 1831.2 140.157C1831.47 139.375 1832.33 138.96 1833.11 139.23C1833.9 139.5 1834.31 140.353 1834.04 141.136C1833.77 141.918 1832.91 142.333 1832.13 142.063Z" fill="#00A98F"/>
<path d="M1826.63 212.011C1824.02 211.111 1822.64 208.267 1823.55 205.659C1824.46 203.051 1827.31 201.667 1829.92 202.567C1832.53 203.467 1833.91 206.311 1833 208.92C1832.09 211.528 1829.24 212.912 1826.63 212.011Z" fill="#8E4DD5"/>
<path d="M1861.1 53.8132C1859.27 53.183 1858.3 51.1921 1858.94 49.3664C1859.57 47.5408 1861.57 46.5718 1863.4 47.2021C1865.23 47.8323 1866.19 49.8232 1865.56 51.6488C1864.92 53.4745 1862.93 54.4435 1861.1 53.8132Z" fill="#8E4DD5"/>
<path d="M1832.63 60.1648C1830.01 59.2644 1828.63 56.4203 1829.54 53.8122C1830.45 51.2042 1833.3 49.8199 1835.91 50.7203C1838.52 51.6207 1839.9 54.4648 1839 57.0728C1838.09 59.6809 1835.24 61.0652 1832.63 60.1648Z" fill="#3897FF"/>
<path d="M1835.34 100.139L1842 97.7913L1848.32 100.923L1845.99 94.2701L1849.14 87.9487L1842.48 90.2968L1836.16 87.1651L1838.49 93.8175L1835.34 100.139Z" fill="#FFCC00"/>
<path d="M1792.74 228.156L1796.5 228.681L1798.75 231.741L1799.28 227.982L1802.35 225.738L1798.58 225.213L1796.34 222.153L1795.81 225.911L1792.74 228.156Z" fill="#FFCC00"/>
<path d="M1206.74 340.91L1210.5 341.435L1212.75 344.495L1213.28 340.737L1216.35 338.493L1212.59 337.968L1210.34 334.908L1209.81 338.666L1206.74 340.91Z" fill="#FFCC00"/>
<path d="M1842.3 239.954L1844.99 240.329L1846.59 242.515L1846.97 239.831L1849.16 238.228L1846.47 237.853L1844.87 235.667L1844.49 238.351L1842.3 239.954Z" fill="#8E4DD5"/>
<path d="M1829.75 13.6657L1832.44 14.0407L1834.04 16.2264L1834.42 13.5418L1836.62 11.939L1833.93 11.564L1832.32 9.37823L1831.94 12.0626L1829.75 13.6657Z" fill="#00A98F"/>
<path d="M1065.59 348.511L1068.28 348.886L1069.88 351.072L1070.26 348.387L1072.46 346.784L1069.77 346.409L1068.16 344.224L1067.78 346.908L1065.59 348.511Z" fill="#8E4DD5"/>
<path d="M1675.6 261.407L1682.12 263.74L1678.83 250.917L1672.02 248.937L1675.6 261.407Z" fill="#00A98F"/>
<path d="M1333.45 319.669L1334.51 324.116L1340.39 317.887L1339.03 313.4L1333.45 319.669Z" fill="#00A98F"/>
<path d="M1764.99 259.757L1764.83 254.028L1755.91 260.303L1756.43 266.152L1764.99 259.757Z" fill="#3897FF"/>
<path d="M1862.48 118.685L1862.31 115.305L1857.2 118.883L1857.59 122.339L1862.48 118.685Z" fill="#3897FF"/>
<defs>
<radialGradient id="paint0_radial_615_992" cx="0" cy="0" r="1" gradientUnits="userSpaceOnUse" gradientTransform="translate(603.647 900.731) rotate(98.5547) scale(618.222 1114.44)">
<stop stop-color="#FF474D"/>
<stop offset="1" stop-color="#FF8286" stop-opacity="0.57"/>
</radialGradient>
<radialGradient id="paint1_radial_615_992" cx="0" cy="0" r="1" gradientUnits="userSpaceOnUse" gradientTransform="translate(65.0895 1032.84) rotate(85.3036) scale(30.8388)">
<stop stop-color="#6D6D6D" stop-opacity="0.6"/>
<stop offset="1" stop-color="#FAFAFA" stop-opacity="0"/>
</radialGradient>
<radialGradient id="paint2_radial_615_992" cx="0" cy="0" r="1" gradientUnits="userSpaceOnUse" gradientTransform="translate(125.019 1032.84) rotate(85.3036) scale(30.8388)">
<stop stop-color="#6D6D6D" stop-opacity="0.6"/>
<stop offset="1" stop-color="#FAFAFA" stop-opacity="0"/>
</radialGradient>
<radialGradient id="paint3_radial_615_992" cx="0" cy="0" r="1" gradientUnits="userSpaceOnUse" gradientTransform="translate(184.941 1032.84) rotate(85.3036) scale(30.8388)">
<stop stop-color="#6D6D6D" stop-opacity="0.6"/>
<stop offset="1" stop-color="#FAFAFA" stop-opacity="0"/>
</radialGradient>
<radialGradient id="paint4_radial_615_992" cx="0" cy="0" r="1" gradientUnits="userSpaceOnUse" gradientTransform="translate(244.871 1032.84) rotate(85.3036) scale(30.8388)">
<stop stop-color="#6D6D6D" stop-opacity="0.6"/>
<stop offset="1" stop-color="#FAFAFA" stop-opacity="0"/>
</radialGradient>
<radialGradient id="paint5_radial_615_992" cx="0" cy="0" r="1" gradientUnits="userSpaceOnUse" gradientTransform="translate(304.804 1032.84) rotate(85.3036) scale(30.8388)">
<stop stop-color="#6D6D6D" stop-opacity="0.6"/>
<stop offset="1" stop-color="#FAFAFA" stop-opacity="0"/>
</radialGradient>
<radialGradient id="paint6_radial_615_992" cx="0" cy="0" r="1" gradientUnits="userSpaceOnUse" gradientTransform="translate(364.726 1032.84) rotate(85.3036) scale(30.8388)">
<stop stop-color="#6D6D6D" stop-opacity="0.6"/>
<stop offset="1" stop-color="#FAFAFA" stop-opacity="0"/>
</radialGradient>
<radialGradient id="paint7_radial_615_992" cx="0" cy="0" r="1" gradientUnits="userSpaceOnUse" gradientTransform="translate(424.652 1032.84) rotate(85.3036) scale(30.8388)">
<stop stop-color="#6D6D6D" stop-opacity="0.6"/>
<stop offset="1" stop-color="#FAFAFA" stop-opacity="0"/>
</radialGradient>
<radialGradient id="paint8_radial_615_992" cx="0" cy="0" r="1" gradientUnits="userSpaceOnUse" gradientTransform="translate(484.582 1032.84) rotate(85.3036) scale(30.8388)">
<stop stop-color="#6D6D6D" stop-opacity="0.6"/>
<stop offset="1" stop-color="#FAFAFA" stop-opacity="0"/>
</radialGradient>
<radialGradient id="paint9_radial_615_992" cx="0" cy="0" r="1" gradientUnits="userSpaceOnUse" gradientTransform="translate(65.0895 1155.39) rotate(85.3036) scale(30.8388)">
<stop stop-color="#6D6D6D" stop-opacity="0.6"/>
<stop offset="1" stop-color="#FAFAFA" stop-opacity="0"/>
</radialGradient>
<radialGradient id="paint10_radial_615_992" cx="0" cy="0" r="1" gradientUnits="userSpaceOnUse" gradientTransform="translate(125.019 1155.39) rotate(85.3036) scale(30.8388)">
<stop stop-color="#6D6D6D" stop-opacity="0.6"/>
<stop offset="1" stop-color="#FAFAFA" stop-opacity="0"/>
</radialGradient>
<radialGradient id="paint11_radial_615_992" cx="0" cy="0" r="1" gradientUnits="userSpaceOnUse" gradientTransform="translate(184.941 1155.39) rotate(85.3036) scale(30.8388)">
<stop stop-color="#6D6D6D" stop-opacity="0.6"/>
<stop offset="1" stop-color="#FAFAFA" stop-opacity="0"/>
</radialGradient>
<radialGradient id="paint12_radial_615_992" cx="0" cy="0" r="1" gradientUnits="userSpaceOnUse" gradientTransform="translate(244.871 1155.39) rotate(85.3036) scale(30.8388)">
<stop stop-color="#6D6D6D" stop-opacity="0.6"/>
<stop offset="1" stop-color="#FAFAFA" stop-opacity="0"/>
</radialGradient>
<radialGradient id="paint13_radial_615_992" cx="0" cy="0" r="1" gradientUnits="userSpaceOnUse" gradientTransform="translate(304.804 1155.39) rotate(85.3036) scale(30.8388)">
<stop stop-color="#6D6D6D" stop-opacity="0.6"/>
<stop offset="1" stop-color="#FAFAFA" stop-opacity="0"/>
</radialGradient>
<radialGradient id="paint14_radial_615_992" cx="0" cy="0" r="1" gradientUnits="userSpaceOnUse" gradientTransform="translate(364.726 1155.39) rotate(85.3036) scale(30.8388)">
<stop stop-color="#6D6D6D" stop-opacity="0.6"/>
<stop offset="1" stop-color="#FAFAFA" stop-opacity="0"/>
</radialGradient>
<radialGradient id="paint15_radial_615_992" cx="0" cy="0" r="1" gradientUnits="userSpaceOnUse" gradientTransform="translate(424.652 1155.39) rotate(85.3036) scale(30.8388)">
<stop stop-color="#6D6D6D" stop-opacity="0.6"/>
<stop offset="1" stop-color="#FAFAFA" stop-opacity="0"/>
</radialGradient>
<radialGradient id="paint16_radial_615_992" cx="0" cy="0" r="1" gradientUnits="userSpaceOnUse" gradientTransform="translate(484.582 1155.39) rotate(85.3036) scale(30.8388)">
<stop stop-color="#6D6D6D" stop-opacity="0.6"/>
<stop offset="1" stop-color="#FAFAFA" stop-opacity="0"/>
</radialGradient>
<radialGradient id="paint17_radial_615_992" cx="0" cy="0" r="1" gradientUnits="userSpaceOnUse" gradientTransform="translate(65.0895 1094.12) rotate(85.3036) scale(30.8388)">
<stop stop-color="#6D6D6D" stop-opacity="0.6"/>
<stop offset="1" stop-color="#FAFAFA" stop-opacity="0"/>
</radialGradient>
<radialGradient id="paint18_radial_615_992" cx="0" cy="0" r="1" gradientUnits="userSpaceOnUse" gradientTransform="translate(125.019 1094.12) rotate(85.3036) scale(30.8388)">
<stop stop-color="#6D6D6D" stop-opacity="0.6"/>
<stop offset="1" stop-color="#FAFAFA" stop-opacity="0"/>
</radialGradient>
<radialGradient id="paint19_radial_615_992" cx="0" cy="0" r="1" gradientUnits="userSpaceOnUse" gradientTransform="translate(184.941 1094.12) rotate(85.3036) scale(30.8388)">
<stop stop-color="#6D6D6D" stop-opacity="0.6"/>
<stop offset="1" stop-color="#FAFAFA" stop-opacity="0"/>
</radialGradient>
<radialGradient id="paint20_radial_615_992" cx="0" cy="0" r="1" gradientUnits="userSpaceOnUse" gradientTransform="translate(244.871 1094.12) rotate(85.3036) scale(30.8388)">
<stop stop-color="#6D6D6D" stop-opacity="0.6"/>
<stop offset="1" stop-color="#FAFAFA" stop-opacity="0"/>
</radialGradient>
<radialGradient id="paint21_radial_615_992" cx="0" cy="0" r="1" gradientUnits="userSpaceOnUse" gradientTransform="translate(304.804 1094.12) rotate(85.3036) scale(30.8388)">
<stop stop-color="#6D6D6D" stop-opacity="0.6"/>
<stop offset="1" stop-color="#FAFAFA" stop-opacity="0"/>
</radialGradient>
<radialGradient id="paint22_radial_615_992" cx="0" cy="0" r="1" gradientUnits="userSpaceOnUse" gradientTransform="translate(364.726 1094.12) rotate(85.3036) scale(30.8388)">
<stop stop-color="#6D6D6D" stop-opacity="0.6"/>
<stop offset="1" stop-color="#FAFAFA" stop-opacity="0"/>
</radialGradient>
<radialGradient id="paint23_radial_615_992" cx="0" cy="0" r="1" gradientUnits="userSpaceOnUse" gradientTransform="translate(424.652 1094.12) rotate(85.3036) scale(30.8388)">
<stop stop-color="#6D6D6D" stop-opacity="0.6"/>
<stop offset="1" stop-color="#FAFAFA" stop-opacity="0"/>
</radialGradient>
<radialGradient id="paint24_radial_615_992" cx="0" cy="0" r="1" gradientUnits="userSpaceOnUse" gradientTransform="translate(484.582 1094.12) rotate(85.3036) scale(30.8388)">
<stop stop-color="#6D6D6D" stop-opacity="0.6"/>
<stop offset="1" stop-color="#FAFAFA" stop-opacity="0"/>
</radialGradient>
<radialGradient id="paint25_radial_615_992" cx="0" cy="0" r="1" gradientUnits="userSpaceOnUse" gradientTransform="translate(16.0895 16.0895) rotate(85.3036) scale(30.8388)">
<stop stop-color="#6D6D6D" stop-opacity="0.6"/>
<stop offset="1" stop-color="#FAFAFA" stop-opacity="0"/>
</radialGradient>
<radialGradient id="paint26_radial_615_992" cx="0" cy="0" r="1" gradientUnits="userSpaceOnUse" gradientTransform="translate(16.0895 16.0895) rotate(85.3036) scale(30.8388)">
<stop stop-color="#6D6D6D" stop-opacity="0.6"/>
<stop offset="1" stop-color="#FAFAFA" stop-opacity="0"/>
</radialGradient>
<radialGradient id="paint27_radial_615_992" cx="0" cy="0" r="1" gradientUnits="userSpaceOnUse" gradientTransform="translate(16.0895 16.0895) rotate(85.3036) scale(30.8388)">
<stop stop-color="#6D6D6D" stop-opacity="0.6"/>
<stop offset="1" stop-color="#FAFAFA" stop-opacity="0"/>
</radialGradient>
<radialGradient id="paint28_radial_615_992" cx="0" cy="0" r="1" gradientUnits="userSpaceOnUse" gradientTransform="translate(16.0895 16.0895) rotate(85.3036) scale(30.8388)">
<stop stop-color="#6D6D6D" stop-opacity="0.6"/>
<stop offset="1" stop-color="#FAFAFA" stop-opacity="0"/>
</radialGradient>
<radialGradient id="paint29_radial_615_992" cx="0" cy="0" r="1" gradientUnits="userSpaceOnUse" gradientTransform="translate(16.0895 16.0895) rotate(85.3036) scale(30.8388)">
<stop stop-color="#6D6D6D" stop-opacity="0.6"/>
<stop offset="1" stop-color="#FAFAFA" stop-opacity="0"/>
</radialGradient>
<radialGradient id="paint30_radial_615_992" cx="0" cy="0" r="1" gradientUnits="userSpaceOnUse" gradientTransform="translate(16.0895 16.0895) rotate(85.3036) scale(30.8388)">
<stop stop-color="#6D6D6D" stop-opacity="0.6"/>
<stop offset="1" stop-color="#FAFAFA" stop-opacity="0"/>
</radialGradient>
<radialGradient id="paint31_radial_615_992" cx="0" cy="0" r="1" gradientUnits="userSpaceOnUse" gradientTransform="translate(16.0895 16.0895) rotate(85.3036) scale(30.8388)">
<stop stop-color="#6D6D6D" stop-opacity="0.6"/>
<stop offset="1" stop-color="#FAFAFA" stop-opacity="0"/>
</radialGradient>
<radialGradient id="paint32_radial_615_992" cx="0" cy="0" r="1" gradientUnits="userSpaceOnUse" gradientTransform="translate(16.0895 16.0895) rotate(85.3036) scale(30.8388)">
<stop stop-color="#6D6D6D" stop-opacity="0.6"/>
<stop offset="1" stop-color="#FAFAFA" stop-opacity="0"/>
</radialGradient>
<radialGradient id="paint33_radial_615_992" cx="0" cy="0" r="1" gradientUnits="userSpaceOnUse" gradientTransform="translate(1434.43 1375.59) rotate(85.3036) scale(669.749)">
<stop stop-color="#373737"/>
<stop offset="1" stop-color="#FAFAFA" stop-opacity="0"/>
</radialGradient>
<radialGradient id="paint34_radial_615_992" cx="0" cy="0" r="1" gradientUnits="userSpaceOnUse" gradientTransform="translate(-9.36323 903.671) rotate(85.3036) scale(612.649)">
<stop stop-color="#373737"/>
<stop offset="1" stop-color="#FAFAFA" stop-opacity="0"/>
</radialGradient>
<radialGradient id="paint35_radial_615_992" cx="0" cy="0" r="1" gradientUnits="userSpaceOnUse" gradientTransform="translate(1185.73 546.124) rotate(85.3036) scale(19.2917)">
<stop stop-color="#6D6D6D" stop-opacity="0.6"/>
<stop offset="1" stop-color="#FAFAFA" stop-opacity="0"/>
</radialGradient>
<radialGradient id="paint36_radial_615_992" cx="0" cy="0" r="1" gradientUnits="userSpaceOnUse" gradientTransform="translate(1223.22 546.124) rotate(85.3036) scale(19.2917)">
<stop stop-color="#6D6D6D" stop-opacity="0.6"/>
<stop offset="1" stop-color="#FAFAFA" stop-opacity="0"/>
</radialGradient>
<radialGradient id="paint37_radial_615_992" cx="0" cy="0" r="1" gradientUnits="userSpaceOnUse" gradientTransform="translate(1260.71 546.124) rotate(85.3036) scale(19.2917)">
<stop stop-color="#6D6D6D" stop-opacity="0.6"/>
<stop offset="1" stop-color="#FAFAFA" stop-opacity="0"/>
</radialGradient>
<radialGradient id="paint38_radial_615_992" cx="0" cy="0" r="1" gradientUnits="userSpaceOnUse" gradientTransform="translate(1298.19 546.124) rotate(85.3036) scale(19.2917)">
<stop stop-color="#6D6D6D" stop-opacity="0.6"/>
<stop offset="1" stop-color="#FAFAFA" stop-opacity="0"/>
</radialGradient>
<radialGradient id="paint39_radial_615_992" cx="0" cy="0" r="1" gradientUnits="userSpaceOnUse" gradientTransform="translate(1335.69 546.124) rotate(85.3036) scale(19.2917)">
<stop stop-color="#6D6D6D" stop-opacity="0.6"/>
<stop offset="1" stop-color="#FAFAFA" stop-opacity="0"/>
</radialGradient>
<radialGradient id="paint40_radial_615_992" cx="0" cy="0" r="1" gradientUnits="userSpaceOnUse" gradientTransform="translate(1373.17 546.124) rotate(85.3036) scale(19.2917)">
<stop stop-color="#6D6D6D" stop-opacity="0.6"/>
<stop offset="1" stop-color="#FAFAFA" stop-opacity="0"/>
</radialGradient>
<radialGradient id="paint41_radial_615_992" cx="0" cy="0" r="1" gradientUnits="userSpaceOnUse" gradientTransform="translate(1410.66 546.124) rotate(85.3036) scale(19.2917)">
<stop stop-color="#6D6D6D" stop-opacity="0.6"/>
<stop offset="1" stop-color="#FAFAFA" stop-opacity="0"/>
</radialGradient>
<radialGradient id="paint42_radial_615_992" cx="0" cy="0" r="1" gradientUnits="userSpaceOnUse" gradientTransform="translate(1448.15 546.124) rotate(85.3036) scale(19.2917)">
<stop stop-color="#6D6D6D" stop-opacity="0.6"/>
<stop offset="1" stop-color="#FAFAFA" stop-opacity="0"/>
</radialGradient>
<radialGradient id="paint43_radial_615_992" cx="0" cy="0" r="1" gradientUnits="userSpaceOnUse" gradientTransform="translate(1185.73 622.787) rotate(85.3036) scale(19.2917)">
<stop stop-color="#6D6D6D" stop-opacity="0.6"/>
<stop offset="1" stop-color="#FAFAFA" stop-opacity="0"/>
</radialGradient>
<radialGradient id="paint44_radial_615_992" cx="0" cy="0" r="1" gradientUnits="userSpaceOnUse" gradientTransform="translate(1223.22 622.787) rotate(85.3036) scale(19.2917)">
<stop stop-color="#6D6D6D" stop-opacity="0.6"/>
<stop offset="1" stop-color="#FAFAFA" stop-opacity="0"/>
</radialGradient>
<radialGradient id="paint45_radial_615_992" cx="0" cy="0" r="1" gradientUnits="userSpaceOnUse" gradientTransform="translate(1260.71 622.787) rotate(85.3036) scale(19.2917)">
<stop stop-color="#6D6D6D" stop-opacity="0.6"/>
<stop offset="1" stop-color="#FAFAFA" stop-opacity="0"/>
</radialGradient>
<radialGradient id="paint46_radial_615_992" cx="0" cy="0" r="1" gradientUnits="userSpaceOnUse" gradientTransform="translate(1298.19 622.787) rotate(85.3036) scale(19.2917)">
<stop stop-color="#6D6D6D" stop-opacity="0.6"/>
<stop offset="1" stop-color="#FAFAFA" stop-opacity="0"/>
</radialGradient>
<radialGradient id="paint47_radial_615_992" cx="0" cy="0" r="1" gradientUnits="userSpaceOnUse" gradientTransform="translate(1335.69 622.787) rotate(85.3036) scale(19.2917)">
<stop stop-color="#6D6D6D" stop-opacity="0.6"/>
<stop offset="1" stop-color="#FAFAFA" stop-opacity="0"/>
</radialGradient>
<radialGradient id="paint48_radial_615_992" cx="0" cy="0" r="1" gradientUnits="userSpaceOnUse" gradientTransform="translate(1373.17 622.787) rotate(85.3036) scale(19.2917)">
<stop stop-color="#6D6D6D" stop-opacity="0.6"/>
<stop offset="1" stop-color="#FAFAFA" stop-opacity="0"/>
</radialGradient>
<radialGradient id="paint49_radial_615_992" cx="0" cy="0" r="1" gradientUnits="userSpaceOnUse" gradientTransform="translate(1410.66 622.787) rotate(85.3036) scale(19.2917)">
<stop stop-color="#6D6D6D" stop-opacity="0.6"/>
<stop offset="1" stop-color="#FAFAFA" stop-opacity="0"/>
</radialGradient>
<radialGradient id="paint50_radial_615_992" cx="0" cy="0" r="1" gradientUnits="userSpaceOnUse" gradientTransform="translate(1448.15 622.787) rotate(85.3036) scale(19.2917)">
<stop stop-color="#6D6D6D" stop-opacity="0.6"/>
<stop offset="1" stop-color="#FAFAFA" stop-opacity="0"/>
</radialGradient>
<radialGradient id="paint51_radial_615_992" cx="0" cy="0" r="1" gradientUnits="userSpaceOnUse" gradientTransform="translate(1185.73 699.451) rotate(85.3036) scale(19.2917)">
<stop stop-color="#6D6D6D" stop-opacity="0.6"/>
<stop offset="1" stop-color="#FAFAFA" stop-opacity="0"/>
</radialGradient>
<radialGradient id="paint52_radial_615_992" cx="0" cy="0" r="1" gradientUnits="userSpaceOnUse" gradientTransform="translate(1223.22 699.451) rotate(85.3036) scale(19.2917)">
<stop stop-color="#6D6D6D" stop-opacity="0.6"/>
<stop offset="1" stop-color="#FAFAFA" stop-opacity="0"/>
</radialGradient>
<radialGradient id="paint53_radial_615_992" cx="0" cy="0" r="1" gradientUnits="userSpaceOnUse" gradientTransform="translate(1260.71 699.451) rotate(85.3036) scale(19.2917)">
<stop stop-color="#6D6D6D" stop-opacity="0.6"/>
<stop offset="1" stop-color="#FAFAFA" stop-opacity="0"/>
</radialGradient>
<radialGradient id="paint54_radial_615_992" cx="0" cy="0" r="1" gradientUnits="userSpaceOnUse" gradientTransform="translate(1298.19 699.451) rotate(85.3036) scale(19.2917)">
<stop stop-color="#6D6D6D" stop-opacity="0.6"/>
<stop offset="1" stop-color="#FAFAFA" stop-opacity="0"/>
</radialGradient>
<radialGradient id="paint55_radial_615_992" cx="0" cy="0" r="1" gradientUnits="userSpaceOnUse" gradientTransform="translate(1335.69 699.451) rotate(85.3036) scale(19.2917)">
<stop stop-color="#6D6D6D" stop-opacity="0.6"/>
<stop offset="1" stop-color="#FAFAFA" stop-opacity="0"/>
</radialGradient>
<radialGradient id="paint56_radial_615_992" cx="0" cy="0" r="1" gradientUnits="userSpaceOnUse" gradientTransform="translate(1373.17 699.451) rotate(85.3036) scale(19.2917)">
<stop stop-color="#6D6D6D" stop-opacity="0.6"/>
<stop offset="1" stop-color="#FAFAFA" stop-opacity="0"/>
</radialGradient>
<radialGradient id="paint57_radial_615_992" cx="0" cy="0" r="1" gradientUnits="userSpaceOnUse" gradientTransform="translate(1410.66 699.451) rotate(85.3036) scale(19.2917)">
<stop stop-color="#6D6D6D" stop-opacity="0.6"/>
<stop offset="1" stop-color="#FAFAFA" stop-opacity="0"/>
</radialGradient>
<radialGradient id="paint58_radial_615_992" cx="0" cy="0" r="1" gradientUnits="userSpaceOnUse" gradientTransform="translate(1448.15 699.451) rotate(85.3036) scale(19.2917)">
<stop stop-color="#6D6D6D" stop-opacity="0.6"/>
<stop offset="1" stop-color="#FAFAFA" stop-opacity="0"/>
</radialGradient>
<radialGradient id="paint59_radial_615_992" cx="0" cy="0" r="1" gradientUnits="userSpaceOnUse" gradientTransform="translate(1185.73 584.455) rotate(85.3036) scale(19.2917)">
<stop stop-color="#6D6D6D" stop-opacity="0.6"/>
<stop offset="1" stop-color="#FAFAFA" stop-opacity="0"/>
</radialGradient>
<radialGradient id="paint60_radial_615_992" cx="0" cy="0" r="1" gradientUnits="userSpaceOnUse" gradientTransform="translate(1223.22 584.455) rotate(85.3036) scale(19.2917)">
<stop stop-color="#6D6D6D" stop-opacity="0.6"/>
<stop offset="1" stop-color="#FAFAFA" stop-opacity="0"/>
</radialGradient>
<radialGradient id="paint61_radial_615_992" cx="0" cy="0" r="1" gradientUnits="userSpaceOnUse" gradientTransform="translate(1260.71 584.455) rotate(85.3036) scale(19.2917)">
<stop stop-color="#6D6D6D" stop-opacity="0.6"/>
<stop offset="1" stop-color="#FAFAFA" stop-opacity="0"/>
</radialGradient>
<radialGradient id="paint62_radial_615_992" cx="0" cy="0" r="1" gradientUnits="userSpaceOnUse" gradientTransform="translate(1298.19 584.455) rotate(85.3036) scale(19.2917)">
<stop stop-color="#6D6D6D" stop-opacity="0.6"/>
<stop offset="1" stop-color="#FAFAFA" stop-opacity="0"/>
</radialGradient>
<radialGradient id="paint63_radial_615_992" cx="0" cy="0" r="1" gradientUnits="userSpaceOnUse" gradientTransform="translate(1335.69 584.455) rotate(85.3036) scale(19.2917)">
<stop stop-color="#6D6D6D" stop-opacity="0.6"/>
<stop offset="1" stop-color="#FAFAFA" stop-opacity="0"/>
</radialGradient>
<radialGradient id="paint64_radial_615_992" cx="0" cy="0" r="1" gradientUnits="userSpaceOnUse" gradientTransform="translate(1373.17 584.455) rotate(85.3036) scale(19.2917)">
<stop stop-color="#6D6D6D" stop-opacity="0.6"/>
<stop offset="1" stop-color="#FAFAFA" stop-opacity="0"/>
</radialGradient>
<radialGradient id="paint65_radial_615_992" cx="0" cy="0" r="1" gradientUnits="userSpaceOnUse" gradientTransform="translate(1410.66 584.455) rotate(85.3036) scale(19.2917)">
<stop stop-color="#6D6D6D" stop-opacity="0.6"/>
<stop offset="1" stop-color="#FAFAFA" stop-opacity="0"/>
</radialGradient>
<radialGradient id="paint66_radial_615_992" cx="0" cy="0" r="1" gradientUnits="userSpaceOnUse" gradientTransform="translate(1448.15 584.455) rotate(85.3036) scale(19.2917)">
<stop stop-color="#6D6D6D" stop-opacity="0.6"/>
<stop offset="1" stop-color="#FAFAFA" stop-opacity="0"/>
</radialGradient>
<radialGradient id="paint67_radial_615_992" cx="0" cy="0" r="1" gradientUnits="userSpaceOnUse" gradientTransform="translate(10.065 10.065) rotate(85.3036) scale(19.2917)">
<stop stop-color="#6D6D6D" stop-opacity="0.6"/>
<stop offset="1" stop-color="#FAFAFA" stop-opacity="0"/>
</radialGradient>
<radialGradient id="paint68_radial_615_992" cx="0" cy="0" r="1" gradientUnits="userSpaceOnUse" gradientTransform="translate(10.065 10.065) rotate(85.3036) scale(19.2917)">
<stop stop-color="#6D6D6D" stop-opacity="0.6"/>
<stop offset="1" stop-color="#FAFAFA" stop-opacity="0"/>
</radialGradient>
<radialGradient id="paint69_radial_615_992" cx="0" cy="0" r="1" gradientUnits="userSpaceOnUse" gradientTransform="translate(10.065 10.065) rotate(85.3036) scale(19.2917)">
<stop stop-color="#6D6D6D" stop-opacity="0.6"/>
<stop offset="1" stop-color="#FAFAFA" stop-opacity="0"/>
</radialGradient>
<radialGradient id="paint70_radial_615_992" cx="0" cy="0" r="1" gradientUnits="userSpaceOnUse" gradientTransform="translate(10.065 10.065) rotate(85.3036) scale(19.2917)">
<stop stop-color="#6D6D6D" stop-opacity="0.6"/>
<stop offset="1" stop-color="#FAFAFA" stop-opacity="0"/>
</radialGradient>
<radialGradient id="paint71_radial_615_992" cx="0" cy="0" r="1" gradientUnits="userSpaceOnUse" gradientTransform="translate(10.065 10.065) rotate(85.3036) scale(19.2917)">
<stop stop-color="#6D6D6D" stop-opacity="0.6"/>
<stop offset="1" stop-color="#FAFAFA" stop-opacity="0"/>
</radialGradient>
<radialGradient id="paint72_radial_615_992" cx="0" cy="0" r="1" gradientUnits="userSpaceOnUse" gradientTransform="translate(10.065 10.065) rotate(85.3036) scale(19.2917)">
<stop stop-color="#6D6D6D" stop-opacity="0.6"/>
<stop offset="1" stop-color="#FAFAFA" stop-opacity="0"/>
</radialGradient>
<radialGradient id="paint73_radial_615_992" cx="0" cy="0" r="1" gradientUnits="userSpaceOnUse" gradientTransform="translate(10.065 10.065) rotate(85.3036) scale(19.2917)">
<stop stop-color="#6D6D6D" stop-opacity="0.6"/>
<stop offset="1" stop-color="#FAFAFA" stop-opacity="0"/>
</radialGradient>
<radialGradient id="paint74_radial_615_992" cx="0" cy="0" r="1" gradientUnits="userSpaceOnUse" gradientTransform="translate(10.065 10.065) rotate(85.3036) scale(19.2917)">
<stop stop-color="#6D6D6D" stop-opacity="0.6"/>
<stop offset="1" stop-color="#FAFAFA" stop-opacity="0"/>
</radialGradient>
<radialGradient id="paint75_radial_615_992" cx="0" cy="0" r="1" gradientUnits="userSpaceOnUse" gradientTransform="translate(1185.73 737.783) rotate(85.3036) scale(19.2917)">
<stop stop-color="#6D6D6D" stop-opacity="0.6"/>
<stop offset="1" stop-color="#FAFAFA" stop-opacity="0"/>
</radialGradient>
<radialGradient id="paint76_radial_615_992" cx="0" cy="0" r="1" gradientUnits="userSpaceOnUse" gradientTransform="translate(1223.22 737.783) rotate(85.3036) scale(19.2917)">
<stop stop-color="#6D6D6D" stop-opacity="0.6"/>
<stop offset="1" stop-color="#FAFAFA" stop-opacity="0"/>
</radialGradient>
<radialGradient id="paint77_radial_615_992" cx="0" cy="0" r="1" gradientUnits="userSpaceOnUse" gradientTransform="translate(1260.71 737.783) rotate(85.3036) scale(19.2917)">
<stop stop-color="#6D6D6D" stop-opacity="0.6"/>
<stop offset="1" stop-color="#FAFAFA" stop-opacity="0"/>
</radialGradient>
<radialGradient id="paint78_radial_615_992" cx="0" cy="0" r="1" gradientUnits="userSpaceOnUse" gradientTransform="translate(1298.19 737.783) rotate(85.3036) scale(19.2917)">
<stop stop-color="#6D6D6D" stop-opacity="0.6"/>
<stop offset="1" stop-color="#FAFAFA" stop-opacity="0"/>
</radialGradient>
<radialGradient id="paint79_radial_615_992" cx="0" cy="0" r="1" gradientUnits="userSpaceOnUse" gradientTransform="translate(1335.69 737.783) rotate(85.3036) scale(19.2917)">
<stop stop-color="#6D6D6D" stop-opacity="0.6"/>
<stop offset="1" stop-color="#FAFAFA" stop-opacity="0"/>
</radialGradient>
<radialGradient id="paint80_radial_615_992" cx="0" cy="0" r="1" gradientUnits="userSpaceOnUse" gradientTransform="translate(1373.17 737.783) rotate(85.3036) scale(19.2917)">
<stop stop-color="#6D6D6D" stop-opacity="0.6"/>
<stop offset="1" stop-color="#FAFAFA" stop-opacity="0"/>
</radialGradient>
<radialGradient id="paint81_radial_615_992" cx="0" cy="0" r="1" gradientUnits="userSpaceOnUse" gradientTransform="translate(1410.66 737.783) rotate(85.3036) scale(19.2917)">
<stop stop-color="#6D6D6D" stop-opacity="0.6"/>
<stop offset="1" stop-color="#FAFAFA" stop-opacity="0"/>
</radialGradient>
<radialGradient id="paint82_radial_615_992" cx="0" cy="0" r="1" gradientUnits="userSpaceOnUse" gradientTransform="translate(1448.15 737.783) rotate(85.3036) scale(19.2917)">
<stop stop-color="#6D6D6D" stop-opacity="0.6"/>
<stop offset="1" stop-color="#FAFAFA" stop-opacity="0"/>
</radialGradient>
</defs>
</svg>
