            <svg width="406" height="15" viewBox="0 0 406 15" fill="none" xmlns="http://www.w3.org/2000/svg">
                <path d="M3.03835 6.63636C3.03835 6.17898 3.15057 5.76136 3.375 5.38352C3.59943 5.00568 3.89915 4.70597 4.27415 4.48438C4.65199 4.25994 5.0696 4.14773 5.52699 4.14773C5.92472 4.14773 6.29261 4.23437 6.63068 4.40767C6.96875 4.57812 7.24858 4.8125 7.47017 5.1108C7.69176 5.40909 7.8267 5.74432 7.875 6.11648H6.76705C6.71591 5.85227 6.57102 5.63636 6.33239 5.46875C6.09659 5.2983 5.82813 5.21307 5.52699 5.21307C5.26563 5.21307 5.02699 5.27699 4.81108 5.40483C4.59517 5.53267 4.4233 5.70455 4.29545 5.92045C4.16761 6.13352 4.10369 6.37216 4.10369 6.63636C4.10369 6.89773 4.16761 7.13636 4.29545 7.35227C4.4233 7.56818 4.59517 7.74006 4.81108 7.8679C5.02699 7.99574 5.26563 8.05966 5.52699 8.05966C5.82813 8.05966 6.08523 7.97585 6.2983 7.80824C6.51136 7.63778 6.64489 7.42045 6.69886 7.15625H7.80682C7.75852 7.52841 7.62926 7.86364 7.41903 8.16193C7.20881 8.46023 6.94034 8.69602 6.61364 8.86932C6.28693 9.03977 5.92472 9.125 5.52699 9.125C5.0696 9.125 4.65199 9.0142 4.27415 8.79261C3.89915 8.56818 3.59943 8.26705 3.375 7.8892C3.15057 7.51136 3.03835 7.09375 3.03835 6.63636ZM5.48864 11.1364C4.86932 11.1364 4.28693 11.0199 3.74148 10.7869C3.19886 10.554 2.72017 10.2315 2.3054 9.8196C1.89347 9.40483 1.5696 8.92614 1.33381 8.38352C1.10085 7.84091 0.985795 7.25852 0.988636 6.63636C0.991477 6.0142 1.10938 5.43182 1.34233 4.8892C1.57813 4.34659 1.90199 3.86932 2.31392 3.45739C2.72585 3.04261 3.20313 2.71875 3.74574 2.4858C4.28835 2.25284 4.86932 2.13636 5.48864 2.13636C6.1108 2.13636 6.69318 2.25284 7.2358 2.4858C7.78125 2.71875 8.25852 3.04261 8.66761 3.45739C9.07955 3.86932 9.40199 4.34659 9.63494 4.8892C9.8679 5.43182 9.9858 6.0142 9.98864 6.63636C9.99148 7.25852 9.87642 7.84091 9.64347 8.38352C9.41051 8.92614 9.08807 9.40483 8.67614 9.8196C8.2642 10.2315 7.78551 10.554 7.24006 10.7869C6.6946 11.0199 6.1108 11.1364 5.48864 11.1364ZM5.48864 10.0028C5.95455 10.0028 6.39205 9.91619 6.80114 9.7429C7.21023 9.5696 7.56818 9.32955 7.875 9.02273C8.18466 8.71307 8.42614 8.35511 8.59943 7.94886C8.77273 7.53977 8.85795 7.10369 8.85511 6.64062C8.85511 6.17472 8.76705 5.73722 8.59091 5.32812C8.41761 4.91903 8.17614 4.56108 7.86648 4.25426C7.55966 3.9446 7.20312 3.70312 6.79688 3.52983C6.39062 3.35653 5.95455 3.26989 5.48864 3.26989C5.02557 3.26989 4.59091 3.35653 4.18466 3.52983C3.77841 3.70312 3.42045 3.9446 3.1108 4.25426C2.80398 4.56392 2.5625 4.9233 2.38636 5.33239C2.21023 5.73864 2.12216 6.17472 2.12216 6.64062C2.11932 7.10085 2.20455 7.53551 2.37784 7.9446C2.55398 8.35085 2.79545 8.70881 3.10227 9.01847C3.41193 9.32528 3.76989 9.56676 4.17614 9.7429C4.58523 9.91619 5.02273 10.0028 5.48864 10.0028ZM14.6847 3.40625V2.27273H21.4389V3.40625H18.7159V11H17.4034V3.40625H14.6847ZM22.8292 11V4.45455H24.1033V11H22.8292ZM23.4727 3.4446C23.2511 3.4446 23.0607 3.37074 22.9016 3.22301C22.7454 3.07244 22.6673 2.89347 22.6673 2.68608C22.6673 2.47585 22.7454 2.29687 22.9016 2.14915C23.0607 1.99858 23.2511 1.9233 23.4727 1.9233C23.6942 1.9233 23.8832 1.99858 24.0394 2.14915C24.1985 2.29687 24.2781 2.47585 24.2781 2.68608C24.2781 2.89347 24.1985 3.07244 24.0394 3.22301C23.8832 3.37074 23.6942 3.4446 23.4727 3.4446ZM27.0916 7.11364V11H25.8175V4.45455H27.0405V5.51989H27.1214C27.272 5.1733 27.5078 4.89489 27.8288 4.68466C28.1527 4.47443 28.5604 4.36932 29.0518 4.36932C29.4979 4.36932 29.8885 4.46307 30.2237 4.65057C30.5589 4.83523 30.8189 5.1108 31.0036 5.47727C31.1882 5.84375 31.2805 6.29687 31.2805 6.83665V11H30.0064V6.99006C30.0064 6.51562 29.8828 6.14489 29.6357 5.87784C29.3885 5.60795 29.049 5.47301 28.6172 5.47301C28.3217 5.47301 28.0589 5.53693 27.8288 5.66477C27.6016 5.79261 27.4212 5.98011 27.2876 6.22727C27.157 6.47159 27.0916 6.76705 27.0916 7.11364ZM38.3544 4.45455L35.9808 11H34.6172L32.2393 4.45455H33.6072L35.2649 9.49148H35.3331L36.9865 4.45455H38.3544ZM39.5518 11V4.45455H40.826V11H39.5518ZM40.1953 3.4446C39.9737 3.4446 39.7834 3.37074 39.6243 3.22301C39.468 3.07244 39.3899 2.89347 39.3899 2.68608C39.3899 2.47585 39.468 2.29687 39.6243 2.14915C39.7834 1.99858 39.9737 1.9233 40.1953 1.9233C40.4169 1.9233 40.6058 1.99858 40.7621 2.14915C40.9212 2.29687 41.0007 2.47585 41.0007 2.68608C41.0007 2.89347 40.9212 3.07244 40.7621 3.22301C40.6058 3.37074 40.4169 3.4446 40.1953 3.4446ZM45.2972 11.1321C44.6836 11.1321 44.1481 10.9915 43.6907 10.7102C43.2333 10.429 42.8782 10.0355 42.6254 9.52983C42.3725 9.02415 42.2461 8.43324 42.2461 7.7571C42.2461 7.07812 42.3725 6.48437 42.6254 5.97585C42.8782 5.46733 43.2333 5.07244 43.6907 4.79119C44.1481 4.50994 44.6836 4.36932 45.2972 4.36932C45.9109 4.36932 46.4464 4.50994 46.9038 4.79119C47.3612 5.07244 47.7163 5.46733 47.9691 5.97585C48.2219 6.48437 48.3484 7.07812 48.3484 7.7571C48.3484 8.43324 48.2219 9.02415 47.9691 9.52983C47.7163 10.0355 47.3612 10.429 46.9038 10.7102C46.4464 10.9915 45.9109 11.1321 45.2972 11.1321ZM45.3015 10.0625C45.6992 10.0625 46.0288 9.95739 46.2901 9.74716C46.5515 9.53693 46.7447 9.2571 46.8697 8.90767C46.9975 8.55824 47.0614 8.1733 47.0614 7.75284C47.0614 7.33523 46.9975 6.9517 46.8697 6.60227C46.7447 6.25 46.5515 5.96733 46.2901 5.75426C46.0288 5.54119 45.6992 5.43466 45.3015 5.43466C44.9009 5.43466 44.5685 5.54119 44.3043 5.75426C44.043 5.96733 43.8484 6.25 43.7205 6.60227C43.5955 6.9517 43.533 7.33523 43.533 7.75284C43.533 8.1733 43.5955 8.55824 43.7205 8.90767C43.8484 9.2571 44.043 9.53693 44.3043 9.74716C44.5685 9.95739 44.9009 10.0625 45.3015 10.0625ZM53.5579 5.40909L52.2113 2.27273H52.8207L53.7283 4.49716L54.6317 2.27273H55.2411L53.8988 5.40909H53.5579ZM52.0621 5.40909V2.27273H52.6886V5.40909H52.0621ZM54.7638 5.40909V2.27273H55.3903V5.40909H54.7638ZM49.9357 5.40909V2.54545H50.5621V5.40909H49.9357ZM48.9812 2.80966V2.27273H51.5167V2.80966H48.9812ZM59.9489 11V10.0455L62.902 6.9858C63.2173 6.65341 63.4773 6.36222 63.6818 6.11222C63.8892 5.85937 64.044 5.61932 64.1463 5.39205C64.2486 5.16477 64.2997 4.9233 64.2997 4.66761C64.2997 4.37784 64.2315 4.12784 64.0952 3.91761C63.9588 3.70455 63.7727 3.54119 63.5369 3.42756C63.3011 3.31108 63.0355 3.25284 62.7401 3.25284C62.4276 3.25284 62.1548 3.31676 61.9219 3.4446C61.6889 3.57244 61.5099 3.75284 61.3849 3.9858C61.2599 4.21875 61.1974 4.49148 61.1974 4.80398H59.9403C59.9403 4.27273 60.0625 3.80824 60.3068 3.41051C60.5511 3.01278 60.8864 2.70455 61.3125 2.4858C61.7386 2.2642 62.223 2.15341 62.7656 2.15341C63.3139 2.15341 63.7969 2.26278 64.2145 2.48153C64.6349 2.69744 64.9631 2.9929 65.1989 3.3679C65.4347 3.74006 65.5526 4.16051 65.5526 4.62926C65.5526 4.95312 65.4915 5.26989 65.3693 5.57955C65.25 5.8892 65.0412 6.23437 64.7429 6.61506C64.4446 6.9929 64.0298 7.4517 63.4986 7.99148L61.7642 9.80682V9.87074H65.6932V11H59.9489ZM70.3466 11.1449C69.6733 11.142 69.098 10.9645 68.6207 10.6122C68.1435 10.2599 67.7784 9.74716 67.5256 9.07386C67.2727 8.40057 67.1463 7.58949 67.1463 6.64062C67.1463 5.6946 67.2727 4.88636 67.5256 4.21591C67.7813 3.54545 68.1477 3.03409 68.625 2.68182C69.1051 2.32955 69.679 2.15341 70.3466 2.15341C71.0142 2.15341 71.5866 2.33097 72.0639 2.68608C72.5412 3.03835 72.9063 3.54972 73.1591 4.22017C73.4148 4.88778 73.5426 5.6946 73.5426 6.64062C73.5426 7.59233 73.4162 8.40483 73.1634 9.07812C72.9105 9.74858 72.5455 10.2614 72.0682 10.6165C71.5909 10.9688 71.017 11.1449 70.3466 11.1449ZM70.3466 10.0071C70.9375 10.0071 71.3991 9.71875 71.7315 9.14205C72.0668 8.56534 72.2344 7.73153 72.2344 6.64062C72.2344 5.91619 72.1577 5.30398 72.0043 4.80398C71.8537 4.30114 71.6364 3.92045 71.3523 3.66193C71.071 3.40057 70.7358 3.26989 70.3466 3.26989C69.7585 3.26989 69.2969 3.55966 68.9616 4.1392C68.6264 4.71875 68.4574 5.55256 68.4545 6.64062C68.4545 7.3679 68.5298 7.98295 68.6804 8.4858C68.8338 8.9858 69.0511 9.36506 69.3324 9.62358C69.6136 9.87926 69.9517 10.0071 70.3466 10.0071ZM75.0543 11V10.0455L78.0075 6.9858C78.3228 6.65341 78.5827 6.36222 78.7873 6.11222C78.9947 5.85937 79.1495 5.61932 79.2518 5.39205C79.354 5.16477 79.4052 4.9233 79.4052 4.66761C79.4052 4.37784 79.337 4.12784 79.2006 3.91761C79.0643 3.70455 78.8782 3.54119 78.6424 3.42756C78.4066 3.31108 78.141 3.25284 77.8455 3.25284C77.533 3.25284 77.2603 3.31676 77.0273 3.4446C76.7944 3.57244 76.6154 3.75284 76.4904 3.9858C76.3654 4.21875 76.3029 4.49148 76.3029 4.80398H75.0458C75.0458 4.27273 75.168 3.80824 75.4123 3.41051C75.6566 3.01278 75.9918 2.70455 76.418 2.4858C76.8441 2.2642 77.3285 2.15341 77.8711 2.15341C78.4194 2.15341 78.9023 2.26278 79.32 2.48153C79.7404 2.69744 80.0685 2.9929 80.3043 3.3679C80.5401 3.74006 80.658 4.16051 80.658 4.62926C80.658 4.95312 80.5969 5.26989 80.4748 5.57955C80.3555 5.8892 80.1467 6.23437 79.8484 6.61506C79.5501 6.9929 79.1353 7.4517 78.604 7.99148L76.8697 9.80682V9.87074H80.7987V11H75.0543ZM85.4521 11.1449C84.7788 11.142 84.2035 10.9645 83.7262 10.6122C83.2489 10.2599 82.8839 9.74716 82.631 9.07386C82.3782 8.40057 82.2518 7.58949 82.2518 6.64062C82.2518 5.6946 82.3782 4.88636 82.631 4.21591C82.8867 3.54545 83.2532 3.03409 83.7305 2.68182C84.2106 2.32955 84.7844 2.15341 85.4521 2.15341C86.1197 2.15341 86.6921 2.33097 87.1694 2.68608C87.6467 3.03835 88.0117 3.54972 88.2646 4.22017C88.5202 4.88778 88.6481 5.6946 88.6481 6.64062C88.6481 7.59233 88.5217 8.40483 88.2688 9.07812C88.016 9.74858 87.6509 10.2614 87.1737 10.6165C86.6964 10.9688 86.1225 11.1449 85.4521 11.1449ZM85.4521 10.0071C86.043 10.0071 86.5046 9.71875 86.837 9.14205C87.1722 8.56534 87.3398 7.73153 87.3398 6.64062C87.3398 5.91619 87.2631 5.30398 87.1097 4.80398C86.9592 4.30114 86.7418 3.92045 86.4577 3.66193C86.1765 3.40057 85.8413 3.26989 85.4521 3.26989C84.864 3.26989 84.4023 3.55966 84.0671 4.1392C83.7319 4.71875 83.5629 5.55256 83.56 6.64062C83.56 7.3679 83.6353 7.98295 83.7859 8.4858C83.9393 8.9858 84.1566 9.36506 84.4379 9.62358C84.7191 9.87926 85.0572 10.0071 85.4521 10.0071ZM90.6999 11.081C90.467 11.081 90.2667 10.9986 90.0991 10.8338C89.9315 10.6662 89.8477 10.4645 89.8477 10.2287C89.8477 9.99574 89.9315 9.79687 90.0991 9.6321C90.2667 9.46449 90.467 9.38068 90.6999 9.38068C90.9329 9.38068 91.1332 9.46449 91.3008 9.6321C91.4684 9.79687 91.5522 9.99574 91.5522 10.2287C91.5522 10.3849 91.5124 10.5284 91.4329 10.6591C91.3562 10.7869 91.2539 10.8892 91.1261 10.9659C90.9982 11.0426 90.8562 11.081 90.6999 11.081ZM97.1335 11H95.7358L98.8764 2.27273H100.398L103.538 11H102.141L99.6733 3.85795H99.6051L97.1335 11ZM97.3679 7.58239H101.902V8.69034H97.3679V7.58239ZM105.971 2.27273V11H104.696V2.27273H105.971ZM108.959 2.27273V11H107.685V2.27273H108.959ZM113.951 11V2.27273H117.062C117.738 2.27273 118.299 2.3892 118.745 2.62216C119.194 2.85511 119.529 3.17756 119.751 3.58949C119.972 3.99858 120.083 4.47159 120.083 5.00852C120.083 5.54261 119.971 6.01278 119.746 6.41903C119.525 6.82244 119.19 7.13636 118.741 7.3608C118.295 7.58523 117.734 7.69744 117.058 7.69744H114.701V6.56392H116.938C117.364 6.56392 117.711 6.50284 117.978 6.38068C118.248 6.25852 118.445 6.08097 118.57 5.84801C118.695 5.61506 118.758 5.33523 118.758 5.00852C118.758 4.67898 118.694 4.39347 118.566 4.15199C118.441 3.91051 118.244 3.72585 117.974 3.59801C117.707 3.46733 117.356 3.40199 116.921 3.40199H115.268V11H113.951ZM118.259 7.0625L120.415 11H118.915L116.802 7.0625H118.259ZM121.583 11V4.45455H122.857V11H121.583ZM122.227 3.4446C122.005 3.4446 121.815 3.37074 121.656 3.22301C121.499 3.07244 121.421 2.89347 121.421 2.68608C121.421 2.47585 121.499 2.29687 121.656 2.14915C121.815 1.99858 122.005 1.9233 122.227 1.9233C122.448 1.9233 122.637 1.99858 122.793 2.14915C122.952 2.29687 123.032 2.47585 123.032 2.68608C123.032 2.89347 122.952 3.07244 122.793 3.22301C122.637 3.37074 122.448 3.4446 122.227 3.4446ZM127.316 13.5909C126.796 13.5909 126.348 13.5227 125.973 13.3864C125.601 13.25 125.297 13.0696 125.061 12.8452C124.826 12.6207 124.65 12.375 124.533 12.108L125.628 11.6562C125.705 11.7812 125.807 11.9134 125.935 12.0526C126.066 12.1946 126.242 12.3153 126.463 12.4148C126.688 12.5142 126.976 12.5639 127.328 12.5639C127.811 12.5639 128.211 12.446 128.526 12.2102C128.841 11.9773 128.999 11.6051 128.999 11.0938V9.80682H128.918C128.841 9.94602 128.73 10.1009 128.586 10.2713C128.444 10.4418 128.248 10.5895 127.998 10.7145C127.748 10.8395 127.422 10.902 127.022 10.902C126.505 10.902 126.039 10.7812 125.624 10.5398C125.212 10.2955 124.885 9.93608 124.644 9.46165C124.405 8.98437 124.286 8.39773 124.286 7.7017C124.286 7.00568 124.404 6.40909 124.64 5.91193C124.878 5.41477 125.205 5.03409 125.62 4.76989C126.034 4.50284 126.505 4.36932 127.03 4.36932C127.436 4.36932 127.765 4.4375 128.015 4.57386C128.265 4.70739 128.459 4.86364 128.598 5.04261C128.74 5.22159 128.85 5.37926 128.926 5.51562H129.02V4.45455H130.269V11.1449C130.269 11.7074 130.138 12.169 129.877 12.5298C129.615 12.8906 129.262 13.1577 128.816 13.331C128.373 13.5043 127.873 13.5909 127.316 13.5909ZM127.303 9.84517C127.669 9.84517 127.979 9.75994 128.232 9.58949C128.488 9.41619 128.681 9.16903 128.811 8.84801C128.945 8.52415 129.012 8.13636 129.012 7.68466C129.012 7.24432 128.946 6.85653 128.816 6.52131C128.685 6.18608 128.493 5.92472 128.24 5.73722C127.988 5.54687 127.675 5.4517 127.303 5.4517C126.919 5.4517 126.6 5.55114 126.344 5.75C126.088 5.94602 125.895 6.21307 125.765 6.55114C125.637 6.8892 125.573 7.26705 125.573 7.68466C125.573 8.11364 125.638 8.49006 125.769 8.81392C125.9 9.13778 126.093 9.39062 126.348 9.57244C126.607 9.75426 126.925 9.84517 127.303 9.84517ZM133.252 7.11364V11H131.978V2.27273H133.235V5.51989H133.316C133.469 5.16761 133.703 4.88778 134.019 4.6804C134.334 4.47301 134.746 4.36932 135.255 4.36932C135.703 4.36932 136.096 4.46165 136.431 4.64631C136.769 4.83097 137.03 5.10653 137.215 5.47301C137.402 5.83665 137.496 6.29119 137.496 6.83665V11H136.222V6.99006C136.222 6.50994 136.098 6.13778 135.851 5.87358C135.604 5.60653 135.26 5.47301 134.82 5.47301C134.519 5.47301 134.249 5.53693 134.01 5.66477C133.775 5.79261 133.588 5.98011 133.452 6.22727C133.319 6.47159 133.252 6.76705 133.252 7.11364ZM142.252 4.45455V5.47727H138.676V4.45455H142.252ZM139.635 2.88636H140.909V9.07812C140.909 9.32528 140.946 9.51136 141.02 9.63636C141.094 9.75852 141.189 9.84233 141.306 9.88778C141.425 9.9304 141.554 9.9517 141.694 9.9517C141.796 9.9517 141.885 9.9446 141.962 9.9304C142.039 9.91619 142.098 9.90483 142.141 9.89631L142.371 10.9489C142.297 10.9773 142.192 11.0057 142.056 11.0341C141.919 11.0653 141.749 11.0824 141.544 11.0852C141.209 11.0909 140.897 11.0312 140.607 10.9062C140.317 10.7812 140.083 10.5881 139.904 10.3267C139.725 10.0653 139.635 9.73722 139.635 9.34233V2.88636ZM148.461 6.05256L147.306 6.2571C147.257 6.10937 147.181 5.96875 147.076 5.83523C146.973 5.7017 146.834 5.59233 146.658 5.5071C146.482 5.42187 146.262 5.37926 145.998 5.37926C145.637 5.37926 145.336 5.46023 145.094 5.62216C144.853 5.78125 144.732 5.98722 144.732 6.24006C144.732 6.45881 144.813 6.63494 144.975 6.76847C145.137 6.90199 145.398 7.01136 145.759 7.09659L146.799 7.33523C147.401 7.47443 147.85 7.68892 148.145 7.97869C148.441 8.26847 148.588 8.64489 148.588 9.10795C148.588 9.5 148.475 9.84943 148.248 10.1562C148.023 10.4602 147.709 10.6989 147.306 10.8722C146.905 11.0455 146.441 11.1321 145.912 11.1321C145.179 11.1321 144.581 10.9759 144.118 10.6634C143.655 10.348 143.371 9.90057 143.266 9.32102L144.498 9.13352C144.574 9.45455 144.732 9.69744 144.971 9.86222C145.209 10.0241 145.52 10.1051 145.904 10.1051C146.321 10.1051 146.655 10.0185 146.905 9.84517C147.155 9.66903 147.28 9.45455 147.28 9.2017C147.28 8.99716 147.203 8.82528 147.05 8.68608C146.9 8.54687 146.668 8.44176 146.355 8.37074L145.248 8.12784C144.637 7.98864 144.185 7.76705 143.892 7.46307C143.603 7.15909 143.458 6.77415 143.458 6.30824C143.458 5.92187 143.566 5.58381 143.782 5.29403C143.998 5.00426 144.296 4.77841 144.676 4.61648C145.057 4.4517 145.493 4.36932 145.985 4.36932C146.692 4.36932 147.249 4.52273 147.655 4.82955C148.061 5.13352 148.33 5.54119 148.461 6.05256ZM153.267 11V2.27273H156.378C157.054 2.27273 157.615 2.3892 158.061 2.62216C158.51 2.85511 158.846 3.17756 159.067 3.58949C159.289 3.99858 159.4 4.47159 159.4 5.00852C159.4 5.54261 159.287 6.01278 159.063 6.41903C158.841 6.82244 158.506 7.13636 158.057 7.3608C157.611 7.58523 157.05 7.69744 156.374 7.69744H154.017V6.56392H156.255C156.681 6.56392 157.027 6.50284 157.294 6.38068C157.564 6.25852 157.762 6.08097 157.887 5.84801C158.012 5.61506 158.074 5.33523 158.074 5.00852C158.074 4.67898 158.01 4.39347 157.882 4.15199C157.757 3.91051 157.56 3.72585 157.29 3.59801C157.023 3.46733 156.672 3.40199 156.238 3.40199H154.584V11H153.267ZM157.576 7.0625L159.732 11H158.232L156.118 7.0625H157.576ZM163.638 11.1321C162.994 11.1321 162.438 10.9943 161.972 10.7188C161.509 10.4403 161.151 10.0497 160.898 9.54688C160.648 9.04119 160.523 8.44886 160.523 7.76989C160.523 7.09943 160.648 6.50852 160.898 5.99716C161.151 5.4858 161.504 5.08665 161.955 4.79972C162.41 4.51278 162.941 4.36932 163.549 4.36932C163.918 4.36932 164.276 4.4304 164.623 4.55256C164.969 4.67472 165.281 4.86648 165.556 5.12784C165.832 5.3892 166.049 5.72869 166.208 6.14631C166.367 6.56108 166.447 7.06534 166.447 7.65909V8.1108H161.244V7.15625H165.198C165.198 6.82102 165.13 6.52415 164.994 6.26562C164.857 6.00426 164.665 5.7983 164.418 5.64773C164.174 5.49716 163.887 5.42188 163.558 5.42188C163.2 5.42188 162.887 5.50994 162.62 5.68608C162.356 5.85937 162.151 6.08665 162.006 6.3679C161.864 6.64631 161.793 6.94886 161.793 7.27557V8.02131C161.793 8.45881 161.87 8.83097 162.023 9.13778C162.18 9.4446 162.397 9.67898 162.675 9.84091C162.954 10 163.279 10.0795 163.651 10.0795C163.893 10.0795 164.113 10.0455 164.312 9.97727C164.511 9.90625 164.683 9.80114 164.827 9.66193C164.972 9.52273 165.083 9.35085 165.16 9.14631L166.366 9.36364C166.269 9.71875 166.096 10.0298 165.846 10.2969C165.599 10.5611 165.288 10.767 164.913 10.9148C164.54 11.0597 164.116 11.1321 163.638 11.1321ZM172.765 6.05256L171.61 6.2571C171.562 6.10937 171.485 5.96875 171.38 5.83523C171.278 5.7017 171.139 5.59233 170.963 5.5071C170.787 5.42187 170.566 5.37926 170.302 5.37926C169.941 5.37926 169.64 5.46023 169.399 5.62216C169.157 5.78125 169.037 5.98722 169.037 6.24006C169.037 6.45881 169.118 6.63494 169.279 6.76847C169.441 6.90199 169.703 7.01136 170.064 7.09659L171.103 7.33523C171.706 7.47443 172.154 7.68892 172.45 7.97869C172.745 8.26847 172.893 8.64489 172.893 9.10795C172.893 9.5 172.779 9.84943 172.552 10.1562C172.328 10.4602 172.014 10.6989 171.61 10.8722C171.21 11.0455 170.745 11.1321 170.217 11.1321C169.484 11.1321 168.886 10.9759 168.423 10.6634C167.96 10.348 167.676 9.90057 167.571 9.32102L168.802 9.13352C168.879 9.45455 169.037 9.69744 169.275 9.86222C169.514 10.0241 169.825 10.1051 170.208 10.1051C170.626 10.1051 170.96 10.0185 171.21 9.84517C171.46 9.66903 171.585 9.45455 171.585 9.2017C171.585 8.99716 171.508 8.82528 171.355 8.68608C171.204 8.54687 170.973 8.44176 170.66 8.37074L169.552 8.12784C168.941 7.98864 168.49 7.76705 168.197 7.46307C167.907 7.15909 167.762 6.77415 167.762 6.30824C167.762 5.92187 167.87 5.58381 168.086 5.29403C168.302 5.00426 168.6 4.77841 168.981 4.61648C169.362 4.4517 169.798 4.36932 170.289 4.36932C170.997 4.36932 171.554 4.52273 171.96 4.82955C172.366 5.13352 172.635 5.54119 172.765 6.05256ZM177.115 11.1321C176.47 11.1321 175.915 10.9943 175.449 10.7188C174.986 10.4403 174.628 10.0497 174.375 9.54688C174.125 9.04119 174 8.44886 174 7.76989C174 7.09943 174.125 6.50852 174.375 5.99716C174.628 5.4858 174.98 5.08665 175.432 4.79972C175.886 4.51278 176.418 4.36932 177.026 4.36932C177.395 4.36932 177.753 4.4304 178.099 4.55256C178.446 4.67472 178.757 4.86648 179.033 5.12784C179.308 5.3892 179.526 5.72869 179.685 6.14631C179.844 6.56108 179.923 7.06534 179.923 7.65909V8.1108H174.72V7.15625H178.675C178.675 6.82102 178.607 6.52415 178.47 6.26562C178.334 6.00426 178.142 5.7983 177.895 5.64773C177.651 5.49716 177.364 5.42188 177.034 5.42188C176.676 5.42188 176.364 5.50994 176.097 5.68608C175.832 5.85937 175.628 6.08665 175.483 6.3679C175.341 6.64631 175.27 6.94886 175.27 7.27557V8.02131C175.27 8.45881 175.347 8.83097 175.5 9.13778C175.656 9.4446 175.874 9.67898 176.152 9.84091C176.43 10 176.756 10.0795 177.128 10.0795C177.369 10.0795 177.589 10.0455 177.788 9.97727C177.987 9.90625 178.159 9.80114 178.304 9.66193C178.449 9.52273 178.56 9.35085 178.636 9.14631L179.842 9.36364C179.746 9.71875 179.572 10.0298 179.322 10.2969C179.075 10.5611 178.764 10.767 178.389 10.9148C178.017 11.0597 177.592 11.1321 177.115 11.1321ZM181.337 11V4.45455H182.569V5.49432H182.637C182.756 5.14205 182.966 4.86506 183.267 4.66335C183.571 4.45881 183.915 4.35653 184.299 4.35653C184.378 4.35653 184.472 4.35937 184.58 4.36506C184.691 4.37074 184.777 4.37784 184.84 4.38636V5.60511C184.789 5.59091 184.698 5.57528 184.567 5.55824C184.436 5.53835 184.306 5.52841 184.175 5.52841C183.874 5.52841 183.605 5.59233 183.37 5.72017C183.137 5.84517 182.952 6.01989 182.816 6.24432C182.679 6.46591 182.611 6.71875 182.611 7.00284V11H181.337ZM191.741 4.45455L189.368 11H188.004L185.626 4.45455H186.994L188.652 9.49148H188.72L190.373 4.45455H191.741ZM195.537 11.1321C194.892 11.1321 194.337 10.9943 193.871 10.7188C193.408 10.4403 193.05 10.0497 192.797 9.54688C192.547 9.04119 192.422 8.44886 192.422 7.76989C192.422 7.09943 192.547 6.50852 192.797 5.99716C193.05 5.4858 193.402 5.08665 193.854 4.79972C194.308 4.51278 194.839 4.36932 195.447 4.36932C195.817 4.36932 196.175 4.4304 196.521 4.55256C196.868 4.67472 197.179 4.86648 197.455 5.12784C197.73 5.3892 197.947 5.72869 198.107 6.14631C198.266 6.56108 198.345 7.06534 198.345 7.65909V8.1108H193.142V7.15625H197.097C197.097 6.82102 197.028 6.52415 196.892 6.26562C196.756 6.00426 196.564 5.7983 196.317 5.64773C196.072 5.49716 195.786 5.42188 195.456 5.42188C195.098 5.42188 194.786 5.50994 194.518 5.68608C194.254 5.85937 194.05 6.08665 193.905 6.3679C193.763 6.64631 193.692 6.94886 193.692 7.27557V8.02131C193.692 8.45881 193.768 8.83097 193.922 9.13778C194.078 9.4446 194.295 9.67898 194.574 9.84091C194.852 10 195.178 10.0795 195.55 10.0795C195.791 10.0795 196.011 10.0455 196.21 9.97727C196.409 9.90625 196.581 9.80114 196.726 9.66193C196.871 9.52273 196.982 9.35085 197.058 9.14631L198.264 9.36364C198.168 9.71875 197.994 10.0298 197.744 10.2969C197.497 10.5611 197.186 10.767 196.811 10.9148C196.439 11.0597 196.014 11.1321 195.537 11.1321ZM202.209 11.1278C201.681 11.1278 201.209 10.9929 200.794 10.723C200.382 10.4503 200.059 10.0625 199.823 9.55966C199.59 9.05398 199.473 8.44744 199.473 7.74006C199.473 7.03267 199.591 6.42756 199.827 5.92472C200.066 5.42187 200.392 5.03693 200.807 4.76989C201.222 4.50284 201.692 4.36932 202.218 4.36932C202.624 4.36932 202.951 4.4375 203.198 4.57386C203.448 4.70739 203.641 4.86364 203.777 5.04261C203.917 5.22159 204.025 5.37926 204.101 5.51562H204.178V2.27273H205.452V11H204.208V9.98153H204.101C204.025 10.1207 203.914 10.2798 203.769 10.4588C203.627 10.6378 203.431 10.794 203.181 10.9276C202.931 11.0611 202.607 11.1278 202.209 11.1278ZM202.49 10.0412C202.857 10.0412 203.167 9.9446 203.419 9.75142C203.675 9.5554 203.868 9.28409 203.999 8.9375C204.132 8.59091 204.199 8.1875 204.199 7.72727C204.199 7.27273 204.134 6.875 204.003 6.53409C203.873 6.19318 203.681 5.92756 203.428 5.73722C203.175 5.54687 202.863 5.4517 202.49 5.4517C202.107 5.4517 201.787 5.55114 201.532 5.75C201.276 5.94886 201.083 6.22017 200.952 6.56392C200.824 6.90767 200.76 7.29545 200.76 7.72727C200.76 8.16477 200.826 8.55824 200.956 8.90767C201.087 9.2571 201.28 9.53409 201.536 9.73864C201.794 9.94034 202.113 10.0412 202.49 10.0412Z" fill="#BDBDBD"/>
                <rect x="215" width="1" height="14" fill="#C4C4C4"/>
                <rect x="307" width="1" height="14" fill="#C4C4C4"/>
                </svg>