<svg width="371" height="40" viewBox="0 0 371 40" fill="none" xmlns="http://www.w3.org/2000/svg">
<path opacity="0.88" d="M29.6921 4C29.6921 4 29.6921 4 29.6921 4H2.30786C1.0332 4 0 5.0332 0 6.30786V33.6921C0 34.9668 1.0332 36 2.30786 36H29.6921C30.9668 36 32 34.9668 32 33.6921V6.30786C32 5.0332 30.9668 4 29.6921 4C29.6921 4 29.6921 4 29.6921 4ZM11.3506 26.2391C11.3506 27.3152 10.4783 28.1875 9.40222 28.1875C8.32617 28.1875 7.45386 27.3152 7.45386 26.2391V18.4125C7.45386 17.3364 8.32617 16.4641 9.40222 16.4641C10.4783 16.4641 11.3506 17.3364 11.3506 18.4125V26.2391ZM9.40234 14.8633H9.37695C8.06934 14.8633 7.22363 13.9631 7.22363 12.8381C7.22363 11.6877 8.09521 10.8125 9.42822 10.8125C10.7612 10.8125 11.5815 11.6877 11.6069 12.8381C11.6069 13.9631 10.7612 14.8633 9.40234 14.8633ZM25.4014 26.2394C25.4014 27.3153 24.5292 28.1875 23.4532 28.1875C22.3773 28.1875 21.5051 27.3153 21.5051 26.2394V21.9158C21.5051 20.3396 20.9409 19.2646 19.531 19.2646C18.4546 19.2646 17.8135 19.9897 17.5317 20.6897C17.4287 20.9402 17.4036 21.2903 17.4036 21.6406V26.2439C17.4036 27.3173 16.5334 28.1875 15.46 28.1875C14.383 28.1875 13.5112 27.3149 13.5153 26.2378C13.5235 24.091 13.5341 20.6528 13.5279 18.4545C13.5248 17.3689 14.4148 16.4641 15.5005 16.4641H17.0247C17.2339 16.4641 17.4036 16.6337 17.4036 16.843C17.4036 17.2204 17.9379 17.3931 18.2188 17.1411C18.7978 16.6219 19.6392 16.189 20.9153 16.189C23.479 16.189 25.4014 17.8645 25.4014 21.4653V26.2394Z" fill="url(#paint0_radial_615_992)"/>
<path opacity="0.88" d="M71.1631 14.5818C71.0159 14.1829 70.781 13.8218 70.4758 13.5254C70.1794 13.2202 69.8186 12.9854 69.4194 12.8381C69.0957 12.7124 68.6094 12.5627 67.7136 12.522C66.7446 12.4778 66.4541 12.4683 64.001 12.4683C61.5476 12.4683 61.2571 12.4775 60.2883 12.5217C59.3926 12.5627 58.906 12.7124 58.5825 12.8381C58.1833 12.9854 57.8223 13.2202 57.5261 13.5254C57.2209 13.8218 56.9861 14.1826 56.8386 14.5818C56.7129 14.9055 56.5632 15.3921 56.5225 16.2878C56.4783 17.2566 56.4688 17.5471 56.4688 20.0005C56.4688 22.4536 56.4783 22.7441 56.5225 23.7131C56.5632 24.6089 56.7129 25.0952 56.8386 25.4189C56.9861 25.8181 57.2207 26.179 57.5259 26.4753C57.8223 26.7805 58.1831 27.0154 58.5823 27.1626C58.906 27.2886 59.3926 27.4382 60.2883 27.479C61.2571 27.5232 61.5474 27.5325 64.0007 27.5325C66.4543 27.5325 66.7449 27.5232 67.7134 27.479C68.6091 27.4382 69.0957 27.2886 69.4194 27.1626C70.2207 26.8535 70.854 26.2202 71.1631 25.4189C71.2888 25.0952 71.4385 24.6089 71.4795 23.7131C71.5237 22.7441 71.533 22.4536 71.533 20.0005C71.533 17.5471 71.5237 17.2566 71.4795 16.2878C71.4387 15.3921 71.2891 14.9055 71.1631 14.5818ZM64.001 24.718C61.3953 24.718 59.283 22.606 59.283 20.0002C59.283 17.3945 61.3953 15.2825 64.001 15.2825C66.6064 15.2825 68.7188 17.3945 68.7188 20.0002C68.7188 22.606 66.6064 24.718 64.001 24.718ZM68.9053 16.1985C68.2964 16.1985 67.8027 15.7048 67.8027 15.0959C67.8027 14.4871 68.2964 13.9934 68.9053 13.9934C69.5142 13.9934 70.0078 14.4871 70.0078 15.0959C70.0076 15.7048 69.5142 16.1985 68.9053 16.1985Z" fill="url(#paint1_radial_615_992)"/>
<path opacity="0.88" d="M67.0625 20C67.0625 21.6914 65.6914 23.0625 64 23.0625C62.3086 23.0625 60.9375 21.6914 60.9375 20C60.9375 18.3086 62.3086 16.9375 64 16.9375C65.6914 16.9375 67.0625 18.3086 67.0625 20Z" fill="url(#paint2_radial_615_992)"/>
<path opacity="0.88" d="M77.6921 4H50.3079C49.0332 4 48 5.0332 48 6.30786V33.6921C48 34.9668 49.0332 36 50.3079 36H77.6921C78.9668 36 80 34.9668 80 33.6921V6.30786C80 5.0332 78.9668 4 77.6921 4ZM73.1321 23.7878C73.0876 24.7659 72.9321 25.4336 72.7051 26.0181C72.2278 27.2522 71.2522 28.2278 70.0181 28.7051C69.4338 28.9321 68.7659 29.0874 67.7881 29.1321C66.8083 29.1768 66.4954 29.1875 64.0002 29.1875C61.5049 29.1875 61.1921 29.1768 60.2122 29.1321C59.2344 29.0874 58.5664 28.9321 57.9822 28.7051C57.3689 28.4744 56.8137 28.1128 56.3547 27.6453C55.8875 27.1865 55.5259 26.6311 55.2952 26.0181C55.0681 25.4338 54.9126 24.7659 54.8682 23.7881C54.823 22.8081 54.8125 22.4951 54.8125 20C54.8125 17.5049 54.823 17.1919 54.8679 16.2122C54.9124 15.2341 55.0676 14.5664 55.2947 13.9819C55.5254 13.3689 55.8872 12.8135 56.3547 12.3547C56.8135 11.8872 57.3689 11.5256 57.9819 11.2949C58.5664 11.0679 59.2341 10.9126 60.2122 10.8679C61.1919 10.8232 61.5049 10.8125 64 10.8125C66.4951 10.8125 66.8081 10.8232 67.7878 10.8682C68.7659 10.9126 69.4336 11.0679 70.0181 11.2947C70.6311 11.5254 71.1865 11.8872 71.6455 12.3547C72.1128 12.8137 72.4746 13.3689 72.7051 13.9819C72.9324 14.5664 73.0876 15.2341 73.1323 16.2122C73.177 17.1919 73.1875 17.5049 73.1875 20C73.1875 22.4951 73.177 22.8081 73.1321 23.7878Z" fill="url(#paint3_radial_615_992)"/>
<rect opacity="0.88" x="258" width="113" height="40" rx="8" fill="url(#paint4_radial_615_992)"/>
<path d="M285.071 8.29614H271.178C268.515 8.29614 266.348 10.4496 266.348 13.0965V26.9032C266.348 29.5501 268.515 31.7036 271.178 31.7036H285.071C287.735 31.7036 289.902 29.5501 289.902 26.9032V13.0965C289.902 10.4496 287.735 8.29614 285.071 8.29614ZM273.6 26.3324C273.387 26.6987 273 26.9036 272.602 26.9037C272.407 26.9037 272.21 26.8544 272.029 26.7508C271.48 26.4357 271.291 25.7353 271.608 25.1895L271.834 24.8002H274.49L273.6 26.3324ZM271.431 23.8858C270.797 23.8858 270.281 23.3731 270.281 22.7429C270.281 22.1127 270.797 21.6 271.431 21.6H273.693L276.797 16.2586L275.956 14.811C275.639 14.2652 275.827 13.5648 276.377 13.2497H276.377C276.926 12.9346 277.631 13.1223 277.948 13.6681L278.125 13.9728L278.302 13.6681C278.619 13.1223 279.324 12.9346 279.873 13.2497C280.139 13.4024 280.329 13.6488 280.409 13.9437C280.488 14.2386 280.447 14.5467 280.294 14.811L276.35 21.6H278.837L280.165 23.8858H271.431ZM284.818 23.8858H283.884L284.641 25.1895C284.958 25.7352 284.77 26.4356 284.22 26.7507C284.043 26.8524 283.846 26.9044 283.647 26.9044C283.547 26.9044 283.447 26.8914 283.348 26.8649C283.051 26.7859 282.803 26.5968 282.649 26.3323L278.656 19.4588L279.984 17.1729L282.556 21.6H284.818C285.452 21.6 285.968 22.1127 285.968 22.7429C285.968 23.3731 285.452 23.8858 284.818 23.8858Z" fill="white"/>
<path d="M297.902 15.2962H297.242L299.153 10.0921H299.803L301.714 15.2962H301.053L299.498 10.9154H299.458L297.902 15.2962ZM298.146 13.2633H300.809V13.8224H298.146V13.2633Z" fill="white"/>
<path d="M305.146 11.3931L303.702 15.2962H303.093L301.649 11.3931H302.3L303.377 14.5034H303.418L304.495 11.3931H305.146Z" fill="white"/>
<path d="M306.967 15.3877C306.72 15.3877 306.495 15.3411 306.294 15.2479C306.092 15.1531 305.932 15.0167 305.813 14.8388C305.695 14.6592 305.636 14.4424 305.636 14.1883C305.636 13.9647 305.68 13.7834 305.768 13.6445C305.856 13.5039 305.973 13.3938 306.121 13.3142C306.268 13.2345 306.431 13.1752 306.609 13.1363C306.788 13.0956 306.969 13.0634 307.15 13.0397C307.387 13.0092 307.579 12.9864 307.727 12.9711C307.876 12.9542 307.984 12.9262 308.052 12.8873C308.122 12.8483 308.156 12.7805 308.156 12.684V12.6636C308.156 12.4129 308.088 12.2181 307.95 12.0792C307.815 11.9403 307.609 11.8708 307.333 11.8708C307.047 11.8708 306.822 11.9335 306.66 12.0589C306.497 12.1842 306.383 12.3181 306.317 12.4604L305.747 12.2571C305.849 12.0199 305.984 11.8353 306.154 11.7031C306.325 11.5693 306.511 11.4761 306.713 11.4236C306.916 11.3694 307.116 11.3423 307.313 11.3423C307.438 11.3423 307.582 11.3575 307.745 11.388C307.909 11.4168 308.067 11.477 308.22 11.5684C308.374 11.6599 308.502 11.798 308.603 11.9826C308.705 12.1673 308.756 12.4146 308.756 12.7246V15.2962H308.156V14.7677H308.126C308.085 14.8524 308.017 14.943 307.922 15.0395C307.828 15.1361 307.701 15.2183 307.544 15.286C307.386 15.3538 307.194 15.3877 306.967 15.3877ZM307.059 14.849C307.296 14.849 307.496 14.8024 307.658 14.7092C307.823 14.616 307.946 14.4958 308.029 14.3484C308.114 14.201 308.156 14.046 308.156 13.8834V13.3345C308.131 13.365 308.075 13.3929 307.989 13.4183C307.904 13.4421 307.806 13.4632 307.694 13.4819C307.584 13.4988 307.476 13.5141 307.371 13.5276C307.268 13.5395 307.184 13.5496 307.12 13.5581C306.964 13.5784 306.818 13.6115 306.682 13.6572C306.549 13.7012 306.44 13.7682 306.357 13.8579C306.276 13.946 306.235 14.0663 306.235 14.2188C306.235 14.4271 306.312 14.5847 306.466 14.6914C306.622 14.7965 306.82 14.849 307.059 14.849Z" fill="white"/>
<path d="M309.851 15.2962V11.3931H310.45V15.2962H309.851ZM310.155 10.7426C310.039 10.7426 309.938 10.7028 309.853 10.6232C309.77 10.5435 309.729 10.4478 309.729 10.336C309.729 10.2242 309.77 10.1285 309.853 10.0489C309.938 9.96925 310.039 9.92944 310.155 9.92944C310.272 9.92944 310.372 9.96925 310.455 10.0489C310.54 10.1285 310.582 10.2242 310.582 10.336C310.582 10.4478 310.54 10.5435 310.455 10.6232C310.372 10.7028 310.272 10.7426 310.155 10.7426Z" fill="white"/>
<path d="M312.148 10.0921V15.2962H311.549V10.0921H312.148Z" fill="white"/>
<path d="M314.395 15.3877C314.148 15.3877 313.923 15.3411 313.722 15.2479C313.52 15.1531 313.36 15.0167 313.242 14.8388C313.123 14.6592 313.064 14.4424 313.064 14.1883C313.064 13.9647 313.108 13.7834 313.196 13.6445C313.284 13.5039 313.402 13.3938 313.549 13.3142C313.696 13.2345 313.859 13.1752 314.037 13.1363C314.217 13.0956 314.397 13.0634 314.578 13.0397C314.815 13.0092 315.008 12.9864 315.155 12.9711C315.304 12.9542 315.413 12.9262 315.48 12.8873C315.55 12.8483 315.584 12.7805 315.584 12.684V12.6636C315.584 12.4129 315.516 12.2181 315.379 12.0792C315.243 11.9403 315.037 11.8708 314.761 11.8708C314.475 11.8708 314.25 11.9335 314.088 12.0589C313.925 12.1842 313.811 12.3181 313.745 12.4604L313.176 12.2571C313.277 12.0199 313.413 11.8353 313.582 11.7031C313.753 11.5693 313.94 11.4761 314.141 11.4236C314.344 11.3694 314.544 11.3423 314.741 11.3423C314.866 11.3423 315.01 11.3575 315.173 11.388C315.337 11.4168 315.496 11.477 315.648 11.5684C315.802 11.6599 315.93 11.798 316.032 11.9826C316.133 12.1673 316.184 12.4146 316.184 12.7246V15.2962H315.584V14.7677H315.554C315.513 14.8524 315.446 14.943 315.351 15.0395C315.256 15.1361 315.13 15.2183 314.972 15.286C314.815 15.3538 314.622 15.3877 314.395 15.3877ZM314.487 14.849C314.724 14.849 314.924 14.8024 315.086 14.7092C315.251 14.616 315.374 14.4958 315.457 14.3484C315.542 14.201 315.584 14.046 315.584 13.8834V13.3345C315.559 13.365 315.503 13.3929 315.417 13.4183C315.332 13.4421 315.234 13.4632 315.122 13.4819C315.012 13.4988 314.904 13.5141 314.799 13.5276C314.696 13.5395 314.612 13.5496 314.548 13.5581C314.392 13.5784 314.246 13.6115 314.111 13.6572C313.977 13.7012 313.868 13.7682 313.785 13.8579C313.704 13.946 313.663 14.0663 313.663 14.2188C313.663 14.4271 313.74 14.5847 313.895 14.6914C314.051 14.7965 314.248 14.849 314.487 14.849Z" fill="white"/>
<path d="M317.36 15.2962V10.0921H317.96V12.0131H318.011C318.055 11.9454 318.116 11.859 318.194 11.7539C318.273 11.6472 318.387 11.5523 318.534 11.4693C318.683 11.3846 318.885 11.3423 319.139 11.3423C319.467 11.3423 319.757 11.4244 320.008 11.5888C320.259 11.7531 320.454 11.986 320.595 12.2876C320.735 12.5891 320.806 12.9449 320.806 13.3548C320.806 13.7682 320.735 14.1265 320.595 14.4297C320.454 14.7312 320.259 14.965 320.01 15.131C319.761 15.2954 319.474 15.3775 319.149 15.3775C318.898 15.3775 318.697 15.336 318.547 15.253C318.396 15.1683 318.28 15.0726 318.199 14.9659C318.117 14.8574 318.055 14.7677 318.011 14.6965H317.939V15.2962H317.36ZM317.95 13.3447C317.95 13.6394 317.993 13.8995 318.079 14.1248C318.166 14.3484 318.292 14.5237 318.458 14.6508C318.624 14.7761 318.827 14.8388 319.068 14.8388C319.318 14.8388 319.528 14.7727 319.695 14.6406C319.865 14.5068 319.992 14.3272 320.076 14.1019C320.163 13.8749 320.206 13.6225 320.206 13.3447C320.206 13.0702 320.164 12.8229 320.079 12.6027C319.996 12.3807 319.87 12.2054 319.7 12.0767C319.533 11.9462 319.322 11.881 319.068 11.881C318.824 11.881 318.619 11.9428 318.453 12.0665C318.287 12.1885 318.161 12.3596 318.077 12.5798C317.992 12.7983 317.95 13.0533 317.95 13.3447Z" fill="white"/>
<path d="M322.323 10.0921V15.2962H321.723V10.0921H322.323Z" fill="white"/>
<path d="M325.058 15.3775C324.682 15.3775 324.357 15.2945 324.084 15.1285C323.813 14.9608 323.604 14.727 323.457 14.4271C323.311 14.1256 323.238 13.7749 323.238 13.3751C323.238 12.9753 323.311 12.623 323.457 12.3181C323.604 12.0114 323.809 11.7726 324.072 11.6015C324.336 11.4287 324.644 11.3423 324.997 11.3423C325.2 11.3423 325.401 11.3762 325.599 11.4439C325.797 11.5117 325.977 11.6218 326.14 11.7743C326.303 11.925 326.432 12.1249 326.529 12.374C326.625 12.623 326.674 12.9296 326.674 13.2938V13.5479H323.665V13.0296H326.064C326.064 12.8093 326.02 12.6128 325.932 12.44C325.845 12.2672 325.722 12.1309 325.561 12.0309C325.401 11.931 325.213 11.881 324.997 11.881C324.758 11.881 324.551 11.9403 324.377 12.0589C324.204 12.1758 324.071 12.3282 323.978 12.5163C323.884 12.7043 323.838 12.9059 323.838 13.121V13.4666C323.838 13.7614 323.889 14.0113 323.99 14.2162C324.094 14.4195 324.237 14.5745 324.42 14.6813C324.603 14.7863 324.815 14.8388 325.058 14.8388C325.215 14.8388 325.357 14.8168 325.484 14.7727C325.613 14.727 325.724 14.6592 325.817 14.5694C325.911 14.478 325.983 14.3645 326.033 14.2289L326.613 14.3916C326.552 14.5881 326.449 14.7609 326.305 14.91C326.161 15.0573 325.983 15.1725 325.772 15.2555C325.56 15.3369 325.322 15.3775 325.058 15.3775Z" fill="white"/>
<path d="M331.184 15.3775C330.832 15.3775 330.523 15.2937 330.257 15.1259C329.992 14.9582 329.786 14.7236 329.637 14.4221C329.489 14.1205 329.416 13.7682 329.416 13.365C329.416 12.9584 329.489 12.6035 329.637 12.3003C329.786 11.997 329.992 11.7616 330.257 11.5938C330.523 11.4261 330.832 11.3423 331.184 11.3423C331.536 11.3423 331.845 11.4261 332.109 11.5938C332.375 11.7616 332.582 11.997 332.729 12.3003C332.878 12.6035 332.953 12.9584 332.953 13.365C332.953 13.7682 332.878 14.1205 332.729 14.4221C332.582 14.7236 332.375 14.9582 332.109 15.1259C331.845 15.2937 331.536 15.3775 331.184 15.3775ZM331.184 14.8388C331.452 14.8388 331.672 14.7702 331.845 14.633C332.018 14.4958 332.146 14.3153 332.229 14.0917C332.312 13.8681 332.353 13.6259 332.353 13.365C332.353 13.1041 332.312 12.861 332.229 12.6357C332.146 12.4104 332.018 12.2283 331.845 12.0894C331.672 11.9504 331.452 11.881 331.184 11.881C330.916 11.881 330.696 11.9504 330.523 12.0894C330.351 12.2283 330.223 12.4104 330.14 12.6357C330.057 12.861 330.015 13.1041 330.015 13.365C330.015 13.6259 330.057 13.8681 330.14 14.0917C330.223 14.3153 330.351 14.4958 330.523 14.633C330.696 14.7702 330.916 14.8388 331.184 14.8388Z" fill="white"/>
<path d="M334.468 12.9482V15.2962H333.868V11.3931H334.448V12.003H334.498C334.59 11.8048 334.729 11.6455 334.915 11.5252C335.101 11.4033 335.342 11.3423 335.637 11.3423C335.901 11.3423 336.132 11.3965 336.33 11.5049C336.529 11.6116 336.683 11.7743 336.793 11.9928C336.903 12.2096 336.958 12.4841 336.958 12.8161V15.2962H336.358V12.8568C336.358 12.5501 336.279 12.3113 336.12 12.1402C335.96 11.9674 335.742 11.881 335.464 11.881C335.273 11.881 335.101 11.9225 334.951 12.0055C334.802 12.0885 334.684 12.2096 334.597 12.3689C334.511 12.5281 334.468 12.7212 334.468 12.9482Z" fill="white"/>
<path d="M341.764 11.3931V11.9013H339.741V11.3931H341.764ZM340.331 10.458H340.93V14.1781C340.93 14.3475 340.955 14.4746 341.004 14.5593C341.055 14.6423 341.119 14.6982 341.197 14.727C341.277 14.7541 341.361 14.7677 341.449 14.7677C341.515 14.7677 341.569 14.7643 341.611 14.7575C341.654 14.749 341.688 14.7422 341.713 14.7372L341.835 15.2759C341.794 15.2911 341.738 15.3064 341.665 15.3216C341.592 15.3385 341.5 15.347 341.388 15.347C341.218 15.347 341.052 15.3106 340.89 15.2378C340.729 15.1649 340.595 15.0539 340.488 14.9049C340.383 14.7558 340.331 14.5678 340.331 14.3408V10.458Z" fill="white"/>
<path d="M343.35 12.9482V15.2962H342.75V10.0921H343.35V12.003H343.4C343.492 11.8014 343.629 11.6413 343.812 11.5227C343.997 11.4024 344.242 11.3423 344.549 11.3423C344.815 11.3423 345.048 11.3956 345.248 11.5024C345.448 11.6074 345.603 11.7692 345.713 11.9877C345.825 12.2046 345.88 12.4807 345.88 12.8161V15.2962H345.281V12.8568C345.281 12.5468 345.2 12.307 345.039 12.1376C344.88 11.9665 344.659 11.881 344.376 11.881C344.18 11.881 344.003 11.9225 343.848 12.0055C343.693 12.0885 343.571 12.2096 343.482 12.3689C343.394 12.5281 343.35 12.7212 343.35 12.9482Z" fill="white"/>
<path d="M348.614 15.3775C348.238 15.3775 347.914 15.2945 347.641 15.1285C347.37 14.9608 347.161 14.727 347.013 14.4271C346.867 14.1256 346.795 13.7749 346.795 13.3751C346.795 12.9753 346.867 12.623 347.013 12.3181C347.161 12.0114 347.366 11.7726 347.628 11.6015C347.892 11.4287 348.201 11.3423 348.553 11.3423C348.756 11.3423 348.957 11.3762 349.155 11.4439C349.353 11.5117 349.534 11.6218 349.697 11.7743C349.859 11.925 349.989 12.1249 350.085 12.374C350.182 12.623 350.23 12.9296 350.23 13.2938V13.5479H347.222V13.0296H349.62C349.62 12.8093 349.576 12.6128 349.488 12.44C349.402 12.2672 349.278 12.1309 349.117 12.0309C348.958 11.931 348.77 11.881 348.553 11.881C348.314 11.881 348.107 11.9403 347.933 12.0589C347.76 12.1758 347.627 12.3282 347.534 12.5163C347.441 12.7043 347.394 12.9059 347.394 13.121V13.4666C347.394 13.7614 347.445 14.0113 347.547 14.2162C347.65 14.4195 347.793 14.5745 347.976 14.6813C348.159 14.7863 348.372 14.8388 348.614 14.8388C348.772 14.8388 348.914 14.8168 349.041 14.7727C349.17 14.727 349.281 14.6592 349.374 14.5694C349.467 14.478 349.539 14.3645 349.59 14.2289L350.169 14.3916C350.108 14.5881 350.006 14.7609 349.862 14.91C349.718 15.0573 349.54 15.1725 349.328 15.2555C349.116 15.3369 348.878 15.3775 348.614 15.3775Z" fill="white"/>
<path d="M298.831 28.6666H297.322L300.07 20.8604H301.816L304.568 28.6666H303.058L300.973 22.4613H300.912L298.831 28.6666ZM298.881 25.6058H302.997V26.7417H298.881V25.6058Z" fill="white"/>
<path d="M305.535 30.8621V22.8119H306.892V23.7801H306.972C307.043 23.6378 307.143 23.4866 307.273 23.3265C307.403 23.1639 307.578 23.0254 307.799 22.911C308.02 22.7941 308.302 22.7357 308.645 22.7357C309.097 22.7357 309.505 22.8513 309.869 23.0826C310.235 23.3113 310.524 23.6505 310.738 24.1003C310.954 24.5475 311.062 25.0964 311.062 25.7469C311.062 26.3898 310.956 26.9361 310.745 27.3859C310.534 27.8356 310.247 28.1787 309.884 28.415C309.521 28.6513 309.109 28.7695 308.649 28.7695C308.314 28.7695 308.035 28.7136 307.814 28.6018C307.593 28.49 307.415 28.3553 307.281 28.1977C307.148 28.0377 307.046 27.8865 306.972 27.7442H306.915V30.8621H305.535ZM306.888 25.7393C306.888 26.1179 306.941 26.4495 307.048 26.7341C307.157 27.0187 307.314 27.241 307.517 27.4011C307.723 27.5587 307.972 27.6374 308.264 27.6374C308.569 27.6374 308.824 27.5561 309.03 27.3935C309.236 27.2283 309.391 27.0034 309.495 26.7188C309.602 26.4317 309.655 26.1052 309.655 25.7393C309.655 25.3759 309.603 25.0532 309.499 24.7711C309.395 24.489 309.24 24.268 309.034 24.1079C308.828 23.9478 308.571 23.8678 308.264 23.8678C307.969 23.8678 307.719 23.9453 307.513 24.1003C307.307 24.2553 307.151 24.4725 307.044 24.752C306.94 25.0316 306.888 25.3606 306.888 25.7393Z" fill="white"/>
<path d="M312.243 30.8621V22.8119H313.6V23.7801H313.68C313.751 23.6378 313.852 23.4866 313.981 23.3265C314.111 23.1639 314.286 23.0254 314.507 22.911C314.728 22.7941 315.011 22.7357 315.354 22.7357C315.806 22.7357 316.214 22.8513 316.577 23.0826C316.943 23.3113 317.233 23.6505 317.446 24.1003C317.662 24.5475 317.77 25.0964 317.77 25.7469C317.77 26.3898 317.665 26.9361 317.454 27.3859C317.243 27.8356 316.956 28.1787 316.592 28.415C316.229 28.6513 315.817 28.7695 315.357 28.7695C315.022 28.7695 314.744 28.7136 314.523 28.6018C314.302 28.49 314.124 28.3553 313.989 28.1977C313.857 28.0377 313.754 27.8865 313.68 27.7442H313.623V30.8621H312.243ZM313.596 25.7393C313.596 26.1179 313.65 26.4495 313.757 26.7341C313.866 27.0187 314.022 27.241 314.225 27.4011C314.431 27.5587 314.68 27.6374 314.972 27.6374C315.277 27.6374 315.533 27.5561 315.739 27.3935C315.944 27.2283 316.099 27.0034 316.204 26.7188C316.31 26.4317 316.364 26.1052 316.364 25.7393C316.364 25.3759 316.312 25.0532 316.207 24.7711C316.103 24.489 315.948 24.268 315.742 24.1079C315.537 23.9478 315.28 23.8678 314.972 23.8678C314.678 23.8678 314.427 23.9453 314.222 24.1003C314.016 24.2553 313.859 24.4725 313.753 24.752C313.649 25.0316 313.596 25.3606 313.596 25.7393Z" fill="white"/>
<path d="M325.917 23.0063C325.882 22.6734 325.732 22.4143 325.468 22.2288C325.206 22.0433 324.865 21.9505 324.446 21.9505C324.151 21.9505 323.899 21.995 323.688 22.0839C323.477 22.1729 323.315 22.2936 323.204 22.446C323.092 22.5985 323.035 22.7725 323.032 22.9682C323.032 23.1308 323.069 23.2719 323.143 23.3913C323.219 23.5107 323.322 23.6124 323.451 23.6962C323.581 23.7775 323.725 23.8462 323.882 23.9021C324.04 23.958 324.198 24.005 324.359 24.0431L325.09 24.226C325.385 24.2947 325.668 24.3874 325.94 24.5043C326.215 24.6212 326.46 24.7686 326.676 24.9464C326.895 25.1243 327.067 25.339 327.194 25.5906C327.321 25.8422 327.385 26.1369 327.385 26.4749C327.385 26.9323 327.268 27.3351 327.034 27.6832C326.8 28.0288 326.463 28.2994 326.02 28.4951C325.581 28.6882 325.048 28.7847 324.423 28.7847C323.816 28.7847 323.289 28.6907 322.841 28.5027C322.397 28.3146 322.049 28.0402 321.797 27.6794C321.548 27.3185 321.413 26.8789 321.393 26.3605H322.784C322.805 26.6324 322.889 26.8586 323.036 27.039C323.183 27.2194 323.375 27.3541 323.611 27.443C323.85 27.532 324.117 27.5765 324.412 27.5765C324.719 27.5765 324.989 27.5307 325.22 27.4392C325.454 27.3452 325.637 27.2156 325.769 27.0505C325.901 26.8827 325.968 26.6871 325.971 26.4635C325.968 26.2602 325.909 26.0925 325.792 25.9603C325.675 25.8257 325.511 25.7138 325.3 25.6249C325.092 25.5334 324.848 25.4521 324.568 25.381L323.68 25.1523C323.037 24.9871 322.529 24.7368 322.155 24.4014C321.784 24.0634 321.599 23.6149 321.599 23.0559C321.599 22.5959 321.723 22.1932 321.972 21.8476C322.224 21.502 322.566 21.2339 322.998 21.0433C323.43 20.8502 323.919 20.7537 324.465 20.7537C325.019 20.7537 325.505 20.8502 325.921 21.0433C326.341 21.2339 326.67 21.4995 326.908 21.84C327.147 22.1779 327.271 22.5667 327.278 23.0063H325.917Z" fill="white"/>
<path d="M331.508 22.8119V23.8792H328.143V22.8119H331.508ZM328.973 21.4093H330.353V26.9056C330.353 27.0911 330.381 27.2334 330.437 27.3325C330.496 27.4291 330.572 27.4951 330.666 27.5307C330.76 27.5663 330.864 27.5841 330.978 27.5841C331.065 27.5841 331.144 27.5777 331.215 27.565C331.288 27.5523 331.344 27.5409 331.382 27.5307L331.615 28.6094C331.541 28.6348 331.436 28.6628 331.299 28.6933C331.164 28.7238 330.999 28.7415 330.803 28.7466C330.457 28.7568 330.146 28.7047 329.869 28.5903C329.592 28.4735 329.372 28.293 329.21 28.0491C329.05 27.8052 328.971 27.5002 328.973 27.1343V21.4093Z" fill="white"/>
<path d="M335.153 28.7809C334.581 28.7809 334.086 28.6551 333.666 28.4036C333.247 28.152 332.922 27.8001 332.691 27.3478C332.462 26.8954 332.348 26.3669 332.348 25.7621C332.348 25.1573 332.462 24.6275 332.691 24.1727C332.922 23.7178 333.247 23.3646 333.666 23.1131C334.086 22.8615 334.581 22.7357 335.153 22.7357C335.725 22.7357 336.22 22.8615 336.64 23.1131C337.059 23.3646 337.383 23.7178 337.612 24.1727C337.843 24.6275 337.958 25.1573 337.958 25.7621C337.958 26.3669 337.843 26.8954 337.612 27.3478C337.383 27.8001 337.059 28.152 336.64 28.4036C336.22 28.6551 335.725 28.7809 335.153 28.7809ZM335.161 27.6756C335.471 27.6756 335.73 27.5904 335.938 27.4202C336.147 27.2474 336.302 27.0161 336.403 26.7265C336.507 26.4368 336.56 26.1141 336.56 25.7583C336.56 25.4 336.507 25.076 336.403 24.7864C336.302 24.4941 336.147 24.2616 335.938 24.0888C335.73 23.916 335.471 23.8296 335.161 23.8296C334.843 23.8296 334.579 23.916 334.368 24.0888C334.159 24.2616 334.003 24.4941 333.899 24.7864C333.797 25.076 333.747 25.4 333.747 25.7583C333.747 26.1141 333.797 26.4368 333.899 26.7265C334.003 27.0161 334.159 27.2474 334.368 27.4202C334.579 27.5904 334.843 27.6756 335.161 27.6756Z" fill="white"/>
<path d="M339.129 28.6666V22.8119H340.467V23.7877H340.528C340.635 23.4497 340.818 23.1893 341.077 23.0063C341.339 22.8208 341.638 22.7281 341.973 22.7281C342.049 22.7281 342.134 22.7319 342.228 22.7395C342.325 22.7446 342.405 22.7535 342.468 22.7662V24.0355C342.41 24.0151 342.317 23.9973 342.19 23.9821C342.066 23.9643 341.945 23.9554 341.828 23.9554C341.577 23.9554 341.35 24.0101 341.15 24.1193C340.951 24.226 340.795 24.3747 340.681 24.5653C340.566 24.7559 340.509 24.9757 340.509 25.2247V28.6666H339.129Z" fill="white"/>
<path d="M345.736 28.7809C345.149 28.7809 344.642 28.659 344.215 28.415C343.791 28.1685 343.464 27.8204 343.236 27.3706C343.007 26.9183 342.893 26.386 342.893 25.7736C342.893 25.1713 343.007 24.6428 343.236 24.1879C343.467 23.7305 343.79 23.3748 344.204 23.1207C344.618 22.864 345.105 22.7357 345.664 22.7357C346.024 22.7357 346.365 22.7941 346.685 22.911C347.008 23.0254 347.292 23.2033 347.539 23.4447C347.788 23.6861 347.984 23.9935 348.126 24.3671C348.268 24.7381 348.339 25.1802 348.339 25.6935V26.1166H343.54V25.1866H347.017C347.014 24.9223 346.957 24.6872 346.845 24.4814C346.733 24.2731 346.577 24.1092 346.376 23.9897C346.178 23.8703 345.947 23.8106 345.683 23.8106C345.401 23.8106 345.153 23.8792 344.939 24.0164C344.726 24.1511 344.559 24.329 344.44 24.55C344.323 24.7686 344.263 25.0087 344.261 25.2704V26.0823C344.261 26.4228 344.323 26.715 344.448 26.959C344.572 27.2004 344.746 27.3859 344.97 27.5155C345.193 27.6425 345.455 27.706 345.755 27.706C345.956 27.706 346.137 27.6781 346.3 27.6222C346.463 27.5637 346.604 27.4786 346.723 27.3668C346.843 27.255 346.933 27.1165 346.994 26.9513L348.282 27.0962C348.201 27.4367 348.046 27.734 347.817 27.9881C347.591 28.2397 347.301 28.4353 346.948 28.5751C346.595 28.7123 346.191 28.7809 345.736 28.7809Z" fill="white"/>
<rect opacity="0.88" x="129" width="113" height="40" rx="8" fill="url(#paint5_radial_615_992)"/>
<path fill-rule="evenodd" clip-rule="evenodd" d="M137.352 13.0666C137.352 10.4319 139.487 8.29614 142.122 8.29614H156.135C158.77 8.29614 160.906 10.4319 160.906 13.0666V26.9331C160.906 29.5677 158.77 31.7036 156.135 31.7036H142.122C139.487 31.7036 137.352 29.5677 137.352 26.9331V13.0666ZM146.176 13.2553C145.64 12.9605 145.01 12.9674 144.477 13.2595L150.725 18.9879L152.824 16.9018L146.176 13.2553ZM143.613 14.6777C143.613 14.377 143.701 14.0933 143.853 13.8455L150.121 19.5909L143.837 25.8354C143.693 25.5926 143.613 25.315 143.613 25.0236V14.6777ZM155.608 18.4279L153.605 17.33L151.355 19.5651L154.113 22.0924L155.609 21.2721C156.147 20.9757 156.469 20.4442 156.469 19.8496C156.468 19.255 156.147 18.7235 155.608 18.4279ZM144.445 26.4299L150.746 20.1683L153.319 22.5269L146.173 26.4461C145.905 26.5934 145.612 26.6667 145.32 26.6667C145.019 26.6667 144.719 26.5849 144.445 26.4299Z" fill="white"/>
<path d="M168.898 15.2962H168.238L170.149 10.0921H170.799L172.71 15.2962H172.049L170.494 10.9154H170.454L168.898 15.2962ZM169.142 13.2633H171.805V13.8224H169.142V13.2633Z" fill="white"/>
<path d="M176.142 11.3931L174.698 15.2962H174.089L172.645 11.3931H173.296L174.373 14.5034H174.414L175.491 11.3931H176.142Z" fill="white"/>
<path d="M177.963 15.3877C177.716 15.3877 177.491 15.3411 177.29 15.2479C177.088 15.1531 176.928 15.0167 176.809 14.8388C176.691 14.6592 176.632 14.4424 176.632 14.1883C176.632 13.9647 176.676 13.7834 176.764 13.6445C176.852 13.5039 176.97 13.3938 177.117 13.3142C177.264 13.2345 177.427 13.1752 177.605 13.1363C177.784 13.0956 177.965 13.0634 178.146 13.0397C178.383 13.0092 178.576 12.9864 178.723 12.9711C178.872 12.9542 178.98 12.9262 179.048 12.8873C179.118 12.8483 179.152 12.7805 179.152 12.684V12.6636C179.152 12.4129 179.084 12.2181 178.947 12.0792C178.811 11.9403 178.605 11.8708 178.329 11.8708C178.043 11.8708 177.818 11.9335 177.656 12.0589C177.493 12.1842 177.379 12.3181 177.313 12.4604L176.743 12.2571C176.845 12.0199 176.981 11.8353 177.15 11.7031C177.321 11.5693 177.507 11.4761 177.709 11.4236C177.912 11.3694 178.112 11.3423 178.309 11.3423C178.434 11.3423 178.578 11.3575 178.741 11.388C178.905 11.4168 179.063 11.477 179.216 11.5684C179.37 11.6599 179.498 11.798 179.6 11.9826C179.701 12.1673 179.752 12.4146 179.752 12.7246V15.2962H179.152V14.7677H179.122C179.081 14.8524 179.013 14.943 178.919 15.0395C178.824 15.1361 178.698 15.2183 178.54 15.286C178.382 15.3538 178.19 15.3877 177.963 15.3877ZM178.055 14.849C178.292 14.849 178.492 14.8024 178.654 14.7092C178.819 14.616 178.942 14.4958 179.025 14.3484C179.11 14.201 179.152 14.046 179.152 13.8834V13.3345C179.127 13.365 179.071 13.3929 178.985 13.4183C178.9 13.4421 178.802 13.4632 178.69 13.4819C178.58 13.4988 178.472 13.5141 178.367 13.5276C178.264 13.5395 178.18 13.5496 178.116 13.5581C177.96 13.5784 177.814 13.6115 177.679 13.6572C177.545 13.7012 177.436 13.7682 177.353 13.8579C177.272 13.946 177.231 14.0663 177.231 14.2188C177.231 14.4271 177.308 14.5847 177.463 14.6914C177.618 14.7965 177.816 14.849 178.055 14.849Z" fill="white"/>
<path d="M180.847 15.2962V11.3931H181.446V15.2962H180.847ZM181.152 10.7426C181.035 10.7426 180.934 10.7028 180.849 10.6232C180.766 10.5435 180.725 10.4478 180.725 10.336C180.725 10.2242 180.766 10.1285 180.849 10.0489C180.934 9.96925 181.035 9.92944 181.152 9.92944C181.268 9.92944 181.368 9.96925 181.451 10.0489C181.536 10.1285 181.578 10.2242 181.578 10.336C181.578 10.4478 181.536 10.5435 181.451 10.6232C181.368 10.7028 181.268 10.7426 181.152 10.7426Z" fill="white"/>
<path d="M183.144 10.0921V15.2962H182.545V10.0921H183.144Z" fill="white"/>
<path d="M185.391 15.3877C185.144 15.3877 184.92 15.3411 184.718 15.2479C184.516 15.1531 184.356 15.0167 184.238 14.8388C184.119 14.6592 184.06 14.4424 184.06 14.1883C184.06 13.9647 184.104 13.7834 184.192 13.6445C184.28 13.5039 184.398 13.3938 184.545 13.3142C184.693 13.2345 184.855 13.1752 185.033 13.1363C185.213 13.0956 185.393 13.0634 185.574 13.0397C185.811 13.0092 186.004 12.9864 186.151 12.9711C186.3 12.9542 186.409 12.9262 186.476 12.8873C186.546 12.8483 186.581 12.7805 186.581 12.684V12.6636C186.581 12.4129 186.512 12.2181 186.375 12.0792C186.239 11.9403 186.033 11.8708 185.757 11.8708C185.471 11.8708 185.246 11.9335 185.084 12.0589C184.921 12.1842 184.807 12.3181 184.741 12.4604L184.172 12.2571C184.273 12.0199 184.409 11.8353 184.578 11.7031C184.749 11.5693 184.936 11.4761 185.137 11.4236C185.341 11.3694 185.54 11.3423 185.737 11.3423C185.862 11.3423 186.006 11.3575 186.169 11.388C186.333 11.4168 186.492 11.477 186.644 11.5684C186.798 11.6599 186.926 11.798 187.028 11.9826C187.129 12.1673 187.18 12.4146 187.18 12.7246V15.2962H186.581V14.7677H186.55C186.509 14.8524 186.442 14.943 186.347 15.0395C186.252 15.1361 186.126 15.2183 185.968 15.286C185.811 15.3538 185.618 15.3877 185.391 15.3877ZM185.483 14.849C185.72 14.849 185.92 14.8024 186.083 14.7092C186.247 14.616 186.37 14.4958 186.454 14.3484C186.538 14.201 186.581 14.046 186.581 13.8834V13.3345C186.555 13.365 186.499 13.3929 186.413 13.4183C186.328 13.4421 186.23 13.4632 186.118 13.4819C186.008 13.4988 185.9 13.5141 185.795 13.5276C185.692 13.5395 185.608 13.5496 185.544 13.5581C185.388 13.5784 185.242 13.6115 185.107 13.6572C184.973 13.7012 184.864 13.7682 184.781 13.8579C184.7 13.946 184.66 14.0663 184.66 14.2188C184.66 14.4271 184.737 14.5847 184.891 14.6914C185.047 14.7965 185.244 14.849 185.483 14.849Z" fill="white"/>
<path d="M188.356 15.2962V10.0921H188.956V12.0131H189.007C189.051 11.9454 189.112 11.859 189.19 11.7539C189.269 11.6472 189.383 11.5523 189.53 11.4693C189.679 11.3846 189.881 11.3423 190.135 11.3423C190.464 11.3423 190.753 11.4244 191.004 11.5888C191.255 11.7531 191.45 11.986 191.591 12.2876C191.732 12.5891 191.802 12.9449 191.802 13.3548C191.802 13.7682 191.732 14.1265 191.591 14.4297C191.45 14.7312 191.256 14.965 191.006 15.131C190.757 15.2954 190.47 15.3775 190.145 15.3775C189.894 15.3775 189.694 15.336 189.543 15.253C189.392 15.1683 189.276 15.0726 189.195 14.9659C189.113 14.8574 189.051 14.7677 189.007 14.6965H188.936V15.2962H188.356ZM188.946 13.3447C188.946 13.6394 188.989 13.8995 189.075 14.1248C189.162 14.3484 189.288 14.5237 189.454 14.6508C189.62 14.7761 189.823 14.8388 190.064 14.8388C190.314 14.8388 190.524 14.7727 190.691 14.6406C190.861 14.5068 190.988 14.3272 191.073 14.1019C191.159 13.8749 191.202 13.6225 191.202 13.3447C191.202 13.0702 191.16 12.8229 191.075 12.6027C190.992 12.3807 190.866 12.2054 190.696 12.0767C190.529 11.9462 190.318 11.881 190.064 11.881C189.82 11.881 189.615 11.9428 189.449 12.0665C189.283 12.1885 189.157 12.3596 189.073 12.5798C188.988 12.7983 188.946 13.0533 188.946 13.3447Z" fill="white"/>
<path d="M193.319 10.0921V15.2962H192.719V10.0921H193.319Z" fill="white"/>
<path d="M196.054 15.3775C195.678 15.3775 195.353 15.2945 195.08 15.1285C194.809 14.9608 194.6 14.727 194.453 14.4271C194.307 14.1256 194.234 13.7749 194.234 13.3751C194.234 12.9753 194.307 12.623 194.453 12.3181C194.6 12.0114 194.805 11.7726 195.068 11.6015C195.332 11.4287 195.64 11.3423 195.993 11.3423C196.196 11.3423 196.397 11.3762 196.595 11.4439C196.793 11.5117 196.974 11.6218 197.136 11.7743C197.299 11.925 197.428 12.1249 197.525 12.374C197.622 12.623 197.67 12.9296 197.67 13.2938V13.5479H194.661V13.0296H197.06C197.06 12.8093 197.016 12.6128 196.928 12.44C196.841 12.2672 196.718 12.1309 196.557 12.0309C196.398 11.931 196.21 11.881 195.993 11.881C195.754 11.881 195.547 11.9403 195.373 12.0589C195.2 12.1758 195.067 12.3282 194.974 12.5163C194.881 12.7043 194.834 12.9059 194.834 13.121V13.4666C194.834 13.7614 194.885 14.0113 194.986 14.2162C195.09 14.4195 195.233 14.5745 195.416 14.6813C195.599 14.7863 195.811 14.8388 196.054 14.8388C196.211 14.8388 196.354 14.8168 196.481 14.7727C196.609 14.727 196.72 14.6592 196.813 14.5695C196.907 14.478 196.979 14.3645 197.029 14.2289L197.609 14.3916C197.548 14.5881 197.445 14.7609 197.301 14.91C197.157 15.0573 196.979 15.1725 196.768 15.2555C196.556 15.3369 196.318 15.3775 196.054 15.3775Z" fill="white"/>
<path d="M202.18 15.3775C201.828 15.3775 201.519 15.2937 201.253 15.1259C200.988 14.9582 200.782 14.7236 200.633 14.4221C200.485 14.1205 200.412 13.7682 200.412 13.365C200.412 12.9584 200.485 12.6035 200.633 12.3003C200.782 11.997 200.988 11.7616 201.253 11.5938C201.519 11.4261 201.828 11.3423 202.18 11.3423C202.533 11.3423 202.841 11.4261 203.105 11.5938C203.371 11.7616 203.578 11.997 203.725 12.3003C203.874 12.6035 203.949 12.9584 203.949 13.365C203.949 13.7682 203.874 14.1205 203.725 14.4221C203.578 14.7236 203.371 14.9582 203.105 15.1259C202.841 15.2937 202.533 15.3775 202.18 15.3775ZM202.18 14.8388C202.448 14.8388 202.668 14.7702 202.841 14.633C203.014 14.4958 203.142 14.3153 203.225 14.0917C203.308 13.8681 203.349 13.6259 203.349 13.365C203.349 13.1041 203.308 12.861 203.225 12.6357C203.142 12.4104 203.014 12.2283 202.841 12.0894C202.668 11.9504 202.448 11.881 202.18 11.881C201.913 11.881 201.692 11.9504 201.52 12.0894C201.347 12.2283 201.219 12.4104 201.136 12.6357C201.053 12.861 201.011 13.1041 201.011 13.365C201.011 13.6259 201.053 13.8681 201.136 14.0917C201.219 14.3153 201.347 14.4958 201.52 14.633C201.692 14.7702 201.913 14.8388 202.18 14.8388Z" fill="white"/>
<path d="M205.464 12.9482V15.2962H204.864V11.3931H205.444V12.003H205.494C205.586 11.8048 205.725 11.6455 205.911 11.5252C206.098 11.4033 206.338 11.3423 206.633 11.3423C206.897 11.3423 207.128 11.3965 207.327 11.5049C207.525 11.6116 207.679 11.7743 207.789 11.9928C207.899 12.2096 207.954 12.4841 207.954 12.8161V15.2962H207.354V12.8568C207.354 12.5501 207.275 12.3113 207.116 12.1402C206.956 11.9674 206.738 11.881 206.46 11.881C206.269 11.881 206.098 11.9225 205.947 12.0055C205.798 12.0885 205.68 12.2096 205.594 12.3689C205.507 12.5281 205.464 12.7212 205.464 12.9482Z" fill="white"/>
<path d="M212.76 11.3931V11.9013H210.737V11.3931H212.76ZM211.327 10.458H211.927V14.1781C211.927 14.3475 211.951 14.4746 212 14.5593C212.051 14.6423 212.115 14.6982 212.193 14.727C212.273 14.7541 212.357 14.7677 212.445 14.7677C212.511 14.7677 212.565 14.7643 212.608 14.7575C212.65 14.749 212.684 14.7422 212.709 14.7372L212.831 15.2759C212.79 15.2911 212.734 15.3064 212.661 15.3216C212.588 15.3385 212.496 15.347 212.384 15.347C212.215 15.347 212.049 15.3106 211.886 15.2378C211.725 15.1649 211.591 15.0539 211.484 14.9049C211.379 14.7558 211.327 14.5678 211.327 14.3408V10.458Z" fill="white"/>
<path d="M214.346 12.9482V15.2962H213.746V10.0921H214.346V12.003H214.396C214.488 11.8014 214.625 11.6413 214.808 11.5227C214.993 11.4024 215.238 11.3423 215.545 11.3423C215.811 11.3423 216.044 11.3956 216.244 11.5024C216.444 11.6074 216.599 11.7692 216.709 11.9877C216.821 12.2046 216.877 12.4807 216.877 12.8161V15.2962H216.277V12.8568C216.277 12.5468 216.196 12.307 216.035 12.1376C215.876 11.9665 215.655 11.881 215.372 11.881C215.176 11.881 215 11.9225 214.844 12.0055C214.69 12.0885 214.568 12.2096 214.478 12.3689C214.39 12.5281 214.346 12.7212 214.346 12.9482Z" fill="white"/>
<path d="M219.61 15.3775C219.234 15.3775 218.91 15.2945 218.637 15.1285C218.366 14.9608 218.157 14.727 218.009 14.4271C217.864 14.1256 217.791 13.7749 217.791 13.3751C217.791 12.9753 217.864 12.623 218.009 12.3181C218.157 12.0114 218.362 11.7726 218.624 11.6015C218.888 11.4287 219.197 11.3423 219.549 11.3423C219.752 11.3423 219.953 11.3762 220.151 11.4439C220.35 11.5117 220.53 11.6218 220.693 11.7743C220.855 11.925 220.985 12.1249 221.081 12.374C221.178 12.623 221.226 12.9296 221.226 13.2938V13.5479H218.218V13.0296H220.616C220.616 12.8093 220.572 12.6128 220.484 12.44C220.398 12.2672 220.274 12.1309 220.113 12.0309C219.954 11.931 219.766 11.881 219.549 11.881C219.31 11.881 219.104 11.9403 218.929 12.0589C218.756 12.1758 218.623 12.3282 218.53 12.5163C218.437 12.7043 218.39 12.9059 218.39 13.121V13.4666C218.39 13.7614 218.441 14.0113 218.543 14.2162C218.646 14.4195 218.789 14.5745 218.972 14.6813C219.155 14.7863 219.368 14.8388 219.61 14.8388C219.768 14.8388 219.91 14.8168 220.037 14.7727C220.166 14.727 220.277 14.6592 220.37 14.5695C220.463 14.478 220.535 14.3645 220.586 14.2289L221.165 14.3916C221.104 14.5881 221.002 14.7609 220.858 14.91C220.714 15.0573 220.536 15.1725 220.324 15.2555C220.112 15.3369 219.874 15.3775 219.61 15.3775Z" fill="white"/>
<path d="M174.054 23.3532C173.991 23.1474 173.903 22.9631 173.791 22.8005C173.682 22.6353 173.55 22.4943 173.395 22.3774C173.242 22.2605 173.067 22.1729 172.869 22.1144C172.671 22.0534 172.455 22.0229 172.221 22.0229C171.802 22.0229 171.428 22.1284 171.1 22.3393C170.772 22.5502 170.514 22.8602 170.326 23.2693C170.141 23.6759 170.048 24.1714 170.048 24.7559C170.048 25.3454 170.141 25.8447 170.326 26.2538C170.512 26.6629 170.77 26.9742 171.1 27.1877C171.431 27.3986 171.814 27.504 172.251 27.504C172.648 27.504 172.991 27.4278 173.28 27.2753C173.573 27.1229 173.798 26.9069 173.955 26.6274C174.113 26.3453 174.191 26.015 174.191 25.6363L174.512 25.6859H172.392V24.5805H175.56V25.5182C175.56 26.1865 175.417 26.7646 175.133 27.2525C174.848 27.7404 174.457 28.1164 173.959 28.3807C173.461 28.6424 172.889 28.7733 172.244 28.7733C171.525 28.7733 170.893 28.6119 170.349 28.2892C169.808 27.964 169.385 27.5028 169.08 26.9056C168.778 26.3059 168.626 25.5944 168.626 24.7711C168.626 24.1409 168.715 23.5781 168.893 23.0826C169.074 22.587 169.325 22.1665 169.648 21.8209C169.971 21.4728 170.349 21.2085 170.784 21.0281C171.218 20.8451 171.691 20.7537 172.202 20.7537C172.634 20.7537 173.037 20.8172 173.41 20.9442C173.784 21.0688 174.115 21.2466 174.405 21.4779C174.697 21.7091 174.937 21.9835 175.125 22.3012C175.313 22.6188 175.437 22.9695 175.495 23.3532H174.054Z" fill="white"/>
<path d="M179.42 28.7809C178.848 28.7809 178.353 28.6551 177.933 28.4036C177.514 28.152 177.189 27.8001 176.958 27.3478C176.729 26.8954 176.615 26.3669 176.615 25.7621C176.615 25.1573 176.729 24.6275 176.958 24.1727C177.189 23.7178 177.514 23.3646 177.933 23.1131C178.353 22.8615 178.848 22.7357 179.42 22.7357C179.992 22.7357 180.487 22.8615 180.907 23.1131C181.326 23.3646 181.65 23.7178 181.878 24.1727C182.11 24.6275 182.225 25.1573 182.225 25.7621C182.225 26.3669 182.11 26.8954 181.878 27.3478C181.65 27.8001 181.326 28.152 180.907 28.4036C180.487 28.6551 179.992 28.7809 179.42 28.7809ZM179.428 27.6756C179.738 27.6756 179.997 27.5904 180.205 27.4202C180.414 27.2474 180.569 27.0161 180.67 26.7265C180.774 26.4368 180.826 26.1141 180.826 25.7583C180.826 25.4 180.774 25.076 180.67 24.7864C180.569 24.4941 180.414 24.2616 180.205 24.0888C179.997 23.916 179.738 23.8296 179.428 23.8296C179.11 23.8296 178.846 23.916 178.635 24.0888C178.426 24.2616 178.27 24.4941 178.166 24.7864C178.064 25.076 178.014 25.4 178.014 25.7583C178.014 26.1141 178.064 26.4368 178.166 26.7265C178.27 27.0161 178.426 27.2474 178.635 27.4202C178.846 27.5904 179.11 27.6756 179.428 27.6756Z" fill="white"/>
<path d="M185.95 28.7809C185.379 28.7809 184.883 28.6551 184.464 28.4036C184.044 28.152 183.719 27.8001 183.488 27.3478C183.259 26.8954 183.145 26.3669 183.145 25.7621C183.145 25.1573 183.259 24.6275 183.488 24.1727C183.719 23.7178 184.044 23.3646 184.464 23.1131C184.883 22.8615 185.379 22.7357 185.95 22.7357C186.522 22.7357 187.018 22.8615 187.437 23.1131C187.856 23.3646 188.18 23.7178 188.409 24.1727C188.64 24.6275 188.756 25.1573 188.756 25.7621C188.756 26.3669 188.64 26.8954 188.409 27.3478C188.18 27.8001 187.856 28.152 187.437 28.4036C187.018 28.6551 186.522 28.7809 185.95 28.7809ZM185.958 27.6756C186.268 27.6756 186.527 27.5904 186.735 27.4202C186.944 27.2474 187.099 27.0161 187.2 26.7265C187.305 26.4368 187.357 26.1141 187.357 25.7583C187.357 25.4 187.305 25.076 187.2 24.7864C187.099 24.4941 186.944 24.2616 186.735 24.0888C186.527 23.916 186.268 23.8296 185.958 23.8296C185.64 23.8296 185.376 23.916 185.165 24.0888C184.957 24.2616 184.8 24.4941 184.696 24.7864C184.595 25.076 184.544 25.4 184.544 25.7583C184.544 26.1141 184.595 26.4368 184.696 26.7265C184.8 27.0161 184.957 27.2474 185.165 27.4202C185.376 27.5904 185.64 27.6756 185.958 27.6756Z" fill="white"/>
<path d="M192.473 30.984C191.977 30.984 191.552 30.9167 191.196 30.782C190.84 30.6499 190.554 30.472 190.338 30.2484C190.122 30.0248 189.972 29.777 189.889 29.5051L191.131 29.204C191.187 29.3184 191.268 29.4314 191.375 29.5432C191.482 29.6576 191.625 29.7516 191.806 29.8253C191.989 29.9015 192.219 29.9397 192.496 29.9397C192.887 29.9397 193.211 29.8444 193.468 29.6538C193.724 29.4657 193.853 29.1557 193.853 28.7238V27.6146H193.784C193.713 27.7569 193.609 27.903 193.472 28.0529C193.337 28.2028 193.158 28.3286 192.934 28.4303C192.713 28.5319 192.435 28.5827 192.099 28.5827C191.65 28.5827 191.242 28.4773 190.876 28.2664C190.512 28.0529 190.223 27.7353 190.007 27.3135C189.793 26.8891 189.687 26.358 189.687 25.7202C189.687 25.0773 189.793 24.5348 190.007 24.0926C190.223 23.6479 190.514 23.3113 190.88 23.0826C191.246 22.8513 191.653 22.7357 192.103 22.7357C192.446 22.7357 192.728 22.7941 192.949 22.911C193.173 23.0254 193.351 23.1639 193.483 23.3265C193.615 23.4866 193.715 23.6378 193.784 23.7801H193.86V22.8119H195.221V28.7619C195.221 29.2625 195.102 29.6767 194.863 30.0045C194.624 30.3323 194.297 30.5775 193.883 30.7401C193.469 30.9027 192.999 30.984 192.473 30.984ZM192.484 27.5002C192.777 27.5002 193.026 27.4291 193.231 27.2868C193.437 27.1445 193.593 26.9399 193.7 26.6731C193.807 26.4063 193.86 26.0861 193.86 25.7126C193.86 25.3441 193.807 25.0214 193.7 24.7444C193.596 24.4674 193.441 24.2527 193.235 24.1003C193.032 23.9453 192.782 23.8678 192.484 23.8678C192.177 23.8678 191.92 23.9478 191.714 24.1079C191.509 24.268 191.354 24.4878 191.249 24.7673C191.145 25.0443 191.093 25.3594 191.093 25.7126C191.093 26.0709 191.145 26.3847 191.249 26.654C191.356 26.9209 191.512 27.1292 191.718 27.2791C191.927 27.4265 192.182 27.5002 192.484 27.5002Z" fill="white"/>
<path d="M198.015 20.8604V28.6666H196.635V20.8604H198.015Z" fill="white"/>
<path d="M202.026 28.7809C201.439 28.7809 200.932 28.659 200.505 28.415C200.081 28.1685 199.754 27.8204 199.525 27.3706C199.297 26.9183 199.182 26.386 199.182 25.7736C199.182 25.1713 199.297 24.6428 199.525 24.1879C199.757 23.7305 200.079 23.3748 200.493 23.1207C200.908 22.864 201.394 22.7357 201.953 22.7357C202.314 22.7357 202.655 22.7941 202.975 22.911C203.298 23.0254 203.582 23.2033 203.829 23.4447C204.078 23.6861 204.273 23.9935 204.416 24.3671C204.558 24.7381 204.629 25.1802 204.629 25.6935V26.1166H199.83V25.1866H203.306C203.304 24.9223 203.247 24.6872 203.135 24.4814C203.023 24.2731 202.867 24.1092 202.666 23.9897C202.468 23.8703 202.237 23.8106 201.972 23.8106C201.69 23.8106 201.443 23.8792 201.229 24.0164C201.016 24.1511 200.849 24.329 200.73 24.55C200.613 24.7686 200.553 25.0087 200.551 25.2704V26.0823C200.551 26.4228 200.613 26.715 200.737 26.959C200.862 27.2004 201.036 27.3859 201.26 27.5155C201.483 27.6425 201.745 27.706 202.045 27.706C202.246 27.706 202.427 27.6781 202.59 27.6222C202.752 27.5637 202.894 27.4786 203.013 27.3668C203.132 27.255 203.223 27.1165 203.284 26.9513L204.572 27.0962C204.491 27.4367 204.336 27.734 204.107 27.9881C203.881 28.2397 203.591 28.4353 203.238 28.5751C202.885 28.7123 202.481 28.7809 202.026 28.7809Z" fill="white"/>
<path d="M208.52 28.6666V20.8604H211.447C212.047 20.8604 212.55 20.9722 212.957 21.1958C213.366 21.4194 213.674 21.7269 213.883 22.1182C214.094 22.507 214.199 22.9492 214.199 23.4447C214.199 23.9453 214.094 24.3899 213.883 24.7787C213.672 25.1675 213.361 25.4737 212.949 25.6973C212.537 25.9184 212.03 26.0289 211.428 26.0289H209.488V24.8664H211.237C211.588 24.8664 211.875 24.8054 212.099 24.6834C212.323 24.5615 212.488 24.3938 212.594 24.1803C212.704 23.9669 212.758 23.7216 212.758 23.4447C212.758 23.1677 212.704 22.9237 212.594 22.7128C212.488 22.5019 212.321 22.338 212.095 22.2211C211.871 22.1017 211.583 22.042 211.23 22.042H209.934V28.6666H208.52Z" fill="white"/>
<path d="M216.746 20.8604V28.6666H215.366V20.8604H216.746Z" fill="white"/>
<path d="M219.85 28.7847C219.479 28.7847 219.145 28.7187 218.847 28.5865C218.553 28.4519 218.319 28.2537 218.146 27.9919C217.976 27.7302 217.891 27.4075 217.891 27.0238C217.891 26.6934 217.952 26.4203 218.074 26.2043C218.196 25.9883 218.362 25.8155 218.573 25.6859C218.784 25.5563 219.021 25.4585 219.286 25.3924C219.553 25.3238 219.828 25.2742 220.113 25.2437C220.456 25.2082 220.734 25.1764 220.948 25.1485C221.161 25.118 221.316 25.0722 221.413 25.0112C221.512 24.9477 221.561 24.8499 221.561 24.7177V24.6949C221.561 24.4077 221.476 24.1854 221.306 24.0278C221.136 23.8703 220.89 23.7915 220.57 23.7915C220.232 23.7915 219.964 23.8652 219.766 24.0126C219.57 24.16 219.438 24.334 219.37 24.5348L218.081 24.3518C218.183 23.9961 218.351 23.6988 218.584 23.4599C218.818 23.2185 219.104 23.0381 219.442 22.9187C219.78 22.7967 220.153 22.7357 220.563 22.7357C220.845 22.7357 221.125 22.7687 221.405 22.8348C221.684 22.9009 221.94 23.0101 222.171 23.1626C222.402 23.3125 222.588 23.5171 222.728 23.7763C222.87 24.0355 222.941 24.3595 222.941 24.7482V28.6666H221.615V27.8623H221.569C221.485 28.025 221.367 28.1774 221.214 28.3197C221.064 28.4595 220.875 28.5726 220.646 28.659C220.42 28.7428 220.155 28.7847 219.85 28.7847ZM220.208 27.7708C220.485 27.7708 220.725 27.7162 220.928 27.6069C221.132 27.4951 221.288 27.3478 221.397 27.1648C221.509 26.9818 221.565 26.7824 221.565 26.5664V25.8765C221.522 25.912 221.448 25.9451 221.344 25.9756C221.242 26.0061 221.128 26.0327 221.001 26.0556C220.874 26.0785 220.748 26.0988 220.624 26.1166C220.499 26.1344 220.391 26.1496 220.3 26.1623C220.094 26.1903 219.91 26.236 219.747 26.2996C219.584 26.3631 219.456 26.452 219.362 26.5664C219.268 26.6782 219.221 26.823 219.221 27.0009C219.221 27.255 219.314 27.4469 219.499 27.5765C219.685 27.706 219.921 27.7708 220.208 27.7708Z" fill="white"/>
<path d="M224.976 30.8621C224.788 30.8621 224.614 30.8468 224.454 30.8163C224.297 30.7884 224.171 30.7553 224.077 30.7172L224.397 29.6424C224.598 29.7008 224.777 29.7287 224.935 29.7262C225.092 29.7237 225.231 29.6741 225.35 29.5776C225.472 29.4835 225.575 29.326 225.659 29.1049L225.777 28.7885L223.654 22.8119H225.117L226.467 27.2334H226.528L227.881 22.8119H229.348L227.004 29.3755C226.895 29.6855 226.75 29.9511 226.57 30.1722C226.389 30.3958 226.168 30.566 225.906 30.6829C225.647 30.8024 225.337 30.8621 224.976 30.8621Z" fill="white"/>
<rect x="104" y="4" width="1" height="32" fill="#C4C4C4"/>
<defs>
<radialGradient id="paint0_radial_615_992" cx="0" cy="0" r="1" gradientUnits="userSpaceOnUse" gradientTransform="translate(16 20) rotate(85.3036) scale(30.6673)">
<stop stop-color="#C1C1C1"/>
<stop offset="1" stop-color="#EDEDED"/>
</radialGradient>
<radialGradient id="paint1_radial_615_992" cx="0" cy="0" r="1" gradientUnits="userSpaceOnUse" gradientTransform="translate(64.0009 20.0004) rotate(85.3036) scale(14.4368)">
<stop stop-color="#C1C1C1"/>
<stop offset="1" stop-color="#EDEDED"/>
</radialGradient>
<radialGradient id="paint2_radial_615_992" cx="0" cy="0" r="1" gradientUnits="userSpaceOnUse" gradientTransform="translate(64 20) rotate(85.3036) scale(5.86991)">
<stop stop-color="#C1C1C1"/>
<stop offset="1" stop-color="#EDEDED"/>
</radialGradient>
<radialGradient id="paint3_radial_615_992" cx="0" cy="0" r="1" gradientUnits="userSpaceOnUse" gradientTransform="translate(64 20) rotate(85.3036) scale(30.6673)">
<stop stop-color="#C1C1C1"/>
<stop offset="1" stop-color="#EDEDED"/>
</radialGradient>
<radialGradient id="paint4_radial_615_992" cx="0" cy="0" r="1" gradientUnits="userSpaceOnUse" gradientTransform="translate(314.5 20) rotate(76.9341) scale(39.2208 105.846)">
<stop stop-color="#C1C1C1"/>
<stop offset="1" stop-color="#EDEDED"/>
</radialGradient>
<radialGradient id="paint5_radial_615_992" cx="0" cy="0" r="1" gradientUnits="userSpaceOnUse" gradientTransform="translate(185.5 20) rotate(76.9341) scale(39.2208 105.846)">
<stop stop-color="#C1C1C1"/>
<stop offset="1" stop-color="#EDEDED"/>
</radialGradient>
</defs>
</svg>
