<svg width="1866" height="244" viewBox="0 0 1866 244" fill="none" xmlns="http://www.w3.org/2000/svg">
<rect x="-91" y="1.00024" width="1957" height="243" rx="40" fill="#F7F7F7"/>
<mask id="mask0_1312_115313" style="mask-type:alpha" maskUnits="userSpaceOnUse" x="-201" y="0" width="2067" height="244">
<rect x="-201" y="1.52588e-05" width="2067" height="244" rx="40" fill="url(#paint0_radial_1312_115313)"/>
</mask>
<g mask="url(#mask0_1312_115313)">
<rect x="156.051" y="164.72" width="505.892" height="505.892" rx="94.9017" transform="rotate(-45 156.051 164.72)" fill="url(#paint1_radial_1312_115313)" fill-opacity="0.2"/>
<rect opacity="0.5" x="1201.05" y="-21.28" width="505.892" height="505.892" rx="94.9017" transform="rotate(-45 1201.05 -21.28)" fill="url(#paint2_radial_1312_115313)"/>
<rect x="1111.05" y="20.6802" width="29.5148" height="29.5148" rx="6.61204" transform="rotate(-45 1111.05 20.6802)" fill="url(#paint3_radial_1312_115313)" fill-opacity="0.6"/>
<rect x="1166.02" y="20.6802" width="29.5148" height="29.5148" rx="6.61204" transform="rotate(-45 1166.02 20.6802)" fill="url(#paint4_radial_1312_115313)" fill-opacity="0.6"/>
<rect x="1220.98" y="20.6802" width="29.5148" height="29.5148" rx="6.61204" transform="rotate(-45 1220.98 20.6802)" fill="url(#paint5_radial_1312_115313)" fill-opacity="0.6"/>
<rect x="1275.95" y="20.6802" width="29.5148" height="29.5148" rx="6.61204" transform="rotate(-45 1275.95 20.6802)" fill="url(#paint6_radial_1312_115313)" fill-opacity="0.6"/>
<rect x="1330.91" y="20.6802" width="29.5148" height="29.5148" rx="6.61204" transform="rotate(-45 1330.91 20.6802)" fill="url(#paint7_radial_1312_115313)" fill-opacity="0.6"/>
<rect x="1385.88" y="20.6802" width="29.5148" height="29.5148" rx="6.61204" transform="rotate(-45 1385.88 20.6802)" fill="url(#paint8_radial_1312_115313)" fill-opacity="0.6"/>
<rect x="1440.84" y="20.6802" width="29.5148" height="29.5148" rx="6.61204" transform="rotate(-45 1440.84 20.6802)" fill="url(#paint9_radial_1312_115313)" fill-opacity="0.6"/>
<rect x="1495.81" y="20.6802" width="29.5148" height="29.5148" rx="6.61204" transform="rotate(-45 1495.81 20.6802)" fill="url(#paint10_radial_1312_115313)" fill-opacity="0.6"/>
<rect x="1111.05" y="76.8827" width="29.5148" height="29.5148" rx="6.61204" transform="rotate(-45 1111.05 76.8827)" fill="url(#paint11_radial_1312_115313)" fill-opacity="0.6"/>
<rect x="1166.02" y="76.8828" width="29.5148" height="29.5148" rx="6.61204" transform="rotate(-45 1166.02 76.8828)" fill="url(#paint12_radial_1312_115313)" fill-opacity="0.6"/>
<rect x="1220.98" y="76.8828" width="29.5148" height="29.5148" rx="6.61204" transform="rotate(-45 1220.98 76.8828)" fill="url(#paint13_radial_1312_115313)" fill-opacity="0.6"/>
<rect x="1275.95" y="76.8828" width="29.5148" height="29.5148" rx="6.61204" transform="rotate(-45 1275.95 76.8828)" fill="url(#paint14_radial_1312_115313)" fill-opacity="0.6"/>
<rect x="1330.91" y="76.8828" width="29.5148" height="29.5148" rx="6.61204" transform="rotate(-45 1330.91 76.8828)" fill="url(#paint15_radial_1312_115313)" fill-opacity="0.6"/>
<rect x="1385.88" y="76.8828" width="29.5148" height="29.5148" rx="6.61204" transform="rotate(-45 1385.88 76.8828)" fill="url(#paint16_radial_1312_115313)" fill-opacity="0.6"/>
<rect x="1440.84" y="76.8828" width="29.5148" height="29.5148" rx="6.61204" transform="rotate(-45 1440.84 76.8828)" fill="url(#paint17_radial_1312_115313)" fill-opacity="0.6"/>
<rect x="1495.81" y="76.8828" width="29.5148" height="29.5148" rx="6.61204" transform="rotate(-45 1495.81 76.8828)" fill="url(#paint18_radial_1312_115313)" fill-opacity="0.6"/>
</g>
<path d="M881.171 56.1985V61.0385H868.191V69.6625H880.731V74.5025H868.191V86.9985H863.131V56.1985H881.171ZM906.848 78.0225H889.336C889.688 79.6652 890.48 80.9412 891.712 81.8505C892.974 82.7599 894.528 83.2145 896.376 83.2145C898.87 83.2145 900.762 82.3052 902.052 80.4865L905.968 82.7745C903.827 85.9719 900.615 87.5705 896.332 87.5705C892.783 87.5705 889.894 86.4852 887.664 84.3145C885.464 82.1145 884.364 79.3425 884.364 75.9985C884.364 72.7425 885.45 69.9999 887.62 67.7705C889.762 65.5412 892.548 64.4265 895.98 64.4265C899.178 64.4265 901.818 65.5559 903.9 67.8145C905.983 70.0732 907.024 72.8159 907.024 76.0425C907.024 76.6292 906.966 77.2892 906.848 78.0225ZM889.292 74.1505H902.228C901.906 72.4199 901.172 71.0852 900.028 70.1465C898.914 69.2079 897.55 68.7385 895.936 68.7385C894.176 68.7385 892.71 69.2225 891.536 70.1905C890.363 71.1585 889.615 72.4785 889.292 74.1505ZM928.501 68.1225V64.9985H933.253V86.9985H928.501V83.8305C926.711 86.3239 924.145 87.5705 920.801 87.5705C917.779 87.5705 915.198 86.4559 913.057 84.2265C910.915 81.9972 909.845 79.2545 909.845 75.9985C909.845 72.7425 910.915 69.9999 913.057 67.7705C915.198 65.5412 917.779 64.4265 920.801 64.4265C924.145 64.4265 926.711 65.6585 928.501 68.1225ZM916.577 81.0585C917.897 82.3785 919.554 83.0385 921.549 83.0385C923.543 83.0385 925.201 82.3785 926.521 81.0585C927.841 79.7092 928.501 78.0225 928.501 75.9985C928.501 73.9745 927.841 72.3025 926.521 70.9825C925.201 69.6332 923.543 68.9585 921.549 68.9585C919.554 68.9585 917.897 69.6332 916.577 70.9825C915.257 72.3025 914.597 73.9745 914.597 75.9985C914.597 77.9932 915.257 79.6799 916.577 81.0585ZM951.068 64.9985V69.5745H945.612V80.1345C945.612 81.0439 945.817 81.7039 946.228 82.1145C946.638 82.4959 947.24 82.7159 948.032 82.7745C948.853 82.8039 949.865 82.7892 951.068 82.7305V86.9985C947.43 87.4385 944.82 87.1305 943.236 86.0745C941.652 84.9892 940.86 83.0092 940.86 80.1345V69.5745H936.812V64.9985H940.86V60.2465L945.612 58.8385V64.9985H951.068ZM970.42 76.7905V64.9985H975.172V86.9985H970.42V84.1825C968.954 86.4412 966.68 87.5705 963.6 87.5705C961.048 87.5705 958.995 86.7639 957.44 85.1505C955.915 83.5079 955.152 81.2932 955.152 78.5065V64.9985H959.904V78.0225C959.904 79.6652 960.344 80.9265 961.224 81.8065C962.104 82.6865 963.307 83.1265 964.832 83.1265C966.563 83.1265 967.927 82.5985 968.924 81.5425C969.922 80.4572 970.42 78.8732 970.42 76.7905ZM985.481 64.9985V68.6945C986.684 65.9665 988.942 64.6025 992.257 64.6025V69.7505C990.468 69.6332 988.884 70.0732 987.505 71.0705C986.156 72.0385 985.481 73.6519 985.481 75.9105V86.9985H980.729V64.9985H985.481ZM1015.99 78.0225H998.477C998.829 79.6652 999.621 80.9412 1000.85 81.8505C1002.11 82.7599 1003.67 83.2145 1005.52 83.2145C1008.01 83.2145 1009.9 82.3052 1011.19 80.4865L1015.11 82.7745C1012.97 85.9719 1009.76 87.5705 1005.47 87.5705C1001.92 87.5705 999.034 86.4852 996.805 84.3145C994.605 82.1145 993.505 79.3425 993.505 75.9985C993.505 72.7425 994.59 69.9999 996.761 67.7705C998.902 65.5412 1001.69 64.4265 1005.12 64.4265C1008.32 64.4265 1010.96 65.5559 1013.04 67.8145C1015.12 70.0732 1016.16 72.8159 1016.16 76.0425C1016.16 76.6292 1016.11 77.2892 1015.99 78.0225ZM998.433 74.1505H1011.37C1011.05 72.4199 1010.31 71.0852 1009.17 70.1465C1008.05 69.2079 1006.69 68.7385 1005.08 68.7385C1003.32 68.7385 1001.85 69.2225 1000.68 70.1905C999.504 71.1585 998.756 72.4785 998.433 74.1505ZM1037.64 68.1225V56.1985H1042.39V86.9985H1037.64V83.8305C1035.85 86.3239 1033.29 87.5705 1029.94 87.5705C1026.92 87.5705 1024.34 86.4559 1022.2 84.2265C1020.06 81.9972 1018.99 79.2545 1018.99 75.9985C1018.99 72.7425 1020.06 69.9999 1022.2 67.7705C1024.34 65.5412 1026.92 64.4265 1029.94 64.4265C1033.29 64.4265 1035.85 65.6585 1037.64 68.1225ZM1025.72 81.0585C1027.04 82.3785 1028.69 83.0385 1030.69 83.0385C1032.68 83.0385 1034.34 82.3785 1035.66 81.0585C1036.98 79.7092 1037.64 78.0225 1037.64 75.9985C1037.64 73.9745 1036.98 72.3025 1035.66 70.9825C1034.34 69.6332 1032.68 68.9585 1030.69 68.9585C1028.69 68.9585 1027.04 69.6332 1025.72 70.9825C1024.4 72.3025 1023.74 73.9745 1023.74 75.9985C1023.74 77.9932 1024.4 79.6799 1025.72 81.0585ZM1084.98 82.9505C1081.9 86.0305 1078.13 87.5705 1073.67 87.5705C1069.21 87.5705 1065.43 86.0305 1062.32 82.9505C1059.24 79.8412 1057.7 76.0572 1057.7 71.5985C1057.7 67.1399 1059.24 63.3705 1062.32 60.2905C1065.43 57.1812 1069.21 55.6265 1073.67 55.6265C1078.13 55.6265 1081.9 57.1812 1084.98 60.2905C1088.09 63.3705 1089.64 67.1399 1089.64 71.5985C1089.64 76.0572 1088.09 79.8412 1084.98 82.9505ZM1065.88 79.5185C1068.03 81.6012 1070.62 82.6425 1073.67 82.6425C1076.75 82.6425 1079.33 81.6012 1081.42 79.5185C1083.53 77.4065 1084.58 74.7665 1084.58 71.5985C1084.58 68.4305 1083.53 65.8052 1081.42 63.7225C1079.33 61.6105 1076.75 60.5545 1073.67 60.5545C1070.59 60.5545 1068 61.6105 1065.88 63.7225C1063.8 65.8052 1062.76 68.4305 1062.76 71.5985C1062.76 74.7372 1063.8 77.3772 1065.88 79.5185ZM1105.52 64.4265C1108.08 64.4265 1110.11 65.2479 1111.64 66.8905C1113.19 68.5039 1113.97 70.7039 1113.97 73.4905V86.9985H1109.22V73.9745C1109.22 72.3319 1108.78 71.0705 1107.9 70.1905C1107.02 69.3105 1105.82 68.8705 1104.29 68.8705C1102.56 68.8705 1101.2 69.4132 1100.2 70.4985C1099.2 71.5545 1098.7 73.1239 1098.7 75.2065V86.9985H1093.95V64.9985H1098.7V67.8145C1100.17 65.5559 1102.44 64.4265 1105.52 64.4265Z" fill="#212121"/>
<rect x="632.051" y="117.999" width="666" height="1" fill="#D2D2D2"/>
<path d="M784.994 182.007H789.792V167.752H796.892V163.278H778.184V167.752H784.994V182.007Z" fill="#C4C4C4"/>
<path d="M798.463 182.007H814.775V177.595H803.303V174.879H813.498V170.788H803.303V167.752H814.645V163.278H798.463V182.007Z" fill="#C4C4C4"/>
<path d="M835.249 177.721C835.665 176.846 835.625 175.269 835.625 175.269H830.199C829.73 176.154 828.511 178.351 826.453 178.351C823.951 178.351 821.991 175.956 821.991 172.642C821.991 169.328 823.951 167.133 826.453 167.133C828.511 167.133 829.73 169.053 830.199 169.937H835.625C835.625 169.937 835.355 168.565 834.997 167.752C833.439 164.219 831.039 162.758 826.453 162.758C820.356 162.758 816.213 166.243 816.213 172.642C816.213 179.041 820.356 182.527 826.453 182.527C831.039 182.527 834.113 180.116 835.249 177.721Z" fill="#C4C4C4"/>
<path d="M838.28 182.007H843.987V174.065H849.094V182.007H854.821V163.278H849.094V169.937H843.987V163.278H838.28V182.007Z" fill="#C4C4C4"/>
<path d="M879.773 182.008H884.905L885.899 178.353H892.179L893.113 182.008H898.4L891.364 163.28H886.783L879.773 182.008ZM887.433 174.387L889.022 169.6L890.612 174.387H887.433Z" fill="#909599"/>
<path d="M898.123 178.1C899.251 181.124 901.224 182.528 906.253 182.528C911.751 182.528 913.471 179.953 913.471 176.415C913.471 172.644 910.143 171.064 905.557 170.413C904.396 170.17 903.072 169.6 903.506 168.174C903.745 167.391 904.741 166.756 905.792 166.756C907.491 166.756 908.624 168.404 909.067 168.976L912.794 168.931C912.794 168.931 912.584 166.422 911.405 165.243C909.735 163.572 908.606 163.099 905.792 162.974C901.825 162.798 898.191 165.022 898.191 168.69C898.191 171.473 899.546 173.788 905.33 174.907C907.754 175.375 908.501 176.051 908.249 177.092C908.031 177.987 907.582 178.353 906.253 178.353C904.195 178.353 903.1 176.467 902.788 176.051H897.642C897.642 176.051 897.86 177.394 898.123 178.1Z" fill="#909599"/>
<path d="M914.81 182.008H920.497L920.244 163.28H914.81V182.008Z" fill="#909599"/>
<path d="M920.497 182.008H925.628L926.622 178.353H932.902L933.836 182.008H939.123L932.087 163.28H927.506L920.497 182.008ZM928.156 174.387L929.745 169.6L931.335 174.387H928.156Z" fill="#909599"/>
<path d="M856.998 182.08V163.351H858.77V182.08H856.998Z" fill="#909599"/>
<path d="M865.397 165.744H865.345V182.08H863.573V163.351H865.579L876.419 179.713H876.471V163.351H878.243V182.08H876.184L865.397 165.744Z" fill="#909599"/>
<path d="M753.553 168.015L757.973 170.41L754.185 163.856L734.866 195.999L727.794 183.52V173.814L710.748 159.066H737.77L745.093 163.099L741.937 168.267L736.254 165.368H728.426L734.487 170.788V183.52L754.185 150.999L775.145 187.553L750.144 173.309L753.553 168.015Z" fill="#C4C4C4"/>
<path d="M472.745 184.337H477.628V169.186H484.015V165.333H466.385V169.186H472.745V184.337Z" fill="#C4C4C4"/>
<path d="M487.743 178.9H495.894C496.395 173.568 493.769 170.586 489.738 170.612C486.04 170.635 483.412 173.409 483.412 177.659C483.412 181.909 485.093 184.654 489.843 184.654C493.485 184.654 494.621 183.451 495.545 182.184L493.882 180.009C493.486 180.326 491.708 181.514 490.557 181.416C489.088 181.292 487.849 180.246 487.743 178.9ZM492.091 176.603H487.743C487.875 175.125 488.63 174.126 489.917 174.126C491.204 174.126 492.065 175.152 492.091 176.603Z" fill="#C4C4C4"/>
<path d="M509.357 181.928L506.367 179.612C506.05 180.14 505.512 180.905 504.113 180.905C503.675 180.905 501.939 180.905 501.939 177.659C501.939 174.413 503.346 174.129 504.113 174.126C504.881 174.122 506.05 175.072 506.367 175.6L509.229 173.614C508.718 172.591 506.689 170.559 503.675 170.559C500.66 170.559 497.975 173.409 497.975 177.659C497.975 181.909 501.044 184.759 503.675 184.654C507.37 184.654 508.462 183.591 509.357 181.928Z" fill="#C4C4C4"/>
<path d="M511.144 184.337H515.816V177.474C515.816 175.627 515.977 174.126 517.798 174.126C519.593 174.126 519.722 175.574 519.722 177.422V184.337L523.937 184.39V177.474C523.937 173.383 523.865 170.612 519.722 170.612C517.452 170.612 516.344 171.773 515.816 172.776V164.277L511.144 166.323V184.337Z" fill="#C4C4C4"/>
<path d="M543.959 179.955L539.72 177.738C539.219 178.609 538.456 180.546 536.395 180.582C534.335 180.618 532.942 177.738 532.942 174.861C532.942 171.984 533.849 169.539 536.395 169.454C538.352 169.389 539.603 171.909 540.104 172.78L543.959 171.192C542.956 168.394 540.215 165.142 536.395 164.977C531.357 164.76 528.086 168.447 528.086 174.861C528.086 181.275 531.301 184.973 536.395 184.918C539.928 184.879 542.956 182.753 543.959 179.955Z" fill="#909599"/>
<path d="M546.112 184.654H550.784V177.949C550.784 175.811 552.211 174.112 554.003 174.518C554.798 174.698 555.195 175.21 555.707 175.721L556.73 171.628C556.202 171.47 555.033 170.928 554.214 170.928C552.05 170.928 551.047 172.512 550.784 173.146V171.192H546.112V184.654Z" fill="#909599"/>
<path d="M567.752 184.654H570.088H571.566V177.923V171.192H566.962V178.108C566.962 179.955 566.763 181.349 564.915 181.349C563.121 181.349 563.125 179.955 563.125 178.108V171.192H558.904V178.108C558.904 182.199 559.702 184.918 563.846 184.918C566.116 184.918 567.224 183.756 567.752 182.753V184.654Z" fill="#909599"/>
<path d="M575.159 184.654H579.83V177.791C579.83 175.943 579.848 174.518 581.669 174.518C583.464 174.518 583.736 175.891 583.736 177.738V184.654H588.265V177.738C588.265 173.647 586.529 170.221 582.565 171.045C581.259 171.316 580.358 172.09 579.83 173.093V171.192H575.159V184.654Z" fill="#909599"/>
<path d="M602.168 181.928L599.177 179.612C598.861 180.14 598.323 180.905 596.924 180.905C596.485 180.905 594.75 180.905 594.75 177.659C594.75 174.413 596.157 174.129 596.924 174.126C597.691 174.122 598.861 175.072 599.177 175.6L602.04 173.614C601.528 172.591 599.5 170.559 596.485 170.559C593.471 170.559 590.785 173.409 590.785 177.659C590.785 181.909 593.855 184.759 596.485 184.654C600.18 184.654 601.272 183.591 602.168 181.928Z" fill="#909599"/>
<path d="M603.955 184.337H608.627V177.474C608.627 175.627 608.788 174.126 610.609 174.126C612.403 174.126 612.533 175.574 612.533 177.422V184.337L616.748 184.39V177.474C616.748 173.383 616.676 170.612 612.533 170.612C610.263 170.612 609.154 171.773 608.627 172.776V164.277L603.955 166.323V184.337Z" fill="#909599"/>
<path d="M458.529 174.074V184.999H426.321V163.487H415.397V184.999H404.811V163.487H394V151.999H426.321V163.487H437.132V151.999H458.529V163.487H437.132V174.074H458.529Z" fill="#C4C4C4"/>
<path d="M1327.28 179.175L1330.37 165.947H1328.5V161.094H1338.69V165.947H1337.04L1332.02 184.459H1321.28L1316.55 165.947H1314.9V161.094H1325.66V165.947H1323.76L1326.63 179.175H1327.28Z" fill="#C4C4C4"/>
<path d="M1356.19 177.881C1356.19 178.84 1356.06 179.75 1355.79 180.613C1355.55 181.476 1355.09 182.231 1354.39 182.878C1353.72 183.525 1352.8 184.04 1351.63 184.423C1350.46 184.807 1348.96 184.999 1347.14 184.999C1345.83 184.999 1344.64 184.855 1343.59 184.567C1342.54 184.304 1341.64 183.812 1340.9 183.093C1340.16 182.374 1339.58 181.404 1339.18 180.182C1338.77 178.936 1338.57 177.354 1338.57 175.437C1338.57 173.639 1338.76 172.13 1339.14 170.908C1339.55 169.661 1340.13 168.655 1340.9 167.888C1341.69 167.121 1342.64 166.57 1343.77 166.234C1344.92 165.875 1346.23 165.695 1347.72 165.695C1349.3 165.695 1350.62 165.875 1351.7 166.234C1352.78 166.57 1353.64 167.085 1354.29 167.78C1354.96 168.451 1355.43 169.302 1355.72 170.332C1356.03 171.339 1356.19 172.501 1356.19 173.819V176.443H1345.24C1345.24 177.258 1345.28 177.917 1345.35 178.42C1345.44 178.9 1345.59 179.271 1345.78 179.535C1345.99 179.774 1346.27 179.942 1346.6 180.038C1346.94 180.11 1347.37 180.146 1347.9 180.146C1348.78 180.146 1349.4 179.942 1349.76 179.535C1350.12 179.127 1350.3 178.576 1350.3 177.881H1356.19ZM1347.72 170.476C1347.24 170.476 1346.84 170.512 1346.53 170.584C1346.22 170.656 1345.97 170.8 1345.78 171.015C1345.59 171.207 1345.44 171.483 1345.35 171.842C1345.28 172.178 1345.24 172.621 1345.24 173.172H1350.16C1350.16 172.621 1350.12 172.178 1350.05 171.842C1349.98 171.483 1349.85 171.207 1349.66 171.015C1349.49 170.8 1349.25 170.656 1348.94 170.584C1348.63 170.512 1348.22 170.476 1347.72 170.476Z" fill="#C4C4C4"/>
<path d="M1365.59 169.434C1366.07 168.14 1366.81 167.193 1367.81 166.594C1368.82 165.995 1370.06 165.695 1371.54 165.695C1372.36 165.695 1373.1 165.791 1373.77 165.983C1374.46 166.175 1375.06 166.51 1375.56 166.989C1376.07 167.445 1376.45 168.068 1376.71 168.859C1377 169.625 1377.14 170.596 1377.14 171.77V179.643H1378.87V184.459H1369.28V179.643H1370.72V173.532C1370.72 172.717 1370.58 172.13 1370.29 171.77C1370 171.411 1369.48 171.231 1368.71 171.231C1368.02 171.231 1367.44 171.435 1366.99 171.842C1366.53 172.25 1366.3 172.956 1366.3 173.963V179.643H1367.74V184.459H1358.16V179.643H1359.88V171.051H1358.3V166.234H1365.59V169.434Z" fill="#C4C4C4"/>
<path d="M1381.26 166.234V162.13L1387.68 159.999V166.234H1391.13V171.051H1387.68V178.241C1387.68 178.792 1387.78 179.187 1387.97 179.427C1388.18 179.666 1388.58 179.786 1389.15 179.786C1389.46 179.786 1389.85 179.774 1390.3 179.75C1390.78 179.702 1391.22 179.643 1391.63 179.571V184.351C1391.22 184.447 1390.58 184.543 1389.69 184.639C1388.83 184.759 1387.93 184.819 1387 184.819C1385.85 184.819 1384.91 184.723 1384.16 184.531C1383.42 184.363 1382.84 184.052 1382.4 183.597C1381.97 183.117 1381.67 182.458 1381.51 181.62C1381.34 180.781 1381.26 179.702 1381.26 178.384V171.051H1379.53V166.234H1381.26Z" fill="#C4C4C4"/>
<path d="M1400.5 166.234V178.564C1400.5 179.547 1400.95 180.038 1401.86 180.038C1402.82 180.038 1403.47 179.834 1403.83 179.427C1404.22 179.019 1404.41 178.468 1404.41 177.773V171.051H1402.47V166.234H1410.83V178.672C1410.83 179.079 1410.88 179.343 1410.97 179.463C1411.09 179.583 1411.35 179.643 1411.73 179.643H1412.55V184.459H1408.28C1407.28 184.459 1406.5 184.256 1405.95 183.848C1405.42 183.417 1405.15 182.638 1405.12 181.512C1404.69 182.566 1404 183.417 1403.04 184.064C1402.11 184.687 1400.84 184.999 1399.24 184.999C1398.45 184.999 1397.73 184.903 1397.09 184.711C1396.46 184.543 1395.93 184.256 1395.47 183.848C1395.04 183.417 1394.69 182.854 1394.43 182.159C1394.19 181.44 1394.07 180.541 1394.07 179.463V171.051H1392.38V166.234H1400.5Z" fill="#C4C4C4"/>
<path d="M1415.82 179.643V171.051H1414.24V166.234H1422.24V168.859C1422.6 167.732 1423.16 166.929 1423.93 166.45C1424.7 165.947 1425.76 165.695 1427.12 165.695C1427.7 165.695 1428.27 165.743 1428.85 165.839C1429.42 165.935 1429.88 166.043 1430.21 166.163V173.532H1425.33V171.339C1425.26 171.315 1425.14 171.291 1424.97 171.267C1424.83 171.219 1424.62 171.195 1424.36 171.195C1424.1 171.195 1423.83 171.231 1423.57 171.303C1423.33 171.375 1423.12 171.531 1422.92 171.77C1422.73 172.01 1422.57 172.357 1422.42 172.813C1422.3 173.244 1422.24 173.831 1422.24 174.574V179.643H1424.68V184.459H1414.1V179.643H1415.82Z" fill="#C4C4C4"/>
<path d="M1449.45 177.881C1449.45 178.84 1449.32 179.75 1449.06 180.613C1448.82 181.476 1448.35 182.231 1447.66 182.878C1446.99 183.525 1446.07 184.04 1444.89 184.423C1443.72 184.807 1442.23 184.999 1440.41 184.999C1439.09 184.999 1437.91 184.855 1436.86 184.567C1435.8 184.304 1434.91 183.812 1434.16 183.093C1433.42 182.374 1432.85 181.404 1432.44 180.182C1432.03 178.936 1431.83 177.354 1431.83 175.437C1431.83 173.639 1432.02 172.13 1432.41 170.908C1432.81 169.661 1433.4 168.655 1434.16 167.888C1434.95 167.121 1435.91 166.57 1437.03 166.234C1438.18 165.875 1439.5 165.695 1440.98 165.695C1442.56 165.695 1443.89 165.875 1444.97 166.234C1446.04 166.57 1446.9 167.085 1447.55 167.78C1448.22 168.451 1448.7 169.302 1448.99 170.332C1449.3 171.339 1449.45 172.501 1449.45 173.819V176.443H1438.51C1438.51 177.258 1438.54 177.917 1438.61 178.42C1438.71 178.9 1438.85 179.271 1439.04 179.535C1439.26 179.774 1439.54 179.942 1439.87 180.038C1440.21 180.11 1440.64 180.146 1441.16 180.146C1442.05 180.146 1442.67 179.942 1443.03 179.535C1443.39 179.127 1443.57 178.576 1443.57 177.881H1449.45ZM1440.98 170.476C1440.5 170.476 1440.11 170.512 1439.8 170.584C1439.49 170.656 1439.24 170.8 1439.04 171.015C1438.85 171.207 1438.71 171.483 1438.61 171.842C1438.54 172.178 1438.51 172.621 1438.51 173.172H1443.42C1443.42 172.621 1443.39 172.178 1443.32 171.842C1443.24 171.483 1443.11 171.207 1442.92 171.015C1442.75 170.8 1442.51 170.656 1442.2 170.584C1441.89 170.512 1441.49 170.476 1440.98 170.476Z" fill="#C4C4C4"/>
<path d="M1465.24 161.094C1466.27 161.094 1467.18 161.19 1467.97 161.382C1468.78 161.573 1469.46 161.909 1470.01 162.388C1470.56 162.843 1470.97 163.467 1471.23 164.257C1471.52 165.024 1471.67 165.995 1471.67 167.169C1471.67 168.487 1471.46 169.53 1471.06 170.296C1470.65 171.063 1470.06 171.626 1469.3 171.986C1470.64 172.345 1471.57 173.004 1472.1 173.963C1472.65 174.898 1472.92 176.156 1472.92 177.737C1472.92 179.055 1472.74 180.146 1472.38 181.008C1472.02 181.871 1471.49 182.566 1470.77 183.093C1470.05 183.597 1469.14 183.956 1468.04 184.172C1466.96 184.363 1465.7 184.459 1464.24 184.459H1451.6V179.607H1453.5V165.947H1451.6V161.094H1465.24ZM1460.22 174.718V179.607H1463.95C1464.21 179.607 1464.45 179.583 1464.67 179.535C1464.88 179.463 1465.07 179.343 1465.24 179.175C1465.41 178.983 1465.53 178.732 1465.6 178.42C1465.7 178.085 1465.74 177.653 1465.74 177.126C1465.74 176.311 1465.64 175.712 1465.42 175.329C1465.21 174.922 1464.69 174.718 1463.88 174.718H1460.22ZM1460.22 170.009H1463.27C1463.79 170.009 1464.15 169.841 1464.34 169.506C1464.54 169.146 1464.63 168.595 1464.63 167.852C1464.63 167.205 1464.54 166.726 1464.34 166.414C1464.18 166.103 1463.82 165.947 1463.27 165.947H1460.22V170.009Z" fill="#909599"/>
<path d="M1492.35 177.881C1492.35 178.84 1492.22 179.75 1491.96 180.613C1491.72 181.476 1491.25 182.231 1490.56 182.878C1489.89 183.525 1488.97 184.04 1487.79 184.423C1486.62 184.807 1485.13 184.999 1483.31 184.999C1481.99 184.999 1480.81 184.855 1479.76 184.567C1478.7 184.304 1477.81 183.812 1477.06 183.093C1476.32 182.374 1475.75 181.404 1475.34 180.182C1474.93 178.936 1474.73 177.354 1474.73 175.437C1474.73 173.639 1474.92 172.13 1475.3 170.908C1475.71 169.661 1476.3 168.655 1477.06 167.888C1477.85 167.121 1478.81 166.57 1479.93 166.234C1481.08 165.875 1482.4 165.695 1483.88 165.695C1485.46 165.695 1486.79 165.875 1487.87 166.234C1488.94 166.57 1489.8 167.085 1490.45 167.78C1491.12 168.451 1491.6 169.302 1491.89 170.332C1492.2 171.339 1492.35 172.501 1492.35 173.819V176.443H1481.41C1481.41 177.258 1481.44 177.917 1481.51 178.42C1481.61 178.9 1481.75 179.271 1481.94 179.535C1482.16 179.774 1482.44 179.942 1482.77 180.038C1483.11 180.11 1483.54 180.146 1484.06 180.146C1484.95 180.146 1485.57 179.942 1485.93 179.535C1486.29 179.127 1486.47 178.576 1486.47 177.881H1492.35ZM1483.88 170.476C1483.4 170.476 1483.01 170.512 1482.7 170.584C1482.39 170.656 1482.14 170.8 1481.94 171.015C1481.75 171.207 1481.61 171.483 1481.51 171.842C1481.44 172.178 1481.41 172.621 1481.41 173.172H1486.32C1486.32 172.621 1486.29 172.178 1486.22 171.842C1486.14 171.483 1486.01 171.207 1485.82 171.015C1485.65 170.8 1485.41 170.656 1485.1 170.584C1484.79 170.512 1484.39 170.476 1483.88 170.476Z" fill="#909599"/>
<path d="M1508.43 184.459C1507.54 184.459 1505.59 184.459 1505.59 184.459V182.103C1505.59 182.103 1504.23 183.836 1503.3 184.316C1502.36 184.771 1501.11 184.999 1499.53 184.999C1497.68 184.999 1496.36 184.543 1495.54 183.633C1494.73 182.722 1494.32 181.368 1494.32 179.571C1494.32 178.444 1494.44 177.486 1494.68 176.695C1494.95 175.88 1495.35 175.221 1495.9 174.718C1496.48 174.215 1497.22 173.855 1498.13 173.639C1499.04 173.4 1500.16 173.28 1501.5 173.28H1504.55V171.914C1504.55 171.435 1504.43 171.111 1504.19 170.943C1503.95 170.752 1503.27 170.445 1502.72 170.656C1502.45 170.762 1502.32 170.871 1502.12 171.107C1501.86 171.405 1501.84 171.986 1501.84 171.986H1495.28C1495.28 171.986 1495.45 169.54 1496.29 168.414C1497.3 167.061 1498.16 166.404 1499.76 166.019C1501.11 165.695 1501.82 165.695 1503.33 165.695C1504.77 165.695 1505.96 165.803 1506.92 166.019C1507.9 166.234 1508.69 166.582 1509.29 167.061C1509.89 167.517 1510.32 168.128 1510.58 168.894C1510.84 169.637 1510.98 170.56 1510.98 171.662V178.672C1510.98 179.079 1510.97 179.634 1510.97 179.634C1510.97 179.634 1511.49 179.643 1511.87 179.643H1512.7V184.459H1508.43ZM1502.15 180.038C1502.91 180.038 1503.5 179.846 1503.91 179.463C1504.34 179.079 1504.55 178.636 1504.55 178.133V176.659H1503.12C1502.57 176.659 1502.14 176.707 1501.82 176.803C1501.54 176.899 1501.31 177.03 1501.14 177.198C1500.97 177.366 1500.87 177.57 1500.82 177.809C1500.8 178.025 1500.78 178.265 1500.78 178.528C1500.78 179.103 1500.89 179.499 1501.11 179.714C1501.32 179.93 1501.67 180.038 1502.15 180.038Z" fill="#909599"/>
<path d="M1515.77 166.234V161.906L1522.2 159.999V166.234H1525.64V171.051H1522.2V178.241C1522.2 178.792 1522.29 179.187 1522.49 179.427C1522.7 179.666 1523.1 179.786 1523.67 179.786C1523.98 179.786 1524.36 179.774 1524.82 179.75C1525.3 179.702 1525.74 179.643 1526.15 179.571V184.351C1525.74 184.447 1525.09 184.543 1524.21 184.639C1523.35 184.759 1522.45 184.819 1521.52 184.819C1520.37 184.819 1519.42 184.723 1518.68 184.531C1517.94 184.363 1517.35 184.052 1516.92 183.597C1516.49 183.117 1516.19 182.458 1516.03 181.62C1515.86 180.781 1515.77 179.702 1515.77 178.384V171.051H1514.05V166.234H1515.77Z" fill="#909599"/>
<path d="M1033.12 158.643H1044.66C1046.94 158.643 1048.78 159.288 1050.18 160.577C1051.57 161.854 1052.27 163.654 1052.27 165.977C1052.27 167.975 1051.65 169.717 1050.4 171.203C1049.16 172.678 1047.24 173.416 1044.66 173.416H1036.6V184.234H1033.12V158.643ZM1048.76 165.995C1048.76 164.113 1048.07 162.836 1046.67 162.162C1045.9 161.802 1044.85 161.622 1043.51 161.622H1036.6V170.489H1043.51C1045.07 170.489 1046.33 170.158 1047.3 169.496C1048.27 168.834 1048.76 167.667 1048.76 165.995Z" fill="#C4C4C4"/>
<path d="M1051.25 158.643H1055.3L1062.66 170.942L1070.03 158.643H1074.1L1064.41 173.921V184.234H1060.94V173.921L1051.25 158.643Z" fill="#C4C4C4"/>
<path d="M1078.16 158.643H1083.14L1090.5 180.279L1097.82 158.643H1102.74V184.234H1099.44V169.13C1099.44 168.608 1099.45 167.742 1099.47 166.535C1099.5 165.327 1099.51 164.032 1099.51 162.65L1092.2 184.234H1088.76L1081.39 162.65V163.434C1081.39 164.061 1081.4 165.019 1081.43 166.308C1081.46 167.586 1081.48 168.526 1081.48 169.13V184.234H1078.16V158.643Z" fill="#C4C4C4"/>
<path d="M1099.44 158.643H1103.54L1116.49 179.373V158.643H1119.79V184.234H1115.9L1102.64 162.65L1102.76 184.234H1099.44V171.438V158.643Z" fill="#C4C4C4"/>
<path d="M1143.6 158.643V161.692H1134.96V184.234H1131.43V161.692H1122.79V158.643H1143.6Z" fill="#C4C4C4"/>
<path d="M1149.06 175.976C1149.14 177.428 1149.48 178.607 1150.09 179.513C1151.24 181.208 1153.27 182.056 1156.18 182.056C1157.48 182.056 1158.67 181.87 1159.74 181.499C1161.81 180.779 1162.85 179.49 1162.85 177.631C1162.85 176.238 1162.41 175.245 1161.54 174.652C1160.66 174.072 1159.27 173.567 1157.39 173.137L1153.91 172.353C1151.64 171.842 1150.04 171.279 1149.09 170.663C1147.47 169.595 1146.65 167.998 1146.65 165.873C1146.65 163.573 1147.45 161.686 1149.04 160.211C1150.64 158.736 1152.89 157.999 1155.81 157.999C1158.5 157.999 1160.78 158.649 1162.66 159.95C1164.54 161.239 1165.49 163.306 1165.49 166.151H1162.22C1162.05 164.781 1161.67 163.73 1161.1 162.998C1160.04 161.663 1158.25 160.995 1155.71 160.995C1153.66 160.995 1152.19 161.425 1151.29 162.284C1150.4 163.143 1149.95 164.142 1149.95 165.28C1149.95 166.535 1150.47 167.452 1151.52 168.033C1152.21 168.404 1153.76 168.869 1156.18 169.426L1159.78 170.245C1161.51 170.64 1162.85 171.18 1163.79 171.865C1165.42 173.061 1166.24 174.798 1166.24 177.074C1166.24 179.908 1165.2 181.934 1163.13 183.154C1161.07 184.373 1158.67 184.983 1155.94 184.983C1152.75 184.983 1150.25 184.17 1148.45 182.544C1146.64 180.93 1145.76 178.74 1145.8 175.976H1149.06Z" fill="#C4C4C4"/>
<path d="M1099.41 158.64L1102.76 158.64V184.279L1099.41 184.279V158.64Z" fill="#C4C4C4"/>
<path d="M1170.75 184.964C1170.22 184.964 1169.76 184.776 1169.38 184.399C1169 184.017 1168.81 183.56 1168.81 183.027C1168.81 182.5 1169 182.048 1169.38 181.672C1169.76 181.295 1170.22 181.107 1170.75 181.107C1171.27 181.107 1171.72 181.295 1172.11 181.672C1172.5 182.048 1172.69 182.5 1172.69 183.027C1172.69 183.383 1172.6 183.708 1172.42 184.004C1172.24 184.294 1172.01 184.528 1171.72 184.706C1171.42 184.878 1171.1 184.964 1170.75 184.964Z" fill="#898989"/>
<path d="M1181.13 184.996C1179.86 184.996 1178.77 184.727 1177.85 184.189C1176.94 183.646 1176.24 182.893 1175.75 181.93C1175.26 180.967 1175.02 179.859 1175.02 178.605C1175.02 177.336 1175.27 176.222 1175.76 175.265C1176.25 174.302 1176.96 173.551 1177.87 173.013C1178.78 172.47 1179.86 172.198 1181.12 172.198C1182.2 172.198 1183.15 172.395 1183.96 172.787C1184.78 173.18 1185.42 173.731 1185.9 174.442C1186.37 175.152 1186.63 175.986 1186.68 176.943H1183.43C1183.34 176.324 1183.1 175.827 1182.7 175.45C1182.31 175.068 1181.8 174.877 1181.17 174.877C1180.64 174.877 1180.17 175.023 1179.77 175.313C1179.38 175.598 1179.07 176.015 1178.85 176.564C1178.63 177.113 1178.52 177.777 1178.52 178.557C1178.52 179.348 1178.63 180.02 1178.84 180.574C1179.07 181.128 1179.38 181.551 1179.77 181.841C1180.17 182.132 1180.64 182.277 1181.17 182.277C1181.57 182.277 1181.92 182.196 1182.23 182.035C1182.55 181.874 1182.81 181.64 1183.02 181.333C1183.23 181.021 1183.36 180.647 1183.43 180.211H1186.68C1186.63 181.158 1186.37 181.992 1185.9 182.713C1185.45 183.428 1184.81 183.988 1184 184.391C1183.2 184.795 1182.24 184.996 1181.13 184.996Z" fill="#898989"/>
<path d="M1194.5 184.996C1193.24 184.996 1192.15 184.73 1191.24 184.198C1190.33 183.66 1189.62 182.912 1189.13 181.954C1188.63 180.991 1188.38 179.875 1188.38 178.605C1188.38 177.325 1188.63 176.206 1189.13 175.248C1189.62 174.286 1190.33 173.538 1191.24 173.005C1192.15 172.467 1193.24 172.198 1194.5 172.198C1195.75 172.198 1196.84 172.467 1197.75 173.005C1198.66 173.538 1199.37 174.286 1199.87 175.248C1200.36 176.206 1200.61 177.325 1200.61 178.605C1200.61 179.875 1200.36 180.991 1199.87 181.954C1199.37 182.912 1198.66 183.66 1197.75 184.198C1196.84 184.73 1195.75 184.996 1194.5 184.996ZM1194.51 182.333C1195.08 182.333 1195.56 182.172 1195.94 181.849C1196.33 181.521 1196.62 181.075 1196.81 180.51C1197.01 179.945 1197.11 179.302 1197.11 178.581C1197.11 177.86 1197.01 177.217 1196.81 176.653C1196.62 176.088 1196.33 175.641 1195.94 175.313C1195.56 174.985 1195.08 174.821 1194.51 174.821C1193.94 174.821 1193.45 174.985 1193.06 175.313C1192.67 175.641 1192.38 176.088 1192.18 176.653C1191.98 177.217 1191.89 177.86 1191.89 178.581C1191.89 179.302 1191.98 179.945 1192.18 180.51C1192.38 181.075 1192.67 181.521 1193.06 181.849C1193.45 182.172 1193.94 182.333 1194.51 182.333Z" fill="#898989"/>
<path d="M1202.85 184.754V172.36H1206.13V174.546H1206.28C1206.54 173.82 1206.97 173.247 1207.57 172.828C1208.18 172.408 1208.9 172.198 1209.74 172.198C1210.59 172.198 1211.32 172.411 1211.91 172.836C1212.51 173.255 1212.91 173.826 1213.11 174.546H1213.24C1213.49 173.836 1213.95 173.269 1214.61 172.844C1215.28 172.413 1216.07 172.198 1216.98 172.198C1218.14 172.198 1219.08 172.567 1219.81 173.304C1220.53 174.035 1220.9 175.074 1220.9 176.419V184.754H1217.46V177.096C1217.46 176.408 1217.28 175.891 1216.91 175.547C1216.54 175.203 1216.09 175.031 1215.54 175.031C1214.91 175.031 1214.42 175.23 1214.07 175.628C1213.72 176.02 1213.55 176.54 1213.55 177.185V184.754H1210.21V177.024C1210.21 176.416 1210.03 175.932 1209.68 175.571C1209.34 175.211 1208.88 175.031 1208.32 175.031C1207.93 175.031 1207.59 175.127 1207.28 175.321C1206.98 175.509 1206.74 175.776 1206.56 176.12C1206.38 176.459 1206.29 176.857 1206.29 177.314V184.754H1202.85Z" fill="#898989"/>
<defs>
<radialGradient id="paint0_radial_1312_115313" cx="0" cy="0" r="1" gradientUnits="userSpaceOnUse" gradientTransform="translate(832.501 122) rotate(90.0001) scale(344.061 2681.32)">
<stop stop-color="#F7F7F7"/>
<stop offset="1" stop-color="#FAFAFA"/>
</radialGradient>
<radialGradient id="paint1_radial_1312_115313" cx="0" cy="0" r="1" gradientUnits="userSpaceOnUse" gradientTransform="translate(408.997 417.666) rotate(85.3036) scale(484.823)">
<stop stop-color="white"/>
<stop offset="1" stop-color="#FAFAFA"/>
</radialGradient>
<radialGradient id="paint2_radial_1312_115313" cx="0" cy="0" r="1" gradientUnits="userSpaceOnUse" gradientTransform="translate(1454 231.666) rotate(85.3036) scale(484.823)">
<stop stop-color="white"/>
<stop offset="1" stop-color="#FAFAFA"/>
</radialGradient>
<radialGradient id="paint3_radial_1312_115313" cx="0" cy="0" r="1" gradientUnits="userSpaceOnUse" gradientTransform="translate(1125.81 35.4377) rotate(85.3036) scale(28.2856)">
<stop stop-color="white"/>
<stop offset="1" stop-color="#FAFAFA"/>
</radialGradient>
<radialGradient id="paint4_radial_1312_115313" cx="0" cy="0" r="1" gradientUnits="userSpaceOnUse" gradientTransform="translate(1180.78 35.4376) rotate(85.3036) scale(28.2856)">
<stop stop-color="white"/>
<stop offset="1" stop-color="#FAFAFA"/>
</radialGradient>
<radialGradient id="paint5_radial_1312_115313" cx="0" cy="0" r="1" gradientUnits="userSpaceOnUse" gradientTransform="translate(1235.74 35.4376) rotate(85.3036) scale(28.2856)">
<stop stop-color="white"/>
<stop offset="1" stop-color="#FAFAFA"/>
</radialGradient>
<radialGradient id="paint6_radial_1312_115313" cx="0" cy="0" r="1" gradientUnits="userSpaceOnUse" gradientTransform="translate(1290.71 35.4376) rotate(85.3036) scale(28.2856)">
<stop stop-color="white"/>
<stop offset="1" stop-color="#FAFAFA"/>
</radialGradient>
<radialGradient id="paint7_radial_1312_115313" cx="0" cy="0" r="1" gradientUnits="userSpaceOnUse" gradientTransform="translate(1345.67 35.4376) rotate(85.3036) scale(28.2856)">
<stop stop-color="white"/>
<stop offset="1" stop-color="#FAFAFA"/>
</radialGradient>
<radialGradient id="paint8_radial_1312_115313" cx="0" cy="0" r="1" gradientUnits="userSpaceOnUse" gradientTransform="translate(1400.64 35.4376) rotate(85.3036) scale(28.2856)">
<stop stop-color="white"/>
<stop offset="1" stop-color="#FAFAFA"/>
</radialGradient>
<radialGradient id="paint9_radial_1312_115313" cx="0" cy="0" r="1" gradientUnits="userSpaceOnUse" gradientTransform="translate(1455.6 35.4376) rotate(85.3036) scale(28.2856)">
<stop stop-color="white"/>
<stop offset="1" stop-color="#FAFAFA"/>
</radialGradient>
<radialGradient id="paint10_radial_1312_115313" cx="0" cy="0" r="1" gradientUnits="userSpaceOnUse" gradientTransform="translate(1510.57 35.4377) rotate(85.3036) scale(28.2856)">
<stop stop-color="white"/>
<stop offset="1" stop-color="#FAFAFA"/>
</radialGradient>
<radialGradient id="paint11_radial_1312_115313" cx="0" cy="0" r="1" gradientUnits="userSpaceOnUse" gradientTransform="translate(1125.81 91.6402) rotate(85.3036) scale(28.2856)">
<stop stop-color="white"/>
<stop offset="1" stop-color="#FAFAFA"/>
</radialGradient>
<radialGradient id="paint12_radial_1312_115313" cx="0" cy="0" r="1" gradientUnits="userSpaceOnUse" gradientTransform="translate(1180.78 91.6402) rotate(85.3036) scale(28.2856)">
<stop stop-color="white"/>
<stop offset="1" stop-color="#FAFAFA"/>
</radialGradient>
<radialGradient id="paint13_radial_1312_115313" cx="0" cy="0" r="1" gradientUnits="userSpaceOnUse" gradientTransform="translate(1235.74 91.6402) rotate(85.3036) scale(28.2856)">
<stop stop-color="white"/>
<stop offset="1" stop-color="#FAFAFA"/>
</radialGradient>
<radialGradient id="paint14_radial_1312_115313" cx="0" cy="0" r="1" gradientUnits="userSpaceOnUse" gradientTransform="translate(1290.71 91.6402) rotate(85.3036) scale(28.2856)">
<stop stop-color="white"/>
<stop offset="1" stop-color="#FAFAFA"/>
</radialGradient>
<radialGradient id="paint15_radial_1312_115313" cx="0" cy="0" r="1" gradientUnits="userSpaceOnUse" gradientTransform="translate(1345.67 91.6402) rotate(85.3036) scale(28.2856)">
<stop stop-color="white"/>
<stop offset="1" stop-color="#FAFAFA"/>
</radialGradient>
<radialGradient id="paint16_radial_1312_115313" cx="0" cy="0" r="1" gradientUnits="userSpaceOnUse" gradientTransform="translate(1400.64 91.6402) rotate(85.3036) scale(28.2856)">
<stop stop-color="white"/>
<stop offset="1" stop-color="#FAFAFA"/>
</radialGradient>
<radialGradient id="paint17_radial_1312_115313" cx="0" cy="0" r="1" gradientUnits="userSpaceOnUse" gradientTransform="translate(1455.6 91.6402) rotate(85.3036) scale(28.2856)">
<stop stop-color="white"/>
<stop offset="1" stop-color="#FAFAFA"/>
</radialGradient>
<radialGradient id="paint18_radial_1312_115313" cx="0" cy="0" r="1" gradientUnits="userSpaceOnUse" gradientTransform="translate(1510.57 91.6402) rotate(85.3036) scale(28.2856)">
<stop stop-color="white"/>
<stop offset="1" stop-color="#FAFAFA"/>
</radialGradient>
</defs>
</svg>
